G04*
G04 #@! TF.GenerationSoftware,Altium Limited,Altium Designer,25.8.1 (18)*
G04*
G04 Layer_Color=0*
%FSLAX25Y25*%
%MOIN*%
G70*
G04*
G04 #@! TF.SameCoordinates,1F430A3A-8F33-46F7-BF41-0B8A99DE0E04*
G04*
G04*
G04 #@! TF.FilePolarity,Positive*
G04*
G01*
G75*
%ADD70C,0.00394*%
%ADD71C,0.00197*%
D70*
X90031Y115000D02*
X93968D01*
X92000Y113031D02*
Y116969D01*
X90167Y104500D02*
X94104D01*
X92136Y102532D02*
Y106468D01*
X90031Y131000D02*
X93968D01*
X92000Y129032D02*
Y132968D01*
X105032Y104000D02*
X108968D01*
X107000Y102032D02*
Y105968D01*
X90031Y148000D02*
X93968D01*
X92000Y146031D02*
Y149969D01*
X70031Y117500D02*
X73968D01*
X72000Y115532D02*
Y119468D01*
X144500Y122031D02*
Y125969D01*
X142532Y124000D02*
X146468D01*
X63844Y77000D02*
X67781D01*
X65812Y75032D02*
Y78969D01*
X63719Y96500D02*
X67656D01*
X65688Y94532D02*
Y98469D01*
X76531Y96500D02*
X80468D01*
X78500Y94532D02*
Y98469D01*
X77968Y146031D02*
Y149969D01*
X75999Y148000D02*
X79936D01*
X50907Y96500D02*
X54844D01*
X52876Y94532D02*
Y98469D01*
X48531Y136500D02*
X52469D01*
X50500Y134531D02*
Y138469D01*
X57032Y137000D02*
X60969D01*
X59000Y135031D02*
Y138969D01*
X76531Y77000D02*
X80468D01*
X78500Y75032D02*
Y78969D01*
X51032Y77000D02*
X54969D01*
X53000Y75032D02*
Y78969D01*
X121531Y86500D02*
X125469D01*
X123500Y84531D02*
Y88468D01*
X132663Y84531D02*
Y88468D01*
X130695Y86500D02*
X134632D01*
X113000Y82032D02*
Y85969D01*
X111031Y84000D02*
X114969D01*
D71*
X107000Y127532D02*
Y131468D01*
X105032Y129500D02*
X108968D01*
X52531Y120000D02*
X56468D01*
X54500Y118032D02*
Y121968D01*
M02*
