G04*
G04 #@! TF.GenerationSoftware,Altium Limited,Altium Designer,25.8.1 (18)*
G04*
G04 Layer_Color=32768*
%FSLAX25Y25*%
%MOIN*%
G70*
G04*
G04 #@! TF.SameCoordinates,1F430A3A-8F33-46F7-BF41-0B8A99DE0E04*
G04*
G04*
G04 #@! TF.FilePolarity,Positive*
G04*
G01*
G75*
%ADD69C,0.00591*%
%ADD70C,0.00394*%
G36*
X146224Y123501D02*
X144439Y122903D01*
X144436D01*
X144428Y122900D01*
X144414Y122894D01*
X144398Y122889D01*
X144379Y122883D01*
X144354Y122875D01*
X144299Y122856D01*
X144239Y122837D01*
X144177Y122818D01*
X144119Y122799D01*
X144092Y122791D01*
X144067Y122783D01*
X144070D01*
X144073Y122780D01*
X144081Y122777D01*
X144092Y122774D01*
X144108Y122769D01*
X144125Y122763D01*
X144147Y122758D01*
X144168Y122750D01*
X144196Y122741D01*
X144226Y122731D01*
X144258Y122720D01*
X144297Y122709D01*
X144335Y122695D01*
X144379Y122681D01*
X144422Y122665D01*
X144471Y122649D01*
X146224Y122043D01*
Y121592D01*
X143704D01*
Y121914D01*
X145815D01*
X143704Y122651D01*
Y122952D01*
X145850Y123678D01*
X143704D01*
Y124000D01*
X146224D01*
Y123501D01*
D02*
G37*
G36*
X145047Y121150D02*
X145083Y121147D01*
X145124Y121144D01*
X145168Y121139D01*
X145217Y121133D01*
X145269Y121125D01*
X145323Y121117D01*
X145441Y121090D01*
X145498Y121071D01*
X145555Y121052D01*
X145615Y121030D01*
X145670Y121002D01*
X145673Y121000D01*
X145684Y120994D01*
X145697Y120986D01*
X145719Y120975D01*
X145744Y120959D01*
X145771Y120940D01*
X145801Y120918D01*
X145836Y120893D01*
X145869Y120863D01*
X145907Y120833D01*
X145943Y120798D01*
X145981Y120759D01*
X146017Y120719D01*
X146052Y120675D01*
X146085Y120626D01*
X146115Y120577D01*
X146118Y120574D01*
X146120Y120563D01*
X146128Y120549D01*
X146139Y120528D01*
X146150Y120503D01*
X146164Y120470D01*
X146178Y120435D01*
X146191Y120396D01*
X146205Y120353D01*
X146219Y120304D01*
X146232Y120255D01*
X146243Y120200D01*
X146262Y120088D01*
X146265Y120028D01*
X146268Y119965D01*
Y119930D01*
X146265Y119902D01*
X146262Y119870D01*
X146257Y119831D01*
X146251Y119790D01*
X146243Y119744D01*
X146232Y119695D01*
X146221Y119643D01*
X146205Y119591D01*
X146186Y119536D01*
X146164Y119482D01*
X146137Y119430D01*
X146109Y119378D01*
X146074Y119329D01*
X146071Y119326D01*
X146066Y119318D01*
X146055Y119304D01*
X146038Y119288D01*
X146019Y119266D01*
X145995Y119242D01*
X145967Y119217D01*
X145935Y119187D01*
X145899Y119157D01*
X145858Y119127D01*
X145815Y119097D01*
X145765Y119070D01*
X145714Y119040D01*
X145656Y119015D01*
X145596Y118991D01*
X145533Y118969D01*
X145457Y119296D01*
X145460D01*
X145468Y119302D01*
X145484Y119304D01*
X145503Y119313D01*
X145525Y119321D01*
X145550Y119334D01*
X145610Y119362D01*
X145675Y119397D01*
X145744Y119444D01*
X145806Y119493D01*
X145834Y119523D01*
X145858Y119553D01*
X145861Y119556D01*
X145864Y119561D01*
X145869Y119569D01*
X145877Y119583D01*
X145888Y119599D01*
X145899Y119618D01*
X145910Y119640D01*
X145921Y119667D01*
X145932Y119698D01*
X145943Y119728D01*
X145965Y119799D01*
X145978Y119880D01*
X145984Y119924D01*
Y119998D01*
X145981Y120020D01*
X145978Y120044D01*
X145976Y120074D01*
X145973Y120107D01*
X145967Y120140D01*
X145948Y120219D01*
X145924Y120301D01*
X145907Y120342D01*
X145888Y120383D01*
X145866Y120421D01*
X145842Y120459D01*
X145839Y120462D01*
X145836Y120467D01*
X145828Y120478D01*
X145817Y120492D01*
X145804Y120506D01*
X145784Y120525D01*
X145765Y120544D01*
X145744Y120566D01*
X145716Y120588D01*
X145689Y120612D01*
X145626Y120656D01*
X145553Y120697D01*
X145468Y120732D01*
X145465D01*
X145457Y120735D01*
X145443Y120740D01*
X145427Y120743D01*
X145405Y120749D01*
X145380Y120757D01*
X145351Y120762D01*
X145320Y120771D01*
X145285Y120779D01*
X145247Y120784D01*
X145165Y120798D01*
X145078Y120806D01*
X144985Y120809D01*
X144982D01*
X144971D01*
X144955D01*
X144930Y120806D01*
X144903D01*
X144870Y120803D01*
X144834Y120800D01*
X144794Y120798D01*
X144750Y120792D01*
X144706Y120787D01*
X144611Y120771D01*
X144515Y120746D01*
X144422Y120716D01*
X144420D01*
X144411Y120710D01*
X144400Y120705D01*
X144384Y120700D01*
X144362Y120689D01*
X144340Y120675D01*
X144289Y120645D01*
X144228Y120604D01*
X144171Y120555D01*
X144114Y120495D01*
X144089Y120462D01*
X144065Y120426D01*
Y120424D01*
X144059Y120418D01*
X144054Y120407D01*
X144045Y120391D01*
X144037Y120372D01*
X144026Y120350D01*
X144018Y120326D01*
X144007Y120298D01*
X143985Y120235D01*
X143966Y120162D01*
X143953Y120082D01*
X143950Y120042D01*
X143947Y119998D01*
Y119971D01*
X143950Y119951D01*
X143953Y119927D01*
X143955Y119900D01*
X143961Y119867D01*
X143966Y119834D01*
X143985Y119758D01*
X143999Y119719D01*
X144016Y119678D01*
X144035Y119638D01*
X144056Y119599D01*
X144081Y119561D01*
X144108Y119523D01*
X144111Y119520D01*
X144116Y119515D01*
X144125Y119504D01*
X144138Y119490D01*
X144155Y119476D01*
X144177Y119457D01*
X144201Y119438D01*
X144228Y119416D01*
X144261Y119395D01*
X144297Y119373D01*
X144335Y119351D01*
X144379Y119329D01*
X144425Y119310D01*
X144477Y119291D01*
X144532Y119272D01*
X144589Y119258D01*
X144504Y118925D01*
X144499D01*
X144485Y118930D01*
X144466Y118936D01*
X144436Y118947D01*
X144403Y118958D01*
X144362Y118974D01*
X144318Y118991D01*
X144272Y119012D01*
X144220Y119037D01*
X144171Y119064D01*
X144116Y119094D01*
X144065Y119130D01*
X144016Y119168D01*
X143966Y119209D01*
X143920Y119255D01*
X143876Y119304D01*
X143874Y119307D01*
X143868Y119318D01*
X143857Y119332D01*
X143843Y119354D01*
X143827Y119378D01*
X143808Y119411D01*
X143789Y119446D01*
X143770Y119490D01*
X143751Y119536D01*
X143732Y119586D01*
X143712Y119640D01*
X143696Y119700D01*
X143682Y119763D01*
X143672Y119829D01*
X143666Y119897D01*
X143663Y119971D01*
Y120009D01*
X143666Y120039D01*
X143669Y120072D01*
X143672Y120113D01*
X143677Y120156D01*
X143685Y120205D01*
X143693Y120257D01*
X143704Y120312D01*
X143718Y120366D01*
X143732Y120421D01*
X143751Y120478D01*
X143772Y120533D01*
X143797Y120585D01*
X143827Y120634D01*
X143830Y120637D01*
X143835Y120645D01*
X143843Y120659D01*
X143857Y120675D01*
X143876Y120697D01*
X143895Y120721D01*
X143920Y120749D01*
X143950Y120779D01*
X143983Y120809D01*
X144018Y120841D01*
X144056Y120871D01*
X144100Y120904D01*
X144147Y120937D01*
X144196Y120967D01*
X144250Y120994D01*
X144308Y121022D01*
X144310Y121024D01*
X144321Y121027D01*
X144340Y121033D01*
X144362Y121041D01*
X144392Y121052D01*
X144425Y121063D01*
X144466Y121073D01*
X144510Y121087D01*
X144559Y121098D01*
X144611Y121112D01*
X144665Y121123D01*
X144725Y121131D01*
X144851Y121147D01*
X144916Y121150D01*
X144982Y121153D01*
X144987D01*
X144998D01*
X145020D01*
X145047Y121150D01*
D02*
G37*
G36*
X146224Y118177D02*
X144769D01*
X144766D01*
X144755D01*
X144739D01*
X144714D01*
X144687Y118174D01*
X144657D01*
X144622Y118172D01*
X144586Y118169D01*
X144507Y118163D01*
X144428Y118152D01*
X144351Y118136D01*
X144316Y118128D01*
X144286Y118117D01*
X144283D01*
X144280Y118114D01*
X144272Y118111D01*
X144261Y118106D01*
X144231Y118090D01*
X144198Y118068D01*
X144158Y118041D01*
X144119Y118005D01*
X144081Y117961D01*
X144045Y117909D01*
Y117907D01*
X144043Y117901D01*
X144037Y117893D01*
X144032Y117882D01*
X144026Y117868D01*
X144021Y117849D01*
X144013Y117830D01*
X144005Y117808D01*
X143991Y117754D01*
X143977Y117691D01*
X143966Y117620D01*
X143964Y117544D01*
Y117508D01*
X143966Y117483D01*
X143969Y117454D01*
X143972Y117418D01*
X143977Y117380D01*
X143985Y117339D01*
X144005Y117254D01*
X144018Y117210D01*
X144035Y117167D01*
X144054Y117126D01*
X144076Y117088D01*
X144100Y117052D01*
X144130Y117019D01*
X144133Y117017D01*
X144138Y117011D01*
X144149Y117006D01*
X144163Y116995D01*
X144182Y116984D01*
X144207Y116970D01*
X144237Y116954D01*
X144272Y116940D01*
X144313Y116927D01*
X144360Y116910D01*
X144411Y116897D01*
X144469Y116886D01*
X144534Y116875D01*
X144605Y116867D01*
X144684Y116864D01*
X144769Y116861D01*
X146224D01*
Y116528D01*
X144769D01*
X144764D01*
X144753D01*
X144734D01*
X144706D01*
X144673Y116531D01*
X144638Y116534D01*
X144597Y116536D01*
X144551Y116539D01*
X144455Y116550D01*
X144354Y116563D01*
X144256Y116585D01*
X144209Y116599D01*
X144166Y116615D01*
X144163D01*
X144155Y116618D01*
X144144Y116624D01*
X144127Y116632D01*
X144108Y116643D01*
X144087Y116654D01*
X144037Y116686D01*
X144007Y116706D01*
X143980Y116727D01*
X143947Y116755D01*
X143917Y116782D01*
X143887Y116815D01*
X143857Y116848D01*
X143830Y116886D01*
X143803Y116927D01*
X143800Y116929D01*
X143797Y116937D01*
X143789Y116948D01*
X143781Y116968D01*
X143770Y116989D01*
X143759Y117017D01*
X143745Y117047D01*
X143734Y117085D01*
X143721Y117123D01*
X143707Y117167D01*
X143696Y117216D01*
X143685Y117268D01*
X143677Y117325D01*
X143669Y117385D01*
X143666Y117448D01*
X143663Y117514D01*
Y117549D01*
X143666Y117574D01*
Y117604D01*
X143669Y117636D01*
X143674Y117677D01*
X143680Y117718D01*
X143693Y117811D01*
X143715Y117909D01*
X143745Y118005D01*
X143762Y118051D01*
X143783Y118095D01*
X143786Y118098D01*
X143789Y118106D01*
X143797Y118117D01*
X143805Y118131D01*
X143819Y118150D01*
X143835Y118172D01*
X143852Y118193D01*
X143874Y118218D01*
X143923Y118272D01*
X143983Y118324D01*
X144054Y118374D01*
X144095Y118395D01*
X144136Y118414D01*
X144138D01*
X144147Y118417D01*
X144160Y118423D01*
X144179Y118428D01*
X144201Y118436D01*
X144231Y118445D01*
X144264Y118453D01*
X144302Y118461D01*
X144346Y118472D01*
X144392Y118480D01*
X144444Y118488D01*
X144501Y118494D01*
X144562Y118502D01*
X144627Y118505D01*
X144695Y118510D01*
X144769D01*
X146224D01*
Y118177D01*
D02*
G37*
D69*
X104540Y140323D02*
X110444D01*
Y137372D01*
X109460Y136388D01*
X107492D01*
X106508Y137372D01*
Y140323D01*
X103556Y134420D02*
Y130484D01*
X110444Y124580D02*
Y126548D01*
Y125564D01*
X105524D01*
X104540Y126548D01*
Y127532D01*
X105524Y128516D01*
X110444Y122613D02*
X104540D01*
Y118677D01*
D70*
X57124Y118032D02*
Y121968D01*
X54500D01*
X53188D02*
X51876D01*
X52532D01*
Y118032D01*
X53188Y118688D01*
M02*
