M48
;Layer_Color=9474304
;FILE_FORMAT=2:4
INCH,TZ
;TYPE=PLATED
T01F00S00C0.0079
T02F00S00C0.0100
T03F00S00C0.0130
T04F00S00C0.0390
T05F00S00C0.0433
%
T01
X7500Y13138
X7805Y13443
X7500Y13748
X7195Y13443
T02
X6441Y13230
X6500Y13550
Y13800
X6250Y14550
X6000
X8450Y13651
X8569Y12884
X8150Y12550
X8050Y12000
X8276Y11776
X8587Y12087
X7594Y12444
X7264Y12464
T03
X5100Y7450
X5500
X6350
X6750
X7650
X8000
X8050Y9900
X7650
X6750
X6350
X5500
X5050
X6500Y11500
X6700Y12450
X6900Y12650
X6950Y14400
X6650Y14700
X11200Y14450
X12374Y13876
X13072Y14028
X13663Y14037
X14253Y14053
X12383Y10924
X12350Y9300
X12650
X12950
X10986Y10014
T04
X3850Y7900
Y8900
Y10700
Y14800
X14900Y8650
Y7350
T05
X10700Y11450
Y12450
Y13450
Y14450
M30
