G04*
G04 #@! TF.GenerationSoftware,Altium Limited,Altium Designer,25.8.1 (18)*
G04*
G04 Layer_Color=16711935*
%FSLAX25Y25*%
%MOIN*%
G70*
G04*
G04 #@! TF.SameCoordinates,1F430A3A-8F33-46F7-BF41-0B8A99DE0E04*
G04*
G04*
G04 #@! TF.FilePolarity,Positive*
G04*
G01*
G75*
%ADD12C,0.00787*%
%ADD70C,0.00394*%
G36*
X93250Y117602D02*
X93283Y117599D01*
X93321Y117594D01*
X93362Y117588D01*
X93409Y117580D01*
X93458Y117569D01*
X93510Y117558D01*
X93562Y117542D01*
X93616Y117523D01*
X93671Y117501D01*
X93723Y117473D01*
X93774Y117446D01*
X93824Y117411D01*
X93826Y117408D01*
X93835Y117402D01*
X93848Y117391D01*
X93865Y117375D01*
X93886Y117356D01*
X93911Y117331D01*
X93936Y117304D01*
X93966Y117271D01*
X93996Y117236D01*
X94026Y117195D01*
X94056Y117151D01*
X94083Y117102D01*
X94113Y117050D01*
X94138Y116993D01*
X94162Y116933D01*
X94184Y116870D01*
X93856Y116794D01*
Y116796D01*
X93851Y116805D01*
X93848Y116821D01*
X93840Y116840D01*
X93832Y116862D01*
X93818Y116886D01*
X93791Y116946D01*
X93755Y117012D01*
X93709Y117080D01*
X93660Y117143D01*
X93630Y117170D01*
X93600Y117195D01*
X93597Y117198D01*
X93591Y117200D01*
X93583Y117206D01*
X93570Y117214D01*
X93553Y117225D01*
X93534Y117236D01*
X93512Y117247D01*
X93485Y117258D01*
X93455Y117269D01*
X93425Y117280D01*
X93354Y117301D01*
X93272Y117315D01*
X93228Y117321D01*
X93155D01*
X93133Y117318D01*
X93108Y117315D01*
X93078Y117312D01*
X93046Y117309D01*
X93013Y117304D01*
X92934Y117285D01*
X92852Y117260D01*
X92811Y117244D01*
X92770Y117225D01*
X92732Y117203D01*
X92693Y117178D01*
X92691Y117176D01*
X92685Y117173D01*
X92674Y117165D01*
X92661Y117154D01*
X92647Y117140D01*
X92628Y117121D01*
X92609Y117102D01*
X92587Y117080D01*
X92565Y117053D01*
X92541Y117026D01*
X92497Y116963D01*
X92456Y116889D01*
X92420Y116805D01*
Y116802D01*
X92418Y116794D01*
X92412Y116780D01*
X92409Y116763D01*
X92404Y116742D01*
X92396Y116717D01*
X92390Y116687D01*
X92382Y116657D01*
X92374Y116622D01*
X92369Y116583D01*
X92355Y116501D01*
X92347Y116414D01*
X92344Y116321D01*
Y116319D01*
Y116308D01*
Y116291D01*
X92347Y116267D01*
Y116239D01*
X92349Y116207D01*
X92352Y116171D01*
X92355Y116130D01*
X92360Y116086D01*
X92366Y116043D01*
X92382Y115947D01*
X92407Y115852D01*
X92437Y115759D01*
Y115756D01*
X92442Y115748D01*
X92448Y115737D01*
X92453Y115721D01*
X92464Y115699D01*
X92478Y115677D01*
X92508Y115625D01*
X92549Y115565D01*
X92598Y115508D01*
X92658Y115450D01*
X92691Y115426D01*
X92726Y115401D01*
X92729D01*
X92734Y115396D01*
X92745Y115390D01*
X92762Y115382D01*
X92781Y115374D01*
X92803Y115363D01*
X92827Y115355D01*
X92854Y115344D01*
X92917Y115322D01*
X92991Y115303D01*
X93070Y115289D01*
X93111Y115287D01*
X93155Y115284D01*
X93182D01*
X93201Y115287D01*
X93226Y115289D01*
X93253Y115292D01*
X93286Y115297D01*
X93318Y115303D01*
X93395Y115322D01*
X93433Y115336D01*
X93474Y115352D01*
X93515Y115371D01*
X93553Y115393D01*
X93591Y115418D01*
X93630Y115445D01*
X93633Y115448D01*
X93638Y115453D01*
X93649Y115461D01*
X93663Y115475D01*
X93676Y115491D01*
X93695Y115513D01*
X93714Y115538D01*
X93736Y115565D01*
X93758Y115598D01*
X93780Y115633D01*
X93802Y115672D01*
X93824Y115715D01*
X93843Y115762D01*
X93862Y115814D01*
X93881Y115868D01*
X93895Y115925D01*
X94228Y115841D01*
Y115835D01*
X94222Y115822D01*
X94217Y115803D01*
X94206Y115772D01*
X94195Y115740D01*
X94178Y115699D01*
X94162Y115655D01*
X94140Y115609D01*
X94116Y115557D01*
X94088Y115508D01*
X94058Y115453D01*
X94023Y115401D01*
X93985Y115352D01*
X93944Y115303D01*
X93897Y115257D01*
X93848Y115213D01*
X93845Y115210D01*
X93835Y115205D01*
X93821Y115194D01*
X93799Y115180D01*
X93774Y115164D01*
X93742Y115145D01*
X93706Y115126D01*
X93663Y115106D01*
X93616Y115087D01*
X93567Y115068D01*
X93512Y115049D01*
X93452Y115033D01*
X93389Y115019D01*
X93324Y115008D01*
X93256Y115003D01*
X93182Y115000D01*
X93144D01*
X93114Y115003D01*
X93081Y115005D01*
X93040Y115008D01*
X92996Y115014D01*
X92947Y115022D01*
X92895Y115030D01*
X92841Y115041D01*
X92786Y115055D01*
X92732Y115068D01*
X92674Y115087D01*
X92620Y115109D01*
X92568Y115134D01*
X92519Y115164D01*
X92516Y115166D01*
X92508Y115172D01*
X92494Y115180D01*
X92478Y115194D01*
X92456Y115213D01*
X92431Y115232D01*
X92404Y115257D01*
X92374Y115287D01*
X92344Y115319D01*
X92311Y115355D01*
X92281Y115393D01*
X92248Y115437D01*
X92216Y115483D01*
X92186Y115532D01*
X92158Y115587D01*
X92131Y115644D01*
X92128Y115647D01*
X92125Y115658D01*
X92120Y115677D01*
X92112Y115699D01*
X92101Y115729D01*
X92090Y115762D01*
X92079Y115803D01*
X92066Y115846D01*
X92054Y115895D01*
X92041Y115947D01*
X92030Y116002D01*
X92022Y116062D01*
X92005Y116188D01*
X92003Y116253D01*
X92000Y116319D01*
Y116324D01*
Y116335D01*
Y116357D01*
X92003Y116384D01*
X92005Y116420D01*
X92008Y116461D01*
X92014Y116504D01*
X92019Y116553D01*
X92027Y116605D01*
X92035Y116660D01*
X92063Y116777D01*
X92082Y116834D01*
X92101Y116892D01*
X92123Y116952D01*
X92150Y117007D01*
X92153Y117009D01*
X92158Y117020D01*
X92167Y117034D01*
X92177Y117056D01*
X92194Y117080D01*
X92213Y117107D01*
X92235Y117138D01*
X92259Y117173D01*
X92289Y117206D01*
X92319Y117244D01*
X92355Y117280D01*
X92393Y117318D01*
X92434Y117353D01*
X92478Y117389D01*
X92527Y117421D01*
X92576Y117452D01*
X92579Y117454D01*
X92590Y117457D01*
X92603Y117465D01*
X92625Y117476D01*
X92650Y117487D01*
X92682Y117501D01*
X92718Y117514D01*
X92756Y117528D01*
X92800Y117542D01*
X92849Y117555D01*
X92898Y117569D01*
X92953Y117580D01*
X93065Y117599D01*
X93125Y117602D01*
X93187Y117604D01*
X93223D01*
X93250Y117602D01*
D02*
G37*
G36*
X101244Y117263D02*
X99879D01*
Y116482D01*
X101061D01*
Y116185D01*
X99879D01*
Y115041D01*
X99546D01*
Y117561D01*
X101244D01*
Y117263D01*
D02*
G37*
G36*
X99011D02*
X97520D01*
Y116493D01*
X98915D01*
Y116196D01*
X97520D01*
Y115339D01*
X99068D01*
Y115041D01*
X97187D01*
Y117561D01*
X99011D01*
Y117263D01*
D02*
G37*
G36*
X95844Y117558D02*
X95874D01*
X95909Y117555D01*
X95950Y117552D01*
X96032Y117544D01*
X96117Y117531D01*
X96199Y117514D01*
X96234Y117503D01*
X96270Y117492D01*
X96272D01*
X96278Y117490D01*
X96286Y117484D01*
X96300Y117479D01*
X96333Y117462D01*
X96371Y117438D01*
X96417Y117405D01*
X96464Y117361D01*
X96510Y117312D01*
X96551Y117252D01*
Y117250D01*
X96556Y117244D01*
X96562Y117236D01*
X96567Y117222D01*
X96575Y117206D01*
X96584Y117187D01*
X96595Y117165D01*
X96605Y117140D01*
X96625Y117083D01*
X96641Y117020D01*
X96652Y116949D01*
X96657Y116873D01*
Y116870D01*
Y116862D01*
Y116845D01*
X96655Y116829D01*
X96652Y116805D01*
X96649Y116777D01*
X96644Y116747D01*
X96636Y116714D01*
X96614Y116643D01*
X96600Y116605D01*
X96584Y116567D01*
X96565Y116529D01*
X96540Y116490D01*
X96513Y116455D01*
X96483Y116420D01*
X96480Y116417D01*
X96474Y116411D01*
X96464Y116403D01*
X96450Y116390D01*
X96431Y116376D01*
X96409Y116359D01*
X96382Y116340D01*
X96349Y116321D01*
X96313Y116302D01*
X96275Y116283D01*
X96231Y116264D01*
X96182Y116245D01*
X96130Y116228D01*
X96073Y116212D01*
X96010Y116198D01*
X95945Y116188D01*
X95947D01*
X95950Y116185D01*
X95967Y116177D01*
X95991Y116163D01*
X96021Y116147D01*
X96054Y116127D01*
X96087Y116108D01*
X96119Y116084D01*
X96147Y116062D01*
X96149Y116059D01*
X96152Y116057D01*
X96161Y116048D01*
X96171Y116037D01*
X96185Y116024D01*
X96201Y116007D01*
X96237Y115969D01*
X96278Y115920D01*
X96324Y115863D01*
X96373Y115797D01*
X96423Y115726D01*
X96859Y115041D01*
X96442D01*
X96109Y115565D01*
X96106Y115568D01*
X96103Y115576D01*
X96095Y115587D01*
X96084Y115603D01*
X96073Y115622D01*
X96057Y115644D01*
X96024Y115693D01*
X95986Y115751D01*
X95947Y115808D01*
X95907Y115863D01*
X95868Y115912D01*
Y115914D01*
X95863Y115917D01*
X95852Y115931D01*
X95836Y115953D01*
X95811Y115977D01*
X95786Y116005D01*
X95756Y116032D01*
X95726Y116059D01*
X95699Y116078D01*
X95696Y116081D01*
X95685Y116086D01*
X95672Y116095D01*
X95653Y116106D01*
X95628Y116116D01*
X95604Y116127D01*
X95576Y116138D01*
X95546Y116147D01*
X95543D01*
X95535Y116149D01*
X95522Y116152D01*
X95503Y116155D01*
X95475D01*
X95442Y116157D01*
X95404Y116160D01*
X94976D01*
Y115041D01*
X94643D01*
Y117561D01*
X95814D01*
X95844Y117558D01*
D02*
G37*
G36*
X96034Y103953D02*
X95726D01*
Y105921D01*
X95720Y105916D01*
X95706Y105902D01*
X95682Y105883D01*
X95646Y105856D01*
X95605Y105823D01*
X95554Y105787D01*
X95496Y105749D01*
X95431Y105708D01*
X95428D01*
X95423Y105703D01*
X95414Y105697D01*
X95401Y105692D01*
X95384Y105681D01*
X95365Y105673D01*
X95322Y105648D01*
X95272Y105623D01*
X95218Y105596D01*
X95161Y105572D01*
X95106Y105550D01*
Y105847D01*
X95109Y105850D01*
X95117Y105853D01*
X95130Y105861D01*
X95149Y105869D01*
X95171Y105880D01*
X95199Y105896D01*
X95229Y105913D01*
X95259Y105929D01*
X95330Y105973D01*
X95406Y106025D01*
X95485Y106079D01*
X95559Y106142D01*
X95562Y106145D01*
X95567Y106150D01*
X95578Y106158D01*
X95592Y106172D01*
X95605Y106189D01*
X95625Y106205D01*
X95666Y106251D01*
X95712Y106300D01*
X95758Y106358D01*
X95799Y106418D01*
X95835Y106481D01*
X96034D01*
Y103953D01*
D02*
G37*
G36*
X93400Y106513D02*
X93432Y106511D01*
X93468Y106508D01*
X93506Y106502D01*
X93550Y106494D01*
X93599Y106486D01*
X93648Y106475D01*
X93700Y106462D01*
X93755Y106445D01*
X93809Y106426D01*
X93864Y106404D01*
X93916Y106380D01*
X93970Y106350D01*
X93973Y106347D01*
X93984Y106342D01*
X93998Y106333D01*
X94017Y106320D01*
X94041Y106303D01*
X94066Y106281D01*
X94096Y106257D01*
X94129Y106229D01*
X94164Y106197D01*
X94200Y106164D01*
X94235Y106126D01*
X94270Y106085D01*
X94303Y106038D01*
X94339Y105992D01*
X94369Y105940D01*
X94399Y105886D01*
X94402Y105883D01*
X94404Y105872D01*
X94412Y105856D01*
X94421Y105834D01*
X94434Y105806D01*
X94445Y105771D01*
X94459Y105733D01*
X94472Y105689D01*
X94486Y105643D01*
X94500Y105591D01*
X94513Y105536D01*
X94524Y105476D01*
X94533Y105416D01*
X94541Y105350D01*
X94543Y105282D01*
X94546Y105214D01*
Y105211D01*
Y105200D01*
Y105184D01*
X94543Y105162D01*
Y105135D01*
X94541Y105102D01*
X94538Y105067D01*
X94535Y105028D01*
X94530Y104985D01*
X94522Y104941D01*
X94505Y104845D01*
X94483Y104750D01*
X94451Y104654D01*
Y104652D01*
X94445Y104643D01*
X94440Y104630D01*
X94432Y104613D01*
X94423Y104592D01*
X94410Y104567D01*
X94396Y104537D01*
X94380Y104507D01*
X94339Y104439D01*
X94290Y104368D01*
X94232Y104294D01*
X94164Y104223D01*
X94167Y104220D01*
X94175Y104215D01*
X94186Y104207D01*
X94205Y104196D01*
X94224Y104185D01*
X94249Y104168D01*
X94276Y104152D01*
X94306Y104133D01*
X94371Y104095D01*
X94445Y104056D01*
X94522Y104018D01*
X94595Y103988D01*
X94494Y103759D01*
X94492D01*
X94483Y103764D01*
X94467Y103770D01*
X94448Y103778D01*
X94423Y103789D01*
X94393Y103800D01*
X94361Y103816D01*
X94325Y103835D01*
X94287Y103854D01*
X94243Y103876D01*
X94153Y103928D01*
X94055Y103991D01*
X93954Y104065D01*
X93951Y104062D01*
X93940Y104059D01*
X93927Y104051D01*
X93905Y104040D01*
X93877Y104029D01*
X93847Y104016D01*
X93812Y104002D01*
X93771Y103988D01*
X93727Y103974D01*
X93678Y103961D01*
X93629Y103947D01*
X93574Y103936D01*
X93457Y103917D01*
X93397Y103914D01*
X93334Y103912D01*
X93301D01*
X93277Y103914D01*
X93247Y103917D01*
X93211Y103920D01*
X93173Y103925D01*
X93129Y103934D01*
X93083Y103942D01*
X93034Y103953D01*
X92982Y103966D01*
X92930Y103980D01*
X92875Y103999D01*
X92821Y104021D01*
X92766Y104045D01*
X92714Y104076D01*
X92712Y104078D01*
X92703Y104084D01*
X92687Y104092D01*
X92668Y104106D01*
X92646Y104122D01*
X92619Y104144D01*
X92589Y104168D01*
X92556Y104196D01*
X92523Y104226D01*
X92488Y104261D01*
X92452Y104299D01*
X92417Y104340D01*
X92381Y104384D01*
X92349Y104430D01*
X92316Y104482D01*
X92286Y104537D01*
X92283Y104540D01*
X92280Y104551D01*
X92272Y104567D01*
X92261Y104589D01*
X92250Y104619D01*
X92239Y104652D01*
X92226Y104690D01*
X92212Y104734D01*
X92196Y104783D01*
X92182Y104834D01*
X92171Y104889D01*
X92160Y104949D01*
X92149Y105009D01*
X92141Y105075D01*
X92138Y105143D01*
X92136Y105211D01*
Y105217D01*
Y105228D01*
Y105247D01*
X92138Y105274D01*
X92141Y105307D01*
X92144Y105345D01*
X92149Y105389D01*
X92155Y105438D01*
X92163Y105487D01*
X92171Y105542D01*
X92198Y105656D01*
X92217Y105714D01*
X92237Y105774D01*
X92259Y105834D01*
X92286Y105891D01*
X92289Y105894D01*
X92294Y105905D01*
X92302Y105921D01*
X92313Y105940D01*
X92330Y105967D01*
X92349Y105998D01*
X92370Y106027D01*
X92395Y106063D01*
X92425Y106101D01*
X92458Y106139D01*
X92491Y106178D01*
X92529Y106216D01*
X92572Y106254D01*
X92616Y106290D01*
X92663Y106325D01*
X92714Y106355D01*
X92717Y106358D01*
X92728Y106363D01*
X92742Y106369D01*
X92764Y106380D01*
X92791Y106393D01*
X92821Y106407D01*
X92859Y106421D01*
X92897Y106437D01*
X92944Y106451D01*
X92990Y106464D01*
X93042Y106478D01*
X93099Y106492D01*
X93157Y106502D01*
X93217Y106508D01*
X93279Y106513D01*
X93342Y106516D01*
X93375D01*
X93400Y106513D01*
D02*
G37*
G36*
X98339Y131041D02*
X97995D01*
X97018Y133561D01*
X97381D01*
X98036Y131729D01*
Y131726D01*
X98039Y131718D01*
X98044Y131707D01*
X98050Y131691D01*
X98055Y131672D01*
X98063Y131650D01*
X98071Y131625D01*
X98082Y131595D01*
X98102Y131532D01*
X98123Y131464D01*
X98145Y131390D01*
X98167Y131317D01*
Y131319D01*
X98170Y131325D01*
X98172Y131339D01*
X98178Y131352D01*
X98183Y131371D01*
X98189Y131393D01*
X98197Y131418D01*
X98205Y131445D01*
X98224Y131508D01*
X98249Y131579D01*
X98276Y131652D01*
X98304Y131729D01*
X98983Y133561D01*
X99322D01*
X98339Y131041D01*
D02*
G37*
G36*
X100392Y133566D02*
X100422Y133563D01*
X100458Y133558D01*
X100498Y133553D01*
X100539Y133544D01*
X100586Y133533D01*
X100632Y133520D01*
X100681Y133503D01*
X100728Y133484D01*
X100777Y133460D01*
X100823Y133432D01*
X100867Y133402D01*
X100908Y133367D01*
X100911Y133364D01*
X100916Y133359D01*
X100927Y133345D01*
X100941Y133331D01*
X100957Y133312D01*
X100976Y133288D01*
X100995Y133260D01*
X101014Y133228D01*
X101033Y133195D01*
X101053Y133157D01*
X101072Y133116D01*
X101088Y133072D01*
X101102Y133023D01*
X101113Y132974D01*
X101118Y132922D01*
X101121Y132867D01*
Y132864D01*
Y132862D01*
Y132854D01*
Y132843D01*
X101118Y132813D01*
X101113Y132774D01*
X101104Y132728D01*
X101094Y132679D01*
X101080Y132624D01*
X101058Y132570D01*
Y132567D01*
X101055Y132564D01*
X101053Y132556D01*
X101047Y132545D01*
X101031Y132515D01*
X101009Y132477D01*
X100979Y132431D01*
X100943Y132379D01*
X100902Y132324D01*
X100851Y132264D01*
X100848Y132261D01*
X100845Y132256D01*
X100834Y132248D01*
X100823Y132234D01*
X100807Y132218D01*
X100788Y132198D01*
X100766Y132174D01*
X100739Y132149D01*
X100706Y132119D01*
X100670Y132087D01*
X100632Y132048D01*
X100589Y132010D01*
X100542Y131966D01*
X100490Y131923D01*
X100433Y131874D01*
X100373Y131822D01*
X100370Y131819D01*
X100362Y131811D01*
X100346Y131800D01*
X100329Y131783D01*
X100305Y131764D01*
X100280Y131743D01*
X100223Y131693D01*
X100163Y131641D01*
X100105Y131587D01*
X100078Y131562D01*
X100053Y131541D01*
X100032Y131519D01*
X100015Y131502D01*
X100013Y131500D01*
X100002Y131489D01*
X99988Y131472D01*
X99969Y131450D01*
X99947Y131426D01*
X99925Y131398D01*
X99882Y131339D01*
X101124D01*
Y131041D01*
X99456D01*
Y131046D01*
Y131060D01*
Y131082D01*
X99458Y131109D01*
X99461Y131142D01*
X99469Y131177D01*
X99477Y131216D01*
X99491Y131254D01*
Y131257D01*
X99494Y131262D01*
X99497Y131270D01*
X99502Y131284D01*
X99510Y131298D01*
X99518Y131317D01*
X99540Y131360D01*
X99568Y131412D01*
X99603Y131470D01*
X99644Y131530D01*
X99693Y131590D01*
X99696Y131592D01*
X99699Y131598D01*
X99707Y131606D01*
X99720Y131620D01*
X99734Y131633D01*
X99753Y131652D01*
X99772Y131674D01*
X99797Y131699D01*
X99824Y131726D01*
X99854Y131753D01*
X99887Y131786D01*
X99925Y131819D01*
X99963Y131854D01*
X100007Y131890D01*
X100051Y131928D01*
X100100Y131969D01*
X100105Y131972D01*
X100119Y131985D01*
X100138Y132002D01*
X100165Y132026D01*
X100198Y132054D01*
X100236Y132087D01*
X100280Y132122D01*
X100324Y132163D01*
X100417Y132248D01*
X100507Y132338D01*
X100550Y132381D01*
X100591Y132425D01*
X100627Y132466D01*
X100657Y132504D01*
X100660Y132507D01*
X100662Y132512D01*
X100670Y132523D01*
X100679Y132537D01*
X100692Y132556D01*
X100703Y132575D01*
X100731Y132624D01*
X100758Y132682D01*
X100782Y132744D01*
X100799Y132810D01*
X100802Y132843D01*
X100804Y132876D01*
Y132878D01*
Y132884D01*
Y132895D01*
X100802Y132905D01*
Y132922D01*
X100796Y132941D01*
X100788Y132982D01*
X100771Y133031D01*
X100747Y133083D01*
X100733Y133110D01*
X100714Y133135D01*
X100695Y133159D01*
X100670Y133184D01*
X100668Y133187D01*
X100665Y133189D01*
X100657Y133195D01*
X100646Y133203D01*
X100632Y133214D01*
X100616Y133225D01*
X100578Y133249D01*
X100526Y133271D01*
X100468Y133293D01*
X100400Y133307D01*
X100362Y133312D01*
X100302D01*
X100285Y133309D01*
X100266D01*
X100245Y133304D01*
X100195Y133296D01*
X100138Y133280D01*
X100078Y133255D01*
X100048Y133239D01*
X100018Y133222D01*
X99991Y133200D01*
X99963Y133176D01*
X99961Y133173D01*
X99958Y133170D01*
X99952Y133162D01*
X99941Y133151D01*
X99933Y133138D01*
X99922Y133121D01*
X99909Y133102D01*
X99898Y133080D01*
X99884Y133056D01*
X99873Y133028D01*
X99851Y132963D01*
X99835Y132892D01*
X99832Y132851D01*
X99830Y132807D01*
X99513Y132840D01*
Y132845D01*
X99516Y132856D01*
X99518Y132873D01*
X99521Y132897D01*
X99527Y132927D01*
X99535Y132963D01*
X99543Y133001D01*
X99557Y133042D01*
X99570Y133083D01*
X99587Y133129D01*
X99608Y133173D01*
X99630Y133217D01*
X99658Y133263D01*
X99688Y133304D01*
X99720Y133345D01*
X99759Y133380D01*
X99761Y133383D01*
X99770Y133389D01*
X99780Y133397D01*
X99797Y133411D01*
X99819Y133424D01*
X99846Y133441D01*
X99876Y133457D01*
X99911Y133476D01*
X99950Y133492D01*
X99993Y133509D01*
X100040Y133525D01*
X100092Y133539D01*
X100146Y133553D01*
X100204Y133561D01*
X100266Y133566D01*
X100332Y133569D01*
X100367D01*
X100392Y133566D01*
D02*
G37*
G36*
X93201Y133558D02*
X93231D01*
X93267Y133555D01*
X93308Y133553D01*
X93389Y133544D01*
X93474Y133531D01*
X93556Y133514D01*
X93591Y133503D01*
X93627Y133492D01*
X93630D01*
X93635Y133490D01*
X93643Y133484D01*
X93657Y133479D01*
X93690Y133462D01*
X93728Y133438D01*
X93774Y133405D01*
X93821Y133361D01*
X93867Y133312D01*
X93908Y133252D01*
Y133249D01*
X93914Y133244D01*
X93919Y133236D01*
X93925Y133222D01*
X93933Y133206D01*
X93941Y133187D01*
X93952Y133165D01*
X93963Y133140D01*
X93982Y133083D01*
X93998Y133020D01*
X94009Y132949D01*
X94015Y132873D01*
Y132870D01*
Y132862D01*
Y132845D01*
X94012Y132829D01*
X94009Y132805D01*
X94007Y132777D01*
X94001Y132747D01*
X93993Y132714D01*
X93971Y132643D01*
X93957Y132605D01*
X93941Y132567D01*
X93922Y132529D01*
X93897Y132491D01*
X93870Y132455D01*
X93840Y132420D01*
X93837Y132417D01*
X93832Y132411D01*
X93821Y132403D01*
X93807Y132389D01*
X93788Y132376D01*
X93766Y132360D01*
X93739Y132340D01*
X93706Y132321D01*
X93671Y132302D01*
X93633Y132283D01*
X93589Y132264D01*
X93540Y132245D01*
X93488Y132228D01*
X93431Y132212D01*
X93368Y132198D01*
X93302Y132187D01*
X93305D01*
X93308Y132185D01*
X93324Y132177D01*
X93349Y132163D01*
X93379Y132147D01*
X93411Y132127D01*
X93444Y132108D01*
X93477Y132084D01*
X93504Y132062D01*
X93507Y132059D01*
X93510Y132056D01*
X93518Y132048D01*
X93529Y132037D01*
X93542Y132024D01*
X93559Y132007D01*
X93594Y131969D01*
X93635Y131920D01*
X93682Y131863D01*
X93731Y131797D01*
X93780Y131726D01*
X94217Y131041D01*
X93799D01*
X93466Y131565D01*
X93463Y131568D01*
X93461Y131576D01*
X93452Y131587D01*
X93441Y131603D01*
X93431Y131622D01*
X93414Y131644D01*
X93381Y131693D01*
X93343Y131751D01*
X93305Y131808D01*
X93264Y131863D01*
X93226Y131912D01*
Y131914D01*
X93220Y131917D01*
X93209Y131931D01*
X93193Y131953D01*
X93168Y131977D01*
X93144Y132005D01*
X93114Y132032D01*
X93084Y132059D01*
X93056Y132078D01*
X93054Y132081D01*
X93043Y132087D01*
X93029Y132095D01*
X93010Y132106D01*
X92985Y132116D01*
X92961Y132127D01*
X92934Y132138D01*
X92904Y132147D01*
X92901D01*
X92893Y132149D01*
X92879Y132152D01*
X92860Y132155D01*
X92833D01*
X92800Y132158D01*
X92762Y132160D01*
X92333D01*
Y131041D01*
X92000D01*
Y133561D01*
X93171D01*
X93201Y133558D01*
D02*
G37*
G36*
X95699Y133602D02*
X95732Y133599D01*
X95767Y133596D01*
X95806Y133591D01*
X95849Y133582D01*
X95898Y133574D01*
X95947Y133563D01*
X95999Y133550D01*
X96054Y133533D01*
X96109Y133514D01*
X96163Y133492D01*
X96215Y133468D01*
X96270Y133438D01*
X96272Y133435D01*
X96283Y133430D01*
X96297Y133422D01*
X96316Y133408D01*
X96341Y133391D01*
X96365Y133370D01*
X96395Y133345D01*
X96428Y133318D01*
X96464Y133285D01*
X96499Y133249D01*
X96535Y133211D01*
X96570Y133170D01*
X96603Y133127D01*
X96638Y133078D01*
X96668Y133026D01*
X96698Y132971D01*
X96701Y132968D01*
X96704Y132957D01*
X96712Y132941D01*
X96720Y132919D01*
X96734Y132892D01*
X96745Y132856D01*
X96758Y132818D01*
X96772Y132774D01*
X96786Y132728D01*
X96799Y132676D01*
X96813Y132619D01*
X96824Y132562D01*
X96832Y132499D01*
X96840Y132433D01*
X96843Y132368D01*
X96846Y132297D01*
Y132291D01*
Y132280D01*
Y132258D01*
X96843Y132231D01*
X96840Y132198D01*
X96838Y132160D01*
X96832Y132116D01*
X96827Y132067D01*
X96818Y132016D01*
X96807Y131961D01*
X96797Y131904D01*
X96780Y131846D01*
X96761Y131786D01*
X96742Y131729D01*
X96717Y131669D01*
X96690Y131612D01*
X96687Y131609D01*
X96682Y131598D01*
X96674Y131581D01*
X96663Y131562D01*
X96646Y131538D01*
X96627Y131508D01*
X96603Y131475D01*
X96578Y131439D01*
X96548Y131404D01*
X96515Y131366D01*
X96477Y131327D01*
X96439Y131289D01*
X96398Y131254D01*
X96352Y131218D01*
X96302Y131183D01*
X96251Y131153D01*
X96248Y131150D01*
X96237Y131147D01*
X96223Y131139D01*
X96201Y131128D01*
X96174Y131117D01*
X96144Y131104D01*
X96109Y131090D01*
X96068Y131076D01*
X96024Y131063D01*
X95978Y131049D01*
X95926Y131035D01*
X95874Y131025D01*
X95759Y131005D01*
X95699Y131003D01*
X95639Y131000D01*
X95604D01*
X95579Y131003D01*
X95549Y131005D01*
X95511Y131008D01*
X95473Y131014D01*
X95426Y131022D01*
X95380Y131030D01*
X95328Y131041D01*
X95276Y131054D01*
X95221Y131071D01*
X95167Y131090D01*
X95112Y131115D01*
X95058Y131139D01*
X95003Y131169D01*
X95000Y131172D01*
X94992Y131177D01*
X94976Y131188D01*
X94956Y131202D01*
X94935Y131218D01*
X94907Y131240D01*
X94877Y131265D01*
X94845Y131292D01*
X94809Y131325D01*
X94776Y131360D01*
X94741Y131398D01*
X94705Y131439D01*
X94670Y131486D01*
X94637Y131532D01*
X94607Y131584D01*
X94577Y131639D01*
X94574Y131641D01*
X94572Y131652D01*
X94563Y131669D01*
X94555Y131691D01*
X94544Y131718D01*
X94533Y131751D01*
X94520Y131786D01*
X94506Y131830D01*
X94492Y131874D01*
X94479Y131923D01*
X94468Y131975D01*
X94457Y132029D01*
X94441Y132144D01*
X94438Y132207D01*
X94435Y132267D01*
Y132269D01*
Y132275D01*
Y132283D01*
Y132294D01*
X94438Y132310D01*
Y132327D01*
X94441Y132370D01*
X94446Y132422D01*
X94454Y132485D01*
X94462Y132551D01*
X94476Y132624D01*
X94495Y132703D01*
X94517Y132783D01*
X94544Y132864D01*
X94577Y132946D01*
X94615Y133028D01*
X94659Y133105D01*
X94711Y133181D01*
X94771Y133249D01*
X94774Y133252D01*
X94787Y133266D01*
X94806Y133282D01*
X94831Y133304D01*
X94866Y133331D01*
X94905Y133361D01*
X94951Y133394D01*
X95006Y133427D01*
X95066Y133460D01*
X95131Y133492D01*
X95202Y133522D01*
X95281Y133550D01*
X95363Y133572D01*
X95451Y133588D01*
X95543Y133602D01*
X95642Y133604D01*
X95675D01*
X95699Y133602D01*
D02*
G37*
G36*
X108250Y106602D02*
X108283Y106599D01*
X108321Y106594D01*
X108362Y106588D01*
X108409Y106580D01*
X108458Y106569D01*
X108510Y106558D01*
X108562Y106542D01*
X108616Y106523D01*
X108671Y106501D01*
X108723Y106473D01*
X108774Y106446D01*
X108824Y106411D01*
X108826Y106408D01*
X108835Y106402D01*
X108848Y106391D01*
X108864Y106375D01*
X108886Y106356D01*
X108911Y106331D01*
X108935Y106304D01*
X108966Y106271D01*
X108996Y106236D01*
X109026Y106195D01*
X109056Y106151D01*
X109083Y106102D01*
X109113Y106050D01*
X109137Y105993D01*
X109162Y105933D01*
X109184Y105870D01*
X108856Y105794D01*
Y105796D01*
X108851Y105805D01*
X108848Y105821D01*
X108840Y105840D01*
X108832Y105862D01*
X108818Y105886D01*
X108791Y105946D01*
X108755Y106012D01*
X108709Y106080D01*
X108660Y106143D01*
X108630Y106170D01*
X108600Y106195D01*
X108597Y106198D01*
X108591Y106200D01*
X108583Y106206D01*
X108570Y106214D01*
X108553Y106225D01*
X108534Y106236D01*
X108512Y106247D01*
X108485Y106258D01*
X108455Y106269D01*
X108425Y106280D01*
X108354Y106301D01*
X108272Y106315D01*
X108228Y106321D01*
X108155D01*
X108133Y106318D01*
X108108Y106315D01*
X108078Y106312D01*
X108045Y106309D01*
X108013Y106304D01*
X107934Y106285D01*
X107852Y106260D01*
X107811Y106244D01*
X107770Y106225D01*
X107732Y106203D01*
X107693Y106178D01*
X107691Y106176D01*
X107685Y106173D01*
X107674Y106165D01*
X107661Y106154D01*
X107647Y106140D01*
X107628Y106121D01*
X107609Y106102D01*
X107587Y106080D01*
X107565Y106053D01*
X107541Y106026D01*
X107497Y105963D01*
X107456Y105889D01*
X107420Y105805D01*
Y105802D01*
X107418Y105794D01*
X107412Y105780D01*
X107409Y105763D01*
X107404Y105742D01*
X107396Y105717D01*
X107390Y105687D01*
X107382Y105657D01*
X107374Y105622D01*
X107369Y105583D01*
X107355Y105501D01*
X107347Y105414D01*
X107344Y105321D01*
Y105318D01*
Y105308D01*
Y105291D01*
X107347Y105267D01*
Y105239D01*
X107349Y105207D01*
X107352Y105171D01*
X107355Y105130D01*
X107360Y105087D01*
X107366Y105043D01*
X107382Y104947D01*
X107407Y104852D01*
X107437Y104759D01*
Y104756D01*
X107442Y104748D01*
X107448Y104737D01*
X107453Y104721D01*
X107464Y104699D01*
X107478Y104677D01*
X107508Y104625D01*
X107549Y104565D01*
X107598Y104508D01*
X107658Y104450D01*
X107691Y104426D01*
X107726Y104401D01*
X107729D01*
X107734Y104396D01*
X107745Y104390D01*
X107762Y104382D01*
X107781Y104374D01*
X107803Y104363D01*
X107827Y104355D01*
X107854Y104344D01*
X107917Y104322D01*
X107991Y104303D01*
X108070Y104289D01*
X108111Y104287D01*
X108155Y104284D01*
X108182D01*
X108201Y104287D01*
X108226Y104289D01*
X108253Y104292D01*
X108286Y104297D01*
X108318Y104303D01*
X108395Y104322D01*
X108433Y104336D01*
X108474Y104352D01*
X108515Y104371D01*
X108553Y104393D01*
X108591Y104418D01*
X108630Y104445D01*
X108633Y104448D01*
X108638Y104453D01*
X108649Y104461D01*
X108662Y104475D01*
X108676Y104491D01*
X108695Y104513D01*
X108714Y104538D01*
X108736Y104565D01*
X108758Y104598D01*
X108780Y104633D01*
X108802Y104672D01*
X108824Y104715D01*
X108843Y104762D01*
X108862Y104814D01*
X108881Y104868D01*
X108895Y104925D01*
X109228Y104841D01*
Y104835D01*
X109222Y104822D01*
X109217Y104803D01*
X109206Y104772D01*
X109195Y104740D01*
X109178Y104699D01*
X109162Y104655D01*
X109140Y104609D01*
X109116Y104557D01*
X109088Y104508D01*
X109058Y104453D01*
X109023Y104401D01*
X108985Y104352D01*
X108944Y104303D01*
X108897Y104257D01*
X108848Y104213D01*
X108845Y104210D01*
X108835Y104205D01*
X108821Y104194D01*
X108799Y104180D01*
X108774Y104164D01*
X108742Y104145D01*
X108706Y104125D01*
X108662Y104106D01*
X108616Y104087D01*
X108567Y104068D01*
X108512Y104049D01*
X108452Y104033D01*
X108389Y104019D01*
X108324Y104008D01*
X108256Y104003D01*
X108182Y104000D01*
X108144D01*
X108114Y104003D01*
X108081Y104005D01*
X108040Y104008D01*
X107996Y104014D01*
X107947Y104022D01*
X107895Y104030D01*
X107841Y104041D01*
X107786Y104054D01*
X107732Y104068D01*
X107674Y104087D01*
X107620Y104109D01*
X107568Y104134D01*
X107519Y104164D01*
X107516Y104166D01*
X107508Y104172D01*
X107494Y104180D01*
X107478Y104194D01*
X107456Y104213D01*
X107431Y104232D01*
X107404Y104257D01*
X107374Y104287D01*
X107344Y104319D01*
X107311Y104355D01*
X107281Y104393D01*
X107248Y104437D01*
X107216Y104483D01*
X107186Y104532D01*
X107158Y104587D01*
X107131Y104644D01*
X107128Y104647D01*
X107125Y104658D01*
X107120Y104677D01*
X107112Y104699D01*
X107101Y104729D01*
X107090Y104762D01*
X107079Y104803D01*
X107065Y104846D01*
X107054Y104895D01*
X107041Y104947D01*
X107030Y105002D01*
X107022Y105062D01*
X107005Y105187D01*
X107003Y105253D01*
X107000Y105318D01*
Y105324D01*
Y105335D01*
Y105357D01*
X107003Y105384D01*
X107005Y105420D01*
X107008Y105461D01*
X107014Y105504D01*
X107019Y105553D01*
X107027Y105605D01*
X107035Y105660D01*
X107063Y105777D01*
X107082Y105834D01*
X107101Y105892D01*
X107123Y105952D01*
X107150Y106007D01*
X107153Y106009D01*
X107158Y106020D01*
X107167Y106034D01*
X107177Y106056D01*
X107194Y106080D01*
X107213Y106107D01*
X107235Y106138D01*
X107259Y106173D01*
X107289Y106206D01*
X107319Y106244D01*
X107355Y106280D01*
X107393Y106318D01*
X107434Y106353D01*
X107478Y106389D01*
X107527Y106421D01*
X107576Y106451D01*
X107579Y106454D01*
X107590Y106457D01*
X107603Y106465D01*
X107625Y106476D01*
X107650Y106487D01*
X107682Y106501D01*
X107718Y106514D01*
X107756Y106528D01*
X107800Y106542D01*
X107849Y106555D01*
X107898Y106569D01*
X107953Y106580D01*
X108065Y106599D01*
X108125Y106602D01*
X108187Y106604D01*
X108223D01*
X108250Y106602D01*
D02*
G37*
G36*
X110677Y104041D02*
X110369D01*
Y106009D01*
X110363Y106004D01*
X110350Y105990D01*
X110325Y105971D01*
X110290Y105944D01*
X110249Y105911D01*
X110197Y105876D01*
X110140Y105837D01*
X110074Y105796D01*
X110071D01*
X110066Y105791D01*
X110057Y105785D01*
X110044Y105780D01*
X110028Y105769D01*
X110008Y105761D01*
X109965Y105736D01*
X109916Y105712D01*
X109861Y105684D01*
X109804Y105660D01*
X109749Y105638D01*
Y105936D01*
X109752Y105938D01*
X109760Y105941D01*
X109774Y105949D01*
X109793Y105957D01*
X109815Y105968D01*
X109842Y105985D01*
X109872Y106001D01*
X109902Y106017D01*
X109973Y106061D01*
X110049Y106113D01*
X110128Y106168D01*
X110202Y106230D01*
X110205Y106233D01*
X110210Y106239D01*
X110221Y106247D01*
X110235Y106260D01*
X110249Y106277D01*
X110268Y106293D01*
X110309Y106340D01*
X110355Y106389D01*
X110401Y106446D01*
X110442Y106506D01*
X110478Y106569D01*
X110677D01*
Y104041D01*
D02*
G37*
G36*
X98241Y149540D02*
X99344Y148041D01*
X98901D01*
X98006Y149313D01*
X97594Y148915D01*
Y148041D01*
X97261D01*
Y150561D01*
X97594D01*
Y149313D01*
X98844Y150561D01*
X99297D01*
X98241Y149540D01*
D02*
G37*
G36*
X100392Y150566D02*
X100422Y150563D01*
X100458Y150558D01*
X100498Y150552D01*
X100539Y150544D01*
X100586Y150533D01*
X100632Y150520D01*
X100681Y150503D01*
X100728Y150484D01*
X100777Y150460D01*
X100823Y150432D01*
X100867Y150402D01*
X100908Y150367D01*
X100911Y150364D01*
X100916Y150359D01*
X100927Y150345D01*
X100941Y150331D01*
X100957Y150312D01*
X100976Y150288D01*
X100995Y150260D01*
X101014Y150228D01*
X101033Y150195D01*
X101053Y150157D01*
X101072Y150116D01*
X101088Y150072D01*
X101102Y150023D01*
X101113Y149974D01*
X101118Y149922D01*
X101121Y149867D01*
Y149864D01*
Y149862D01*
Y149854D01*
Y149843D01*
X101118Y149813D01*
X101113Y149775D01*
X101104Y149728D01*
X101094Y149679D01*
X101080Y149624D01*
X101058Y149570D01*
Y149567D01*
X101055Y149564D01*
X101053Y149556D01*
X101047Y149545D01*
X101031Y149515D01*
X101009Y149477D01*
X100979Y149431D01*
X100943Y149379D01*
X100902Y149324D01*
X100851Y149264D01*
X100848Y149261D01*
X100845Y149256D01*
X100834Y149248D01*
X100823Y149234D01*
X100807Y149217D01*
X100788Y149198D01*
X100766Y149174D01*
X100739Y149149D01*
X100706Y149119D01*
X100670Y149086D01*
X100632Y149048D01*
X100589Y149010D01*
X100542Y148966D01*
X100490Y148923D01*
X100433Y148874D01*
X100373Y148822D01*
X100370Y148819D01*
X100362Y148811D01*
X100346Y148800D01*
X100329Y148784D01*
X100305Y148764D01*
X100280Y148742D01*
X100223Y148693D01*
X100163Y148642D01*
X100105Y148587D01*
X100078Y148562D01*
X100053Y148540D01*
X100032Y148519D01*
X100015Y148502D01*
X100013Y148500D01*
X100002Y148489D01*
X99988Y148472D01*
X99969Y148450D01*
X99947Y148426D01*
X99925Y148398D01*
X99881Y148338D01*
X101124D01*
Y148041D01*
X99456D01*
Y148046D01*
Y148060D01*
Y148082D01*
X99458Y148109D01*
X99461Y148142D01*
X99469Y148177D01*
X99477Y148216D01*
X99491Y148254D01*
Y148257D01*
X99494Y148262D01*
X99497Y148270D01*
X99502Y148284D01*
X99510Y148298D01*
X99518Y148317D01*
X99540Y148360D01*
X99568Y148412D01*
X99603Y148469D01*
X99644Y148530D01*
X99693Y148590D01*
X99696Y148592D01*
X99699Y148598D01*
X99707Y148606D01*
X99720Y148620D01*
X99734Y148633D01*
X99753Y148652D01*
X99772Y148674D01*
X99797Y148699D01*
X99824Y148726D01*
X99854Y148753D01*
X99887Y148786D01*
X99925Y148819D01*
X99963Y148854D01*
X100007Y148890D01*
X100051Y148928D01*
X100100Y148969D01*
X100105Y148972D01*
X100119Y148986D01*
X100138Y149002D01*
X100165Y149026D01*
X100198Y149054D01*
X100236Y149086D01*
X100280Y149122D01*
X100324Y149163D01*
X100417Y149248D01*
X100507Y149338D01*
X100550Y149381D01*
X100591Y149425D01*
X100627Y149466D01*
X100657Y149504D01*
X100660Y149507D01*
X100662Y149512D01*
X100670Y149523D01*
X100679Y149537D01*
X100692Y149556D01*
X100703Y149575D01*
X100731Y149624D01*
X100758Y149682D01*
X100782Y149744D01*
X100799Y149810D01*
X100802Y149843D01*
X100804Y149875D01*
Y149878D01*
Y149884D01*
Y149895D01*
X100802Y149906D01*
Y149922D01*
X100796Y149941D01*
X100788Y149982D01*
X100771Y150031D01*
X100747Y150083D01*
X100733Y150110D01*
X100714Y150135D01*
X100695Y150159D01*
X100670Y150184D01*
X100668Y150187D01*
X100665Y150189D01*
X100657Y150195D01*
X100646Y150203D01*
X100632Y150214D01*
X100616Y150225D01*
X100578Y150250D01*
X100526Y150271D01*
X100468Y150293D01*
X100400Y150307D01*
X100362Y150312D01*
X100302D01*
X100285Y150310D01*
X100266D01*
X100244Y150304D01*
X100195Y150296D01*
X100138Y150279D01*
X100078Y150255D01*
X100048Y150239D01*
X100018Y150222D01*
X99991Y150200D01*
X99963Y150176D01*
X99961Y150173D01*
X99958Y150170D01*
X99952Y150162D01*
X99941Y150151D01*
X99933Y150137D01*
X99922Y150121D01*
X99909Y150102D01*
X99898Y150080D01*
X99884Y150056D01*
X99873Y150028D01*
X99851Y149963D01*
X99835Y149892D01*
X99832Y149851D01*
X99830Y149807D01*
X99513Y149840D01*
Y149845D01*
X99516Y149856D01*
X99518Y149873D01*
X99521Y149897D01*
X99527Y149927D01*
X99535Y149963D01*
X99543Y150001D01*
X99557Y150042D01*
X99570Y150083D01*
X99587Y150129D01*
X99608Y150173D01*
X99630Y150217D01*
X99658Y150263D01*
X99688Y150304D01*
X99720Y150345D01*
X99759Y150381D01*
X99761Y150383D01*
X99770Y150389D01*
X99780Y150397D01*
X99797Y150410D01*
X99819Y150424D01*
X99846Y150441D01*
X99876Y150457D01*
X99911Y150476D01*
X99950Y150492D01*
X99993Y150509D01*
X100040Y150525D01*
X100092Y150539D01*
X100146Y150552D01*
X100204Y150561D01*
X100266Y150566D01*
X100332Y150569D01*
X100367D01*
X100392Y150566D01*
D02*
G37*
G36*
X93201Y150558D02*
X93231D01*
X93267Y150555D01*
X93308Y150552D01*
X93389Y150544D01*
X93474Y150531D01*
X93556Y150514D01*
X93591Y150503D01*
X93627Y150492D01*
X93630D01*
X93635Y150490D01*
X93643Y150484D01*
X93657Y150479D01*
X93690Y150462D01*
X93728Y150438D01*
X93774Y150405D01*
X93821Y150361D01*
X93867Y150312D01*
X93908Y150252D01*
Y150250D01*
X93914Y150244D01*
X93919Y150236D01*
X93925Y150222D01*
X93933Y150206D01*
X93941Y150187D01*
X93952Y150165D01*
X93963Y150140D01*
X93982Y150083D01*
X93998Y150020D01*
X94009Y149949D01*
X94015Y149873D01*
Y149870D01*
Y149862D01*
Y149845D01*
X94012Y149829D01*
X94009Y149804D01*
X94007Y149777D01*
X94001Y149747D01*
X93993Y149714D01*
X93971Y149643D01*
X93957Y149605D01*
X93941Y149567D01*
X93922Y149529D01*
X93897Y149490D01*
X93870Y149455D01*
X93840Y149420D01*
X93837Y149417D01*
X93832Y149411D01*
X93821Y149403D01*
X93807Y149390D01*
X93788Y149376D01*
X93766Y149360D01*
X93739Y149340D01*
X93706Y149321D01*
X93671Y149302D01*
X93633Y149283D01*
X93589Y149264D01*
X93540Y149245D01*
X93488Y149228D01*
X93431Y149212D01*
X93368Y149198D01*
X93302Y149188D01*
X93305D01*
X93308Y149185D01*
X93324Y149177D01*
X93349Y149163D01*
X93379Y149147D01*
X93411Y149127D01*
X93444Y149108D01*
X93477Y149084D01*
X93504Y149062D01*
X93507Y149059D01*
X93510Y149056D01*
X93518Y149048D01*
X93529Y149037D01*
X93542Y149024D01*
X93559Y149007D01*
X93594Y148969D01*
X93635Y148920D01*
X93682Y148863D01*
X93731Y148797D01*
X93780Y148726D01*
X94217Y148041D01*
X93799D01*
X93466Y148565D01*
X93463Y148568D01*
X93461Y148576D01*
X93452Y148587D01*
X93441Y148603D01*
X93431Y148622D01*
X93414Y148644D01*
X93381Y148693D01*
X93343Y148751D01*
X93305Y148808D01*
X93264Y148863D01*
X93226Y148912D01*
Y148915D01*
X93220Y148917D01*
X93209Y148931D01*
X93193Y148953D01*
X93168Y148977D01*
X93144Y149005D01*
X93114Y149032D01*
X93084Y149059D01*
X93056Y149078D01*
X93054Y149081D01*
X93043Y149086D01*
X93029Y149095D01*
X93010Y149106D01*
X92985Y149117D01*
X92961Y149127D01*
X92934Y149138D01*
X92904Y149147D01*
X92901D01*
X92893Y149149D01*
X92879Y149152D01*
X92860Y149155D01*
X92833D01*
X92800Y149158D01*
X92762Y149160D01*
X92333D01*
Y148041D01*
X92000D01*
Y150561D01*
X93171D01*
X93201Y150558D01*
D02*
G37*
G36*
X95699Y150602D02*
X95732Y150599D01*
X95767Y150596D01*
X95806Y150591D01*
X95849Y150583D01*
X95898Y150574D01*
X95947Y150563D01*
X95999Y150550D01*
X96054Y150533D01*
X96109Y150514D01*
X96163Y150492D01*
X96215Y150468D01*
X96270Y150438D01*
X96272Y150435D01*
X96283Y150430D01*
X96297Y150422D01*
X96316Y150408D01*
X96341Y150391D01*
X96365Y150370D01*
X96395Y150345D01*
X96428Y150318D01*
X96464Y150285D01*
X96499Y150250D01*
X96535Y150211D01*
X96570Y150170D01*
X96603Y150127D01*
X96638Y150077D01*
X96668Y150026D01*
X96698Y149971D01*
X96701Y149968D01*
X96704Y149957D01*
X96712Y149941D01*
X96720Y149919D01*
X96734Y149892D01*
X96745Y149856D01*
X96758Y149818D01*
X96772Y149775D01*
X96786Y149728D01*
X96799Y149676D01*
X96813Y149619D01*
X96824Y149562D01*
X96832Y149499D01*
X96840Y149433D01*
X96843Y149368D01*
X96846Y149297D01*
Y149291D01*
Y149280D01*
Y149258D01*
X96843Y149231D01*
X96840Y149198D01*
X96838Y149160D01*
X96832Y149117D01*
X96827Y149067D01*
X96818Y149015D01*
X96807Y148961D01*
X96797Y148904D01*
X96780Y148846D01*
X96761Y148786D01*
X96742Y148729D01*
X96717Y148669D01*
X96690Y148611D01*
X96687Y148609D01*
X96682Y148598D01*
X96674Y148581D01*
X96663Y148562D01*
X96646Y148538D01*
X96627Y148508D01*
X96603Y148475D01*
X96578Y148440D01*
X96548Y148404D01*
X96515Y148366D01*
X96477Y148328D01*
X96439Y148289D01*
X96398Y148254D01*
X96352Y148218D01*
X96302Y148183D01*
X96250Y148153D01*
X96248Y148150D01*
X96237Y148147D01*
X96223Y148139D01*
X96201Y148128D01*
X96174Y148117D01*
X96144Y148104D01*
X96109Y148090D01*
X96068Y148076D01*
X96024Y148063D01*
X95977Y148049D01*
X95926Y148035D01*
X95874Y148024D01*
X95759Y148005D01*
X95699Y148003D01*
X95639Y148000D01*
X95604D01*
X95579Y148003D01*
X95549Y148005D01*
X95511Y148008D01*
X95473Y148014D01*
X95426Y148022D01*
X95380Y148030D01*
X95328Y148041D01*
X95276Y148055D01*
X95221Y148071D01*
X95167Y148090D01*
X95112Y148115D01*
X95057Y148139D01*
X95003Y148169D01*
X95000Y148172D01*
X94992Y148177D01*
X94976Y148188D01*
X94956Y148202D01*
X94935Y148218D01*
X94907Y148240D01*
X94877Y148265D01*
X94845Y148292D01*
X94809Y148325D01*
X94776Y148360D01*
X94741Y148398D01*
X94705Y148440D01*
X94670Y148486D01*
X94637Y148532D01*
X94607Y148584D01*
X94577Y148639D01*
X94574Y148642D01*
X94572Y148652D01*
X94563Y148669D01*
X94555Y148691D01*
X94544Y148718D01*
X94533Y148751D01*
X94520Y148786D01*
X94506Y148830D01*
X94492Y148874D01*
X94479Y148923D01*
X94468Y148975D01*
X94457Y149029D01*
X94441Y149144D01*
X94438Y149207D01*
X94435Y149267D01*
Y149269D01*
Y149275D01*
Y149283D01*
Y149294D01*
X94438Y149310D01*
Y149327D01*
X94441Y149370D01*
X94446Y149422D01*
X94454Y149485D01*
X94462Y149551D01*
X94476Y149624D01*
X94495Y149704D01*
X94517Y149783D01*
X94544Y149864D01*
X94577Y149946D01*
X94615Y150028D01*
X94659Y150105D01*
X94711Y150181D01*
X94771Y150250D01*
X94774Y150252D01*
X94787Y150266D01*
X94806Y150282D01*
X94831Y150304D01*
X94866Y150331D01*
X94905Y150361D01*
X94951Y150394D01*
X95006Y150427D01*
X95066Y150460D01*
X95131Y150492D01*
X95202Y150522D01*
X95281Y150550D01*
X95363Y150572D01*
X95451Y150588D01*
X95543Y150602D01*
X95642Y150604D01*
X95675D01*
X95699Y150602D01*
D02*
G37*
G36*
X73250Y120102D02*
X73283Y120099D01*
X73321Y120093D01*
X73362Y120088D01*
X73409Y120080D01*
X73458Y120069D01*
X73510Y120058D01*
X73562Y120042D01*
X73616Y120022D01*
X73671Y120001D01*
X73723Y119973D01*
X73774Y119946D01*
X73824Y119911D01*
X73826Y119908D01*
X73835Y119902D01*
X73848Y119891D01*
X73865Y119875D01*
X73886Y119856D01*
X73911Y119831D01*
X73936Y119804D01*
X73966Y119771D01*
X73996Y119736D01*
X74026Y119695D01*
X74056Y119651D01*
X74083Y119602D01*
X74113Y119550D01*
X74138Y119493D01*
X74162Y119433D01*
X74184Y119370D01*
X73856Y119293D01*
Y119296D01*
X73851Y119305D01*
X73848Y119321D01*
X73840Y119340D01*
X73832Y119362D01*
X73818Y119386D01*
X73791Y119446D01*
X73755Y119512D01*
X73709Y119580D01*
X73660Y119643D01*
X73630Y119670D01*
X73600Y119695D01*
X73597Y119698D01*
X73592Y119700D01*
X73583Y119706D01*
X73570Y119714D01*
X73553Y119725D01*
X73534Y119736D01*
X73512Y119747D01*
X73485Y119758D01*
X73455Y119769D01*
X73425Y119780D01*
X73354Y119801D01*
X73272Y119815D01*
X73228Y119820D01*
X73155D01*
X73133Y119818D01*
X73108Y119815D01*
X73078Y119812D01*
X73045Y119809D01*
X73013Y119804D01*
X72934Y119785D01*
X72852Y119760D01*
X72811Y119744D01*
X72770Y119725D01*
X72732Y119703D01*
X72693Y119678D01*
X72691Y119676D01*
X72685Y119673D01*
X72674Y119665D01*
X72661Y119654D01*
X72647Y119640D01*
X72628Y119621D01*
X72609Y119602D01*
X72587Y119580D01*
X72565Y119553D01*
X72540Y119526D01*
X72497Y119463D01*
X72456Y119389D01*
X72420Y119305D01*
Y119302D01*
X72418Y119293D01*
X72412Y119280D01*
X72409Y119264D01*
X72404Y119242D01*
X72396Y119217D01*
X72390Y119187D01*
X72382Y119157D01*
X72374Y119122D01*
X72369Y119083D01*
X72355Y119001D01*
X72347Y118914D01*
X72344Y118821D01*
Y118818D01*
Y118808D01*
Y118791D01*
X72347Y118767D01*
Y118739D01*
X72349Y118707D01*
X72352Y118671D01*
X72355Y118630D01*
X72360Y118587D01*
X72366Y118543D01*
X72382Y118447D01*
X72407Y118352D01*
X72437Y118259D01*
Y118256D01*
X72442Y118248D01*
X72448Y118237D01*
X72453Y118221D01*
X72464Y118199D01*
X72478Y118177D01*
X72508Y118125D01*
X72549Y118065D01*
X72598Y118008D01*
X72658Y117950D01*
X72691Y117926D01*
X72726Y117901D01*
X72729D01*
X72734Y117896D01*
X72745Y117890D01*
X72762Y117882D01*
X72781Y117874D01*
X72803Y117863D01*
X72827Y117855D01*
X72854Y117844D01*
X72917Y117822D01*
X72991Y117803D01*
X73070Y117789D01*
X73111Y117787D01*
X73155Y117784D01*
X73182D01*
X73201Y117787D01*
X73226Y117789D01*
X73253Y117792D01*
X73286Y117798D01*
X73318Y117803D01*
X73395Y117822D01*
X73433Y117836D01*
X73474Y117852D01*
X73515Y117871D01*
X73553Y117893D01*
X73592Y117918D01*
X73630Y117945D01*
X73633Y117948D01*
X73638Y117953D01*
X73649Y117961D01*
X73663Y117975D01*
X73676Y117991D01*
X73695Y118013D01*
X73714Y118038D01*
X73736Y118065D01*
X73758Y118098D01*
X73780Y118133D01*
X73802Y118172D01*
X73824Y118215D01*
X73843Y118262D01*
X73862Y118314D01*
X73881Y118368D01*
X73895Y118425D01*
X74228Y118341D01*
Y118335D01*
X74222Y118322D01*
X74217Y118303D01*
X74206Y118272D01*
X74195Y118240D01*
X74178Y118199D01*
X74162Y118155D01*
X74140Y118109D01*
X74116Y118057D01*
X74088Y118008D01*
X74058Y117953D01*
X74023Y117901D01*
X73985Y117852D01*
X73944Y117803D01*
X73897Y117756D01*
X73848Y117713D01*
X73845Y117710D01*
X73835Y117705D01*
X73821Y117694D01*
X73799Y117680D01*
X73774Y117664D01*
X73742Y117645D01*
X73706Y117625D01*
X73663Y117606D01*
X73616Y117587D01*
X73567Y117568D01*
X73512Y117549D01*
X73452Y117533D01*
X73390Y117519D01*
X73324Y117508D01*
X73256Y117503D01*
X73182Y117500D01*
X73144D01*
X73114Y117503D01*
X73081Y117505D01*
X73040Y117508D01*
X72996Y117514D01*
X72947Y117522D01*
X72895Y117530D01*
X72841Y117541D01*
X72786Y117554D01*
X72732Y117568D01*
X72674Y117587D01*
X72620Y117609D01*
X72568Y117634D01*
X72519Y117664D01*
X72516Y117666D01*
X72508Y117672D01*
X72494Y117680D01*
X72478Y117694D01*
X72456Y117713D01*
X72431Y117732D01*
X72404Y117756D01*
X72374Y117787D01*
X72344Y117819D01*
X72311Y117855D01*
X72281Y117893D01*
X72248Y117937D01*
X72216Y117983D01*
X72186Y118032D01*
X72158Y118087D01*
X72131Y118144D01*
X72128Y118147D01*
X72126Y118158D01*
X72120Y118177D01*
X72112Y118199D01*
X72101Y118229D01*
X72090Y118262D01*
X72079Y118303D01*
X72066Y118346D01*
X72054Y118395D01*
X72041Y118447D01*
X72030Y118502D01*
X72022Y118562D01*
X72005Y118687D01*
X72003Y118753D01*
X72000Y118818D01*
Y118824D01*
Y118835D01*
Y118857D01*
X72003Y118884D01*
X72005Y118920D01*
X72008Y118960D01*
X72014Y119004D01*
X72019Y119053D01*
X72027Y119105D01*
X72035Y119160D01*
X72063Y119277D01*
X72082Y119334D01*
X72101Y119392D01*
X72123Y119452D01*
X72150Y119507D01*
X72153Y119509D01*
X72158Y119520D01*
X72167Y119534D01*
X72177Y119556D01*
X72194Y119580D01*
X72213Y119607D01*
X72235Y119638D01*
X72259Y119673D01*
X72289Y119706D01*
X72319Y119744D01*
X72355Y119780D01*
X72393Y119818D01*
X72434Y119853D01*
X72478Y119889D01*
X72527Y119921D01*
X72576Y119951D01*
X72579Y119954D01*
X72590Y119957D01*
X72603Y119965D01*
X72625Y119976D01*
X72650Y119987D01*
X72682Y120001D01*
X72718Y120014D01*
X72756Y120028D01*
X72800Y120042D01*
X72849Y120055D01*
X72898Y120069D01*
X72953Y120080D01*
X73065Y120099D01*
X73125Y120102D01*
X73188Y120104D01*
X73223D01*
X73250Y120102D01*
D02*
G37*
G36*
X77596Y117541D02*
X77253D01*
X75931Y119517D01*
Y117541D01*
X75612D01*
Y120061D01*
X75953D01*
X77277Y118081D01*
Y120061D01*
X77596D01*
Y117541D01*
D02*
G37*
G36*
X75028D02*
X74695D01*
Y120061D01*
X75028D01*
Y117541D01*
D02*
G37*
G36*
X67854Y76997D02*
X67889Y76995D01*
X67931Y76992D01*
X67974Y76986D01*
X68023Y76981D01*
X68075Y76973D01*
X68130Y76965D01*
X68247Y76937D01*
X68305Y76918D01*
X68362Y76899D01*
X68422Y76877D01*
X68476Y76850D01*
X68479Y76847D01*
X68490Y76842D01*
X68504Y76833D01*
X68526Y76823D01*
X68550Y76806D01*
X68577Y76787D01*
X68607Y76765D01*
X68643Y76741D01*
X68676Y76711D01*
X68714Y76681D01*
X68749Y76645D01*
X68788Y76607D01*
X68823Y76566D01*
X68859Y76522D01*
X68891Y76473D01*
X68922Y76424D01*
X68924Y76421D01*
X68927Y76410D01*
X68935Y76397D01*
X68946Y76375D01*
X68957Y76350D01*
X68971Y76318D01*
X68984Y76282D01*
X68998Y76244D01*
X69011Y76200D01*
X69025Y76151D01*
X69039Y76102D01*
X69050Y76047D01*
X69069Y75935D01*
X69072Y75875D01*
X69074Y75813D01*
Y75777D01*
X69072Y75750D01*
X69069Y75717D01*
X69063Y75679D01*
X69058Y75638D01*
X69050Y75591D01*
X69039Y75542D01*
X69028Y75490D01*
X69011Y75438D01*
X68992Y75384D01*
X68971Y75329D01*
X68943Y75277D01*
X68916Y75226D01*
X68880Y75176D01*
X68878Y75174D01*
X68872Y75165D01*
X68861Y75152D01*
X68845Y75135D01*
X68826Y75114D01*
X68801Y75089D01*
X68774Y75064D01*
X68741Y75034D01*
X68706Y75004D01*
X68665Y74974D01*
X68621Y74944D01*
X68572Y74917D01*
X68520Y74887D01*
X68463Y74862D01*
X68403Y74838D01*
X68340Y74816D01*
X68264Y75144D01*
X68266D01*
X68274Y75149D01*
X68291Y75152D01*
X68310Y75160D01*
X68332Y75168D01*
X68356Y75182D01*
X68416Y75209D01*
X68482Y75245D01*
X68550Y75291D01*
X68613Y75340D01*
X68640Y75370D01*
X68665Y75400D01*
X68668Y75403D01*
X68670Y75409D01*
X68676Y75417D01*
X68684Y75430D01*
X68695Y75447D01*
X68706Y75466D01*
X68717Y75488D01*
X68728Y75515D01*
X68739Y75545D01*
X68749Y75575D01*
X68771Y75646D01*
X68785Y75728D01*
X68790Y75772D01*
Y75845D01*
X68788Y75867D01*
X68785Y75892D01*
X68782Y75922D01*
X68779Y75955D01*
X68774Y75987D01*
X68755Y76066D01*
X68730Y76148D01*
X68714Y76189D01*
X68695Y76230D01*
X68673Y76268D01*
X68648Y76307D01*
X68646Y76309D01*
X68643Y76315D01*
X68635Y76326D01*
X68624Y76339D01*
X68610Y76353D01*
X68591Y76372D01*
X68572Y76391D01*
X68550Y76413D01*
X68523Y76435D01*
X68496Y76459D01*
X68433Y76503D01*
X68359Y76544D01*
X68274Y76580D01*
X68272D01*
X68264Y76582D01*
X68250Y76588D01*
X68234Y76591D01*
X68212Y76596D01*
X68187Y76604D01*
X68157Y76610D01*
X68127Y76618D01*
X68091Y76626D01*
X68053Y76631D01*
X67971Y76645D01*
X67884Y76653D01*
X67791Y76656D01*
X67788D01*
X67778D01*
X67761D01*
X67737Y76653D01*
X67709D01*
X67677Y76651D01*
X67641Y76648D01*
X67600Y76645D01*
X67556Y76640D01*
X67513Y76634D01*
X67417Y76618D01*
X67322Y76593D01*
X67229Y76563D01*
X67226D01*
X67218Y76558D01*
X67207Y76552D01*
X67191Y76547D01*
X67169Y76536D01*
X67147Y76522D01*
X67095Y76492D01*
X67035Y76451D01*
X66978Y76402D01*
X66920Y76342D01*
X66896Y76309D01*
X66871Y76274D01*
Y76271D01*
X66866Y76266D01*
X66860Y76255D01*
X66852Y76238D01*
X66844Y76219D01*
X66833Y76197D01*
X66825Y76173D01*
X66814Y76146D01*
X66792Y76083D01*
X66773Y76009D01*
X66759Y75930D01*
X66757Y75889D01*
X66754Y75845D01*
Y75818D01*
X66757Y75799D01*
X66759Y75774D01*
X66762Y75747D01*
X66768Y75714D01*
X66773Y75682D01*
X66792Y75605D01*
X66806Y75567D01*
X66822Y75526D01*
X66841Y75485D01*
X66863Y75447D01*
X66888Y75409D01*
X66915Y75370D01*
X66918Y75367D01*
X66923Y75362D01*
X66931Y75351D01*
X66945Y75337D01*
X66961Y75324D01*
X66983Y75305D01*
X67008Y75286D01*
X67035Y75264D01*
X67068Y75242D01*
X67103Y75220D01*
X67141Y75198D01*
X67185Y75176D01*
X67232Y75157D01*
X67283Y75138D01*
X67338Y75119D01*
X67395Y75105D01*
X67311Y74772D01*
X67305D01*
X67292Y74778D01*
X67273Y74783D01*
X67242Y74794D01*
X67210Y74805D01*
X67169Y74822D01*
X67125Y74838D01*
X67079Y74860D01*
X67027Y74884D01*
X66978Y74912D01*
X66923Y74942D01*
X66871Y74977D01*
X66822Y75015D01*
X66773Y75056D01*
X66726Y75103D01*
X66683Y75152D01*
X66680Y75155D01*
X66675Y75165D01*
X66664Y75179D01*
X66650Y75201D01*
X66634Y75226D01*
X66615Y75258D01*
X66596Y75294D01*
X66576Y75337D01*
X66557Y75384D01*
X66538Y75433D01*
X66519Y75488D01*
X66503Y75548D01*
X66489Y75611D01*
X66478Y75676D01*
X66473Y75744D01*
X66470Y75818D01*
Y75856D01*
X66473Y75886D01*
X66475Y75919D01*
X66478Y75960D01*
X66484Y76004D01*
X66492Y76053D01*
X66500Y76105D01*
X66511Y76159D01*
X66524Y76214D01*
X66538Y76268D01*
X66557Y76326D01*
X66579Y76380D01*
X66604Y76432D01*
X66634Y76481D01*
X66636Y76484D01*
X66642Y76492D01*
X66650Y76506D01*
X66664Y76522D01*
X66683Y76544D01*
X66702Y76569D01*
X66726Y76596D01*
X66757Y76626D01*
X66789Y76656D01*
X66825Y76689D01*
X66863Y76719D01*
X66907Y76752D01*
X66953Y76784D01*
X67002Y76814D01*
X67057Y76842D01*
X67114Y76869D01*
X67117Y76872D01*
X67128Y76875D01*
X67147Y76880D01*
X67169Y76888D01*
X67199Y76899D01*
X67232Y76910D01*
X67273Y76921D01*
X67316Y76934D01*
X67365Y76946D01*
X67417Y76959D01*
X67472Y76970D01*
X67532Y76978D01*
X67658Y76995D01*
X67723Y76997D01*
X67788Y77000D01*
X67794D01*
X67805D01*
X67827D01*
X67854Y76997D01*
D02*
G37*
G36*
X66036Y72637D02*
X65812D01*
Y74688D01*
X66036D01*
Y72637D01*
D02*
G37*
G36*
X69031Y71917D02*
X67245Y71319D01*
X67242D01*
X67234Y71316D01*
X67221Y71311D01*
X67204Y71305D01*
X67185Y71300D01*
X67161Y71292D01*
X67106Y71272D01*
X67046Y71253D01*
X66983Y71234D01*
X66926Y71215D01*
X66899Y71207D01*
X66874Y71199D01*
X66877D01*
X66879Y71196D01*
X66888Y71193D01*
X66899Y71191D01*
X66915Y71185D01*
X66931Y71180D01*
X66953Y71174D01*
X66975Y71166D01*
X67002Y71158D01*
X67032Y71147D01*
X67065Y71136D01*
X67103Y71125D01*
X67141Y71111D01*
X67185Y71098D01*
X67229Y71081D01*
X67278Y71065D01*
X69031Y70459D01*
Y70008D01*
X66511D01*
Y70331D01*
X68621D01*
X66511Y71068D01*
Y71368D01*
X68657Y72094D01*
X66511D01*
Y72416D01*
X69031D01*
Y71917D01*
D02*
G37*
G36*
Y68783D02*
Y68422D01*
X66511Y67390D01*
Y67770D01*
X67273Y68062D01*
Y69121D01*
X66511Y69394D01*
Y69746D01*
X69031Y68783D01*
D02*
G37*
G36*
Y66735D02*
X66511D01*
Y67068D01*
X69031D01*
Y66735D01*
D02*
G37*
G36*
Y65810D02*
X67051Y64486D01*
X69031D01*
Y64166D01*
X66511D01*
Y64510D01*
X68487Y65832D01*
X66511D01*
Y66151D01*
X69031D01*
Y65810D01*
D02*
G37*
G36*
X66579Y63771D02*
X66612Y63768D01*
X66647Y63760D01*
X66686Y63751D01*
X66724Y63738D01*
X66726D01*
X66732Y63735D01*
X66740Y63732D01*
X66754Y63727D01*
X66768Y63719D01*
X66787Y63710D01*
X66830Y63689D01*
X66882Y63661D01*
X66940Y63626D01*
X67000Y63585D01*
X67060Y63536D01*
X67062Y63533D01*
X67068Y63530D01*
X67076Y63522D01*
X67090Y63508D01*
X67103Y63495D01*
X67122Y63476D01*
X67144Y63456D01*
X67169Y63432D01*
X67196Y63405D01*
X67223Y63375D01*
X67256Y63342D01*
X67289Y63304D01*
X67324Y63265D01*
X67360Y63222D01*
X67398Y63178D01*
X67439Y63129D01*
X67442Y63124D01*
X67455Y63110D01*
X67472Y63091D01*
X67496Y63063D01*
X67524Y63031D01*
X67556Y62992D01*
X67592Y62949D01*
X67633Y62905D01*
X67717Y62812D01*
X67808Y62722D01*
X67851Y62678D01*
X67895Y62638D01*
X67936Y62602D01*
X67974Y62572D01*
X67977Y62569D01*
X67982Y62567D01*
X67993Y62558D01*
X68007Y62550D01*
X68026Y62537D01*
X68045Y62526D01*
X68094Y62498D01*
X68152Y62471D01*
X68214Y62446D01*
X68280Y62430D01*
X68313Y62427D01*
X68345Y62425D01*
X68348D01*
X68354D01*
X68365D01*
X68375Y62427D01*
X68392D01*
X68411Y62433D01*
X68452Y62441D01*
X68501Y62457D01*
X68553Y62482D01*
X68580Y62496D01*
X68605Y62515D01*
X68629Y62534D01*
X68654Y62558D01*
X68657Y62561D01*
X68659Y62564D01*
X68665Y62572D01*
X68673Y62583D01*
X68684Y62597D01*
X68695Y62613D01*
X68719Y62651D01*
X68741Y62703D01*
X68763Y62760D01*
X68777Y62829D01*
X68782Y62867D01*
Y62927D01*
X68779Y62943D01*
Y62962D01*
X68774Y62984D01*
X68766Y63033D01*
X68749Y63091D01*
X68725Y63151D01*
X68708Y63181D01*
X68692Y63211D01*
X68670Y63238D01*
X68646Y63265D01*
X68643Y63268D01*
X68640Y63271D01*
X68632Y63276D01*
X68621Y63287D01*
X68607Y63296D01*
X68591Y63306D01*
X68572Y63320D01*
X68550Y63331D01*
X68526Y63345D01*
X68498Y63355D01*
X68433Y63377D01*
X68362Y63394D01*
X68321Y63397D01*
X68277Y63399D01*
X68310Y63716D01*
X68315D01*
X68326Y63713D01*
X68343Y63710D01*
X68367Y63708D01*
X68397Y63702D01*
X68433Y63694D01*
X68471Y63686D01*
X68512Y63672D01*
X68553Y63658D01*
X68599Y63642D01*
X68643Y63620D01*
X68687Y63599D01*
X68733Y63571D01*
X68774Y63541D01*
X68815Y63508D01*
X68850Y63470D01*
X68853Y63467D01*
X68859Y63459D01*
X68867Y63448D01*
X68880Y63432D01*
X68894Y63410D01*
X68910Y63383D01*
X68927Y63353D01*
X68946Y63317D01*
X68962Y63279D01*
X68979Y63235D01*
X68995Y63189D01*
X69009Y63137D01*
X69023Y63082D01*
X69031Y63025D01*
X69036Y62962D01*
X69039Y62897D01*
Y62861D01*
X69036Y62837D01*
X69033Y62807D01*
X69028Y62771D01*
X69023Y62730D01*
X69014Y62689D01*
X69003Y62643D01*
X68990Y62597D01*
X68973Y62547D01*
X68954Y62501D01*
X68930Y62452D01*
X68902Y62406D01*
X68872Y62362D01*
X68837Y62321D01*
X68834Y62318D01*
X68829Y62313D01*
X68815Y62302D01*
X68801Y62288D01*
X68782Y62272D01*
X68758Y62253D01*
X68730Y62234D01*
X68698Y62214D01*
X68665Y62195D01*
X68627Y62176D01*
X68586Y62157D01*
X68542Y62141D01*
X68493Y62127D01*
X68444Y62116D01*
X68392Y62111D01*
X68337Y62108D01*
X68335D01*
X68332D01*
X68324D01*
X68313D01*
X68283Y62111D01*
X68244Y62116D01*
X68198Y62124D01*
X68149Y62135D01*
X68094Y62149D01*
X68040Y62171D01*
X68037D01*
X68034Y62173D01*
X68026Y62176D01*
X68015Y62182D01*
X67985Y62198D01*
X67947Y62220D01*
X67900Y62250D01*
X67849Y62285D01*
X67794Y62326D01*
X67734Y62378D01*
X67731Y62381D01*
X67726Y62384D01*
X67717Y62395D01*
X67704Y62406D01*
X67687Y62422D01*
X67668Y62441D01*
X67644Y62463D01*
X67619Y62490D01*
X67589Y62523D01*
X67556Y62558D01*
X67518Y62597D01*
X67480Y62640D01*
X67436Y62687D01*
X67393Y62739D01*
X67343Y62796D01*
X67292Y62856D01*
X67289Y62859D01*
X67281Y62867D01*
X67270Y62883D01*
X67253Y62900D01*
X67234Y62924D01*
X67212Y62949D01*
X67163Y63006D01*
X67111Y63066D01*
X67057Y63124D01*
X67032Y63151D01*
X67010Y63175D01*
X66989Y63197D01*
X66972Y63213D01*
X66970Y63216D01*
X66959Y63227D01*
X66942Y63241D01*
X66920Y63260D01*
X66896Y63282D01*
X66869Y63304D01*
X66808Y63347D01*
Y62105D01*
X66511D01*
Y63773D01*
X66516D01*
X66530D01*
X66552D01*
X66579Y63771D01*
D02*
G37*
G36*
X64192Y111436D02*
X64222Y111433D01*
X64255Y111428D01*
X64293Y111422D01*
X64337Y111414D01*
X64380Y111403D01*
X64429Y111389D01*
X64479Y111373D01*
X64528Y111354D01*
X64577Y111332D01*
X64629Y111305D01*
X64678Y111275D01*
X64724Y111239D01*
X64727Y111237D01*
X64738Y111228D01*
X64752Y111215D01*
X64771Y111196D01*
X64795Y111171D01*
X64820Y111141D01*
X64850Y111105D01*
X64877Y111065D01*
X64904Y111021D01*
X64934Y110972D01*
X64959Y110917D01*
X64981Y110857D01*
X65003Y110794D01*
X65016Y110726D01*
X65027Y110655D01*
X65030Y110579D01*
Y110546D01*
X65027Y110521D01*
X65025Y110491D01*
X65019Y110458D01*
X65014Y110420D01*
X65005Y110379D01*
X64997Y110336D01*
X64984Y110289D01*
X64967Y110243D01*
X64948Y110196D01*
X64926Y110150D01*
X64902Y110103D01*
X64872Y110060D01*
X64839Y110016D01*
X64836Y110013D01*
X64831Y110008D01*
X64820Y109997D01*
X64803Y109983D01*
X64784Y109964D01*
X64763Y109945D01*
X64735Y109926D01*
X64702Y109904D01*
X64670Y109882D01*
X64631Y109861D01*
X64588Y109842D01*
X64544Y109822D01*
X64495Y109803D01*
X64443Y109790D01*
X64386Y109779D01*
X64328Y109771D01*
X64304Y110095D01*
X64307D01*
X64315Y110098D01*
X64326Y110101D01*
X64342Y110103D01*
X64361Y110106D01*
X64386Y110115D01*
X64438Y110128D01*
X64495Y110150D01*
X64555Y110180D01*
X64610Y110215D01*
X64634Y110237D01*
X64659Y110259D01*
Y110262D01*
X64664Y110265D01*
X64670Y110273D01*
X64678Y110284D01*
X64697Y110311D01*
X64716Y110349D01*
X64738Y110396D01*
X64757Y110450D01*
X64771Y110510D01*
X64773Y110543D01*
X64776Y110579D01*
Y110600D01*
X64773Y110617D01*
X64771Y110636D01*
X64768Y110658D01*
X64754Y110710D01*
X64735Y110770D01*
X64722Y110800D01*
X64705Y110832D01*
X64686Y110865D01*
X64664Y110895D01*
X64640Y110925D01*
X64610Y110955D01*
X64607Y110958D01*
X64601Y110961D01*
X64593Y110969D01*
X64580Y110980D01*
X64561Y110991D01*
X64541Y111004D01*
X64517Y111018D01*
X64490Y111035D01*
X64460Y111048D01*
X64427Y111062D01*
X64389Y111075D01*
X64350Y111086D01*
X64307Y111097D01*
X64260Y111105D01*
X64214Y111108D01*
X64162Y111111D01*
X64159D01*
X64151D01*
X64137D01*
X64118Y111108D01*
X64096Y111105D01*
X64069Y111103D01*
X64042Y111097D01*
X64009Y111092D01*
X63944Y111075D01*
X63873Y111048D01*
X63840Y111032D01*
X63807Y111010D01*
X63774Y110988D01*
X63744Y110961D01*
X63741Y110958D01*
X63739Y110955D01*
X63731Y110944D01*
X63720Y110933D01*
X63709Y110920D01*
X63695Y110901D01*
X63682Y110882D01*
X63665Y110857D01*
X63651Y110830D01*
X63638Y110802D01*
X63613Y110734D01*
X63602Y110699D01*
X63594Y110658D01*
X63591Y110617D01*
X63589Y110573D01*
Y110548D01*
X63591Y110519D01*
X63597Y110483D01*
X63605Y110439D01*
X63619Y110393D01*
X63635Y110346D01*
X63660Y110300D01*
X63662Y110295D01*
X63671Y110281D01*
X63687Y110259D01*
X63706Y110232D01*
X63733Y110205D01*
X63763Y110172D01*
X63799Y110142D01*
X63837Y110115D01*
X63796Y109825D01*
X62502Y110068D01*
Y111321D01*
X62797D01*
Y110314D01*
X63474Y110180D01*
X63471Y110183D01*
X63466Y110191D01*
X63460Y110202D01*
X63449Y110218D01*
X63438Y110240D01*
X63425Y110265D01*
X63408Y110292D01*
X63395Y110325D01*
X63381Y110357D01*
X63365Y110396D01*
X63340Y110475D01*
X63329Y110519D01*
X63321Y110562D01*
X63318Y110609D01*
X63316Y110655D01*
Y110669D01*
X63318Y110688D01*
Y110710D01*
X63324Y110737D01*
X63327Y110770D01*
X63335Y110808D01*
X63343Y110846D01*
X63357Y110890D01*
X63370Y110933D01*
X63389Y110980D01*
X63411Y111026D01*
X63438Y111073D01*
X63468Y111119D01*
X63504Y111165D01*
X63545Y111209D01*
X63548Y111212D01*
X63556Y111220D01*
X63569Y111231D01*
X63586Y111245D01*
X63608Y111264D01*
X63638Y111283D01*
X63668Y111302D01*
X63703Y111324D01*
X63744Y111346D01*
X63791Y111365D01*
X63837Y111387D01*
X63892Y111403D01*
X63946Y111417D01*
X64006Y111428D01*
X64069Y111436D01*
X64135Y111439D01*
X64137D01*
X64151D01*
X64167D01*
X64192Y111436D01*
D02*
G37*
G36*
X64989Y108990D02*
X63013Y107668D01*
X64989D01*
Y107349D01*
X62469D01*
Y107690D01*
X64449Y109014D01*
X62469D01*
Y109334D01*
X64989D01*
Y108990D01*
D02*
G37*
G36*
Y106432D02*
X62469D01*
Y106765D01*
X64989D01*
Y106432D01*
D02*
G37*
G36*
Y105730D02*
X64227Y105438D01*
Y104379D01*
X64989Y104106D01*
Y103754D01*
X62469Y104717D01*
Y105078D01*
X64989Y106109D01*
Y105730D01*
D02*
G37*
G36*
Y103169D02*
X62879D01*
X64989Y102432D01*
Y102132D01*
X62843Y101406D01*
X64989D01*
Y101084D01*
X62469D01*
Y101583D01*
X64255Y102181D01*
X64258D01*
X64266Y102184D01*
X64279Y102189D01*
X64296Y102195D01*
X64315Y102200D01*
X64339Y102208D01*
X64394Y102227D01*
X64454Y102247D01*
X64517Y102266D01*
X64574Y102285D01*
X64601Y102293D01*
X64626Y102301D01*
X64623D01*
X64621Y102304D01*
X64612Y102307D01*
X64601Y102309D01*
X64585Y102315D01*
X64569Y102320D01*
X64547Y102326D01*
X64525Y102334D01*
X64498Y102342D01*
X64468Y102353D01*
X64435Y102364D01*
X64397Y102375D01*
X64359Y102389D01*
X64315Y102402D01*
X64271Y102419D01*
X64222Y102435D01*
X62469Y103041D01*
Y103491D01*
X64989D01*
Y103169D01*
D02*
G37*
G36*
X65688Y98812D02*
X65464D01*
Y100863D01*
X65688D01*
Y98812D01*
D02*
G37*
G36*
X64208Y98722D02*
X64227Y98717D01*
X64258Y98706D01*
X64290Y98695D01*
X64331Y98678D01*
X64375Y98662D01*
X64421Y98640D01*
X64473Y98616D01*
X64522Y98588D01*
X64577Y98558D01*
X64629Y98523D01*
X64678Y98485D01*
X64727Y98444D01*
X64773Y98397D01*
X64817Y98348D01*
X64820Y98345D01*
X64825Y98334D01*
X64836Y98321D01*
X64850Y98299D01*
X64866Y98274D01*
X64885Y98242D01*
X64904Y98206D01*
X64924Y98163D01*
X64943Y98116D01*
X64962Y98067D01*
X64981Y98012D01*
X64997Y97952D01*
X65011Y97890D01*
X65022Y97824D01*
X65027Y97756D01*
X65030Y97682D01*
Y97644D01*
X65027Y97614D01*
X65025Y97581D01*
X65022Y97540D01*
X65016Y97496D01*
X65008Y97447D01*
X65000Y97395D01*
X64989Y97341D01*
X64976Y97286D01*
X64962Y97232D01*
X64943Y97174D01*
X64921Y97120D01*
X64896Y97068D01*
X64866Y97019D01*
X64864Y97016D01*
X64858Y97008D01*
X64850Y96994D01*
X64836Y96978D01*
X64817Y96956D01*
X64798Y96931D01*
X64773Y96904D01*
X64743Y96874D01*
X64711Y96844D01*
X64675Y96811D01*
X64637Y96781D01*
X64593Y96748D01*
X64547Y96716D01*
X64498Y96686D01*
X64443Y96658D01*
X64386Y96631D01*
X64383Y96628D01*
X64372Y96626D01*
X64353Y96620D01*
X64331Y96612D01*
X64301Y96601D01*
X64268Y96590D01*
X64227Y96579D01*
X64184Y96566D01*
X64135Y96554D01*
X64083Y96541D01*
X64028Y96530D01*
X63968Y96522D01*
X63842Y96505D01*
X63777Y96503D01*
X63712Y96500D01*
X63706D01*
X63695D01*
X63673D01*
X63646Y96503D01*
X63611Y96505D01*
X63569Y96508D01*
X63526Y96514D01*
X63477Y96519D01*
X63425Y96527D01*
X63370Y96535D01*
X63253Y96563D01*
X63196Y96582D01*
X63138Y96601D01*
X63078Y96623D01*
X63024Y96650D01*
X63021Y96653D01*
X63010Y96658D01*
X62996Y96667D01*
X62974Y96677D01*
X62950Y96694D01*
X62923Y96713D01*
X62893Y96735D01*
X62857Y96759D01*
X62824Y96789D01*
X62786Y96819D01*
X62751Y96855D01*
X62712Y96893D01*
X62677Y96934D01*
X62641Y96978D01*
X62609Y97027D01*
X62578Y97076D01*
X62576Y97079D01*
X62573Y97090D01*
X62565Y97103D01*
X62554Y97125D01*
X62543Y97150D01*
X62529Y97182D01*
X62516Y97218D01*
X62502Y97256D01*
X62489Y97300D01*
X62475Y97349D01*
X62461Y97398D01*
X62450Y97453D01*
X62431Y97565D01*
X62428Y97625D01*
X62426Y97688D01*
Y97723D01*
X62428Y97750D01*
X62431Y97783D01*
X62437Y97821D01*
X62442Y97862D01*
X62450Y97909D01*
X62461Y97958D01*
X62472Y98010D01*
X62489Y98062D01*
X62508Y98116D01*
X62529Y98171D01*
X62557Y98223D01*
X62584Y98274D01*
X62620Y98324D01*
X62622Y98326D01*
X62628Y98334D01*
X62639Y98348D01*
X62655Y98365D01*
X62674Y98386D01*
X62699Y98411D01*
X62726Y98435D01*
X62759Y98466D01*
X62794Y98496D01*
X62835Y98526D01*
X62879Y98556D01*
X62928Y98583D01*
X62980Y98613D01*
X63037Y98637D01*
X63097Y98662D01*
X63160Y98684D01*
X63236Y98356D01*
X63234D01*
X63226Y98351D01*
X63209Y98348D01*
X63190Y98340D01*
X63168Y98332D01*
X63144Y98318D01*
X63084Y98291D01*
X63018Y98255D01*
X62950Y98209D01*
X62887Y98160D01*
X62860Y98130D01*
X62835Y98100D01*
X62832Y98097D01*
X62830Y98092D01*
X62824Y98083D01*
X62816Y98070D01*
X62805Y98053D01*
X62794Y98034D01*
X62783Y98012D01*
X62772Y97985D01*
X62761Y97955D01*
X62751Y97925D01*
X62729Y97854D01*
X62715Y97772D01*
X62710Y97728D01*
Y97655D01*
X62712Y97633D01*
X62715Y97608D01*
X62718Y97578D01*
X62721Y97545D01*
X62726Y97513D01*
X62745Y97434D01*
X62770Y97352D01*
X62786Y97311D01*
X62805Y97270D01*
X62827Y97232D01*
X62852Y97193D01*
X62854Y97191D01*
X62857Y97185D01*
X62865Y97174D01*
X62876Y97161D01*
X62890Y97147D01*
X62909Y97128D01*
X62928Y97109D01*
X62950Y97087D01*
X62977Y97065D01*
X63004Y97040D01*
X63067Y96997D01*
X63141Y96956D01*
X63226Y96920D01*
X63228D01*
X63236Y96918D01*
X63250Y96912D01*
X63266Y96909D01*
X63288Y96904D01*
X63313Y96896D01*
X63343Y96890D01*
X63373Y96882D01*
X63408Y96874D01*
X63447Y96868D01*
X63529Y96855D01*
X63616Y96847D01*
X63709Y96844D01*
X63712D01*
X63722D01*
X63739D01*
X63763Y96847D01*
X63791D01*
X63823Y96849D01*
X63859Y96852D01*
X63900Y96855D01*
X63944Y96860D01*
X63987Y96866D01*
X64083Y96882D01*
X64178Y96907D01*
X64271Y96937D01*
X64274D01*
X64282Y96942D01*
X64293Y96948D01*
X64309Y96953D01*
X64331Y96964D01*
X64353Y96978D01*
X64405Y97008D01*
X64465Y97049D01*
X64522Y97098D01*
X64580Y97158D01*
X64604Y97191D01*
X64629Y97226D01*
Y97229D01*
X64634Y97234D01*
X64640Y97245D01*
X64648Y97262D01*
X64656Y97281D01*
X64667Y97303D01*
X64675Y97327D01*
X64686Y97354D01*
X64708Y97417D01*
X64727Y97491D01*
X64741Y97570D01*
X64743Y97611D01*
X64746Y97655D01*
Y97682D01*
X64743Y97701D01*
X64741Y97726D01*
X64738Y97753D01*
X64732Y97786D01*
X64727Y97818D01*
X64708Y97895D01*
X64694Y97933D01*
X64678Y97974D01*
X64659Y98015D01*
X64637Y98053D01*
X64612Y98092D01*
X64585Y98130D01*
X64582Y98132D01*
X64577Y98138D01*
X64569Y98149D01*
X64555Y98163D01*
X64539Y98176D01*
X64517Y98195D01*
X64492Y98214D01*
X64465Y98236D01*
X64432Y98258D01*
X64397Y98280D01*
X64359Y98302D01*
X64315Y98324D01*
X64268Y98343D01*
X64217Y98362D01*
X64162Y98381D01*
X64105Y98395D01*
X64189Y98728D01*
X64195D01*
X64208Y98722D01*
D02*
G37*
G36*
X77198Y111070D02*
X77801D01*
Y110761D01*
X77198D01*
Y109664D01*
X76914D01*
X75281Y110816D01*
Y111070D01*
X76914D01*
Y111411D01*
X77198D01*
Y111070D01*
D02*
G37*
G36*
X77801Y108990D02*
X75825Y107668D01*
X77801D01*
Y107349D01*
X75281D01*
Y107690D01*
X77261Y109014D01*
X75281D01*
Y109334D01*
X77801D01*
Y108990D01*
D02*
G37*
G36*
Y106432D02*
X75281D01*
Y106765D01*
X77801D01*
Y106432D01*
D02*
G37*
G36*
Y105730D02*
X77039Y105438D01*
Y104379D01*
X77801Y104106D01*
Y103754D01*
X75281Y104717D01*
Y105078D01*
X77801Y106109D01*
Y105730D01*
D02*
G37*
G36*
Y103169D02*
X75691D01*
X77801Y102432D01*
Y102132D01*
X75655Y101406D01*
X77801D01*
Y101084D01*
X75281D01*
Y101583D01*
X77067Y102181D01*
X77069D01*
X77078Y102184D01*
X77091Y102189D01*
X77108Y102195D01*
X77127Y102200D01*
X77151Y102208D01*
X77206Y102227D01*
X77266Y102247D01*
X77329Y102266D01*
X77386Y102285D01*
X77413Y102293D01*
X77438Y102301D01*
X77435D01*
X77433Y102304D01*
X77424Y102307D01*
X77413Y102309D01*
X77397Y102315D01*
X77381Y102320D01*
X77359Y102326D01*
X77337Y102334D01*
X77310Y102342D01*
X77280Y102353D01*
X77247Y102364D01*
X77209Y102375D01*
X77170Y102389D01*
X77127Y102402D01*
X77083Y102419D01*
X77034Y102435D01*
X75281Y103041D01*
Y103491D01*
X77801D01*
Y103169D01*
D02*
G37*
G36*
X78500Y98812D02*
X78276D01*
Y100863D01*
X78500D01*
Y98812D01*
D02*
G37*
G36*
X77020Y98722D02*
X77039Y98717D01*
X77069Y98706D01*
X77102Y98695D01*
X77143Y98678D01*
X77187Y98662D01*
X77233Y98640D01*
X77285Y98616D01*
X77334Y98588D01*
X77389Y98558D01*
X77441Y98523D01*
X77490Y98485D01*
X77539Y98444D01*
X77586Y98397D01*
X77629Y98348D01*
X77632Y98345D01*
X77637Y98334D01*
X77648Y98321D01*
X77662Y98299D01*
X77678Y98274D01*
X77697Y98242D01*
X77716Y98206D01*
X77736Y98163D01*
X77755Y98116D01*
X77774Y98067D01*
X77793Y98012D01*
X77809Y97952D01*
X77823Y97890D01*
X77834Y97824D01*
X77839Y97756D01*
X77842Y97682D01*
Y97644D01*
X77839Y97614D01*
X77837Y97581D01*
X77834Y97540D01*
X77829Y97496D01*
X77820Y97447D01*
X77812Y97395D01*
X77801Y97341D01*
X77788Y97286D01*
X77774Y97232D01*
X77755Y97174D01*
X77733Y97120D01*
X77708Y97068D01*
X77678Y97019D01*
X77676Y97016D01*
X77670Y97008D01*
X77662Y96994D01*
X77648Y96978D01*
X77629Y96956D01*
X77610Y96931D01*
X77586Y96904D01*
X77556Y96874D01*
X77523Y96844D01*
X77487Y96811D01*
X77449Y96781D01*
X77405Y96748D01*
X77359Y96716D01*
X77310Y96686D01*
X77255Y96658D01*
X77198Y96631D01*
X77195Y96628D01*
X77184Y96626D01*
X77165Y96620D01*
X77143Y96612D01*
X77113Y96601D01*
X77080Y96590D01*
X77039Y96579D01*
X76996Y96566D01*
X76947Y96554D01*
X76895Y96541D01*
X76840Y96530D01*
X76780Y96522D01*
X76655Y96505D01*
X76589Y96503D01*
X76524Y96500D01*
X76518D01*
X76507D01*
X76485D01*
X76458Y96503D01*
X76423Y96505D01*
X76382Y96508D01*
X76338Y96514D01*
X76289Y96519D01*
X76237Y96527D01*
X76182Y96535D01*
X76065Y96563D01*
X76008Y96582D01*
X75950Y96601D01*
X75890Y96623D01*
X75836Y96650D01*
X75833Y96653D01*
X75822Y96658D01*
X75808Y96667D01*
X75786Y96677D01*
X75762Y96694D01*
X75735Y96713D01*
X75704Y96735D01*
X75669Y96759D01*
X75636Y96789D01*
X75598Y96819D01*
X75563Y96855D01*
X75524Y96893D01*
X75489Y96934D01*
X75453Y96978D01*
X75421Y97027D01*
X75391Y97076D01*
X75388Y97079D01*
X75385Y97090D01*
X75377Y97103D01*
X75366Y97125D01*
X75355Y97150D01*
X75341Y97182D01*
X75328Y97218D01*
X75314Y97256D01*
X75301Y97300D01*
X75287Y97349D01*
X75273Y97398D01*
X75262Y97453D01*
X75243Y97565D01*
X75240Y97625D01*
X75238Y97688D01*
Y97723D01*
X75240Y97750D01*
X75243Y97783D01*
X75249Y97821D01*
X75254Y97862D01*
X75262Y97909D01*
X75273Y97958D01*
X75284Y98010D01*
X75301Y98062D01*
X75320Y98116D01*
X75341Y98171D01*
X75369Y98223D01*
X75396Y98274D01*
X75432Y98324D01*
X75434Y98326D01*
X75440Y98334D01*
X75451Y98348D01*
X75467Y98365D01*
X75486Y98386D01*
X75511Y98411D01*
X75538Y98435D01*
X75571Y98466D01*
X75606Y98496D01*
X75647Y98526D01*
X75691Y98556D01*
X75740Y98583D01*
X75792Y98613D01*
X75849Y98637D01*
X75909Y98662D01*
X75972Y98684D01*
X76048Y98356D01*
X76046D01*
X76038Y98351D01*
X76021Y98348D01*
X76002Y98340D01*
X75980Y98332D01*
X75956Y98318D01*
X75896Y98291D01*
X75830Y98255D01*
X75762Y98209D01*
X75699Y98160D01*
X75672Y98130D01*
X75647Y98100D01*
X75644Y98097D01*
X75642Y98092D01*
X75636Y98083D01*
X75628Y98070D01*
X75617Y98053D01*
X75606Y98034D01*
X75595Y98012D01*
X75584Y97985D01*
X75573Y97955D01*
X75563Y97925D01*
X75541Y97854D01*
X75527Y97772D01*
X75522Y97728D01*
Y97655D01*
X75524Y97633D01*
X75527Y97608D01*
X75530Y97578D01*
X75533Y97545D01*
X75538Y97513D01*
X75557Y97434D01*
X75582Y97352D01*
X75598Y97311D01*
X75617Y97270D01*
X75639Y97232D01*
X75664Y97193D01*
X75666Y97191D01*
X75669Y97185D01*
X75677Y97174D01*
X75688Y97161D01*
X75702Y97147D01*
X75721Y97128D01*
X75740Y97109D01*
X75762Y97087D01*
X75789Y97065D01*
X75816Y97040D01*
X75879Y96997D01*
X75953Y96956D01*
X76038Y96920D01*
X76040D01*
X76048Y96918D01*
X76062Y96912D01*
X76078Y96909D01*
X76100Y96904D01*
X76125Y96896D01*
X76155Y96890D01*
X76185Y96882D01*
X76221Y96874D01*
X76259Y96868D01*
X76341Y96855D01*
X76428Y96847D01*
X76521Y96844D01*
X76524D01*
X76534D01*
X76551D01*
X76575Y96847D01*
X76603D01*
X76635Y96849D01*
X76671Y96852D01*
X76712Y96855D01*
X76756Y96860D01*
X76799Y96866D01*
X76895Y96882D01*
X76990Y96907D01*
X77083Y96937D01*
X77086D01*
X77094Y96942D01*
X77105Y96948D01*
X77121Y96953D01*
X77143Y96964D01*
X77165Y96978D01*
X77217Y97008D01*
X77277Y97049D01*
X77334Y97098D01*
X77392Y97158D01*
X77416Y97191D01*
X77441Y97226D01*
Y97229D01*
X77446Y97234D01*
X77452Y97245D01*
X77460Y97262D01*
X77468Y97281D01*
X77479Y97303D01*
X77487Y97327D01*
X77498Y97354D01*
X77520Y97417D01*
X77539Y97491D01*
X77553Y97570D01*
X77556Y97611D01*
X77558Y97655D01*
Y97682D01*
X77556Y97701D01*
X77553Y97726D01*
X77550Y97753D01*
X77544Y97786D01*
X77539Y97818D01*
X77520Y97895D01*
X77506Y97933D01*
X77490Y97974D01*
X77471Y98015D01*
X77449Y98053D01*
X77424Y98092D01*
X77397Y98130D01*
X77394Y98132D01*
X77389Y98138D01*
X77381Y98149D01*
X77367Y98163D01*
X77351Y98176D01*
X77329Y98195D01*
X77304Y98214D01*
X77277Y98236D01*
X77244Y98258D01*
X77209Y98280D01*
X77170Y98302D01*
X77127Y98324D01*
X77080Y98343D01*
X77029Y98362D01*
X76974Y98381D01*
X76917Y98395D01*
X77001Y98728D01*
X77007D01*
X77020Y98722D01*
D02*
G37*
G36*
X84209Y149540D02*
X85312Y148041D01*
X84869D01*
X83974Y149313D01*
X83562Y148915D01*
Y148041D01*
X83228D01*
Y150561D01*
X83562D01*
Y149313D01*
X84812Y150561D01*
X85265D01*
X84209Y149540D01*
D02*
G37*
G36*
X86630Y148041D02*
X86322D01*
Y150009D01*
X86316Y150004D01*
X86303Y149990D01*
X86278Y149971D01*
X86242Y149944D01*
X86202Y149911D01*
X86150Y149875D01*
X86092Y149837D01*
X86027Y149796D01*
X86024D01*
X86019Y149791D01*
X86010Y149785D01*
X85997Y149780D01*
X85980Y149769D01*
X85961Y149761D01*
X85918Y149736D01*
X85868Y149712D01*
X85814Y149684D01*
X85756Y149660D01*
X85702Y149638D01*
Y149935D01*
X85705Y149938D01*
X85713Y149941D01*
X85726Y149949D01*
X85746Y149957D01*
X85767Y149968D01*
X85795Y149985D01*
X85825Y150001D01*
X85855Y150017D01*
X85926Y150061D01*
X86002Y150113D01*
X86081Y150168D01*
X86155Y150230D01*
X86158Y150233D01*
X86163Y150239D01*
X86174Y150247D01*
X86188Y150260D01*
X86202Y150277D01*
X86221Y150293D01*
X86261Y150340D01*
X86308Y150389D01*
X86354Y150446D01*
X86395Y150506D01*
X86431Y150569D01*
X86630D01*
Y148041D01*
D02*
G37*
G36*
X79169Y150558D02*
X79199D01*
X79234Y150555D01*
X79276Y150552D01*
X79357Y150544D01*
X79442Y150531D01*
X79524Y150514D01*
X79559Y150503D01*
X79595Y150492D01*
X79598D01*
X79603Y150490D01*
X79611Y150484D01*
X79625Y150479D01*
X79658Y150462D01*
X79696Y150438D01*
X79742Y150405D01*
X79789Y150361D01*
X79835Y150312D01*
X79876Y150252D01*
Y150250D01*
X79882Y150244D01*
X79887Y150236D01*
X79892Y150222D01*
X79901Y150206D01*
X79909Y150187D01*
X79920Y150165D01*
X79931Y150140D01*
X79950Y150083D01*
X79966Y150020D01*
X79977Y149949D01*
X79983Y149873D01*
Y149870D01*
Y149862D01*
Y149845D01*
X79980Y149829D01*
X79977Y149804D01*
X79974Y149777D01*
X79969Y149747D01*
X79961Y149714D01*
X79939Y149643D01*
X79925Y149605D01*
X79909Y149567D01*
X79890Y149529D01*
X79865Y149490D01*
X79838Y149455D01*
X79808Y149420D01*
X79805Y149417D01*
X79800Y149411D01*
X79789Y149403D01*
X79775Y149390D01*
X79756Y149376D01*
X79734Y149360D01*
X79707Y149340D01*
X79674Y149321D01*
X79638Y149302D01*
X79600Y149283D01*
X79557Y149264D01*
X79507Y149245D01*
X79456Y149228D01*
X79398Y149212D01*
X79335Y149198D01*
X79270Y149188D01*
X79273D01*
X79276Y149185D01*
X79292Y149177D01*
X79316Y149163D01*
X79346Y149147D01*
X79379Y149127D01*
X79412Y149108D01*
X79445Y149084D01*
X79472Y149062D01*
X79475Y149059D01*
X79478Y149056D01*
X79486Y149048D01*
X79497Y149037D01*
X79510Y149024D01*
X79527Y149007D01*
X79562Y148969D01*
X79603Y148920D01*
X79650Y148863D01*
X79699Y148797D01*
X79748Y148726D01*
X80185Y148041D01*
X79767D01*
X79434Y148565D01*
X79431Y148568D01*
X79428Y148576D01*
X79420Y148587D01*
X79409Y148603D01*
X79398Y148622D01*
X79382Y148644D01*
X79349Y148693D01*
X79311Y148751D01*
X79273Y148808D01*
X79232Y148863D01*
X79194Y148912D01*
Y148915D01*
X79188Y148917D01*
X79177Y148931D01*
X79161Y148953D01*
X79136Y148977D01*
X79112Y149005D01*
X79082Y149032D01*
X79052Y149059D01*
X79024Y149078D01*
X79022Y149081D01*
X79011Y149086D01*
X78997Y149095D01*
X78978Y149106D01*
X78953Y149117D01*
X78929Y149127D01*
X78901Y149138D01*
X78871Y149147D01*
X78869D01*
X78860Y149149D01*
X78847Y149152D01*
X78828Y149155D01*
X78800D01*
X78768Y149158D01*
X78729Y149160D01*
X78301D01*
Y148041D01*
X77968D01*
Y150561D01*
X79139D01*
X79169Y150558D01*
D02*
G37*
G36*
X81667Y150602D02*
X81700Y150599D01*
X81735Y150596D01*
X81773Y150591D01*
X81817Y150583D01*
X81866Y150574D01*
X81915Y150563D01*
X81967Y150550D01*
X82022Y150533D01*
X82076Y150514D01*
X82131Y150492D01*
X82183Y150468D01*
X82237Y150438D01*
X82240Y150435D01*
X82251Y150430D01*
X82265Y150422D01*
X82284Y150408D01*
X82309Y150391D01*
X82333Y150370D01*
X82363Y150345D01*
X82396Y150318D01*
X82431Y150285D01*
X82467Y150250D01*
X82502Y150211D01*
X82538Y150170D01*
X82571Y150127D01*
X82606Y150077D01*
X82636Y150026D01*
X82666Y149971D01*
X82669Y149968D01*
X82672Y149957D01*
X82680Y149941D01*
X82688Y149919D01*
X82702Y149892D01*
X82713Y149856D01*
X82726Y149818D01*
X82740Y149775D01*
X82753Y149728D01*
X82767Y149676D01*
X82781Y149619D01*
X82792Y149562D01*
X82800Y149499D01*
X82808Y149433D01*
X82811Y149368D01*
X82814Y149297D01*
Y149291D01*
Y149280D01*
Y149258D01*
X82811Y149231D01*
X82808Y149198D01*
X82805Y149160D01*
X82800Y149117D01*
X82794Y149067D01*
X82786Y149015D01*
X82775Y148961D01*
X82764Y148904D01*
X82748Y148846D01*
X82729Y148786D01*
X82710Y148729D01*
X82685Y148669D01*
X82658Y148611D01*
X82655Y148609D01*
X82650Y148598D01*
X82642Y148581D01*
X82631Y148562D01*
X82614Y148538D01*
X82595Y148508D01*
X82571Y148475D01*
X82546Y148440D01*
X82516Y148404D01*
X82483Y148366D01*
X82445Y148328D01*
X82407Y148289D01*
X82366Y148254D01*
X82319Y148218D01*
X82270Y148183D01*
X82218Y148153D01*
X82216Y148150D01*
X82205Y148147D01*
X82191Y148139D01*
X82169Y148128D01*
X82142Y148117D01*
X82112Y148104D01*
X82076Y148090D01*
X82035Y148076D01*
X81992Y148063D01*
X81945Y148049D01*
X81893Y148035D01*
X81842Y148024D01*
X81727Y148005D01*
X81667Y148003D01*
X81607Y148000D01*
X81571D01*
X81547Y148003D01*
X81517Y148005D01*
X81479Y148008D01*
X81440Y148014D01*
X81394Y148022D01*
X81348Y148030D01*
X81296Y148041D01*
X81244Y148055D01*
X81189Y148071D01*
X81135Y148090D01*
X81080Y148115D01*
X81025Y148139D01*
X80971Y148169D01*
X80968Y148172D01*
X80960Y148177D01*
X80944Y148188D01*
X80924Y148202D01*
X80902Y148218D01*
X80875Y148240D01*
X80845Y148265D01*
X80813Y148292D01*
X80777Y148325D01*
X80744Y148360D01*
X80709Y148398D01*
X80673Y148440D01*
X80638Y148486D01*
X80605Y148532D01*
X80575Y148584D01*
X80545Y148639D01*
X80542Y148642D01*
X80539Y148652D01*
X80531Y148669D01*
X80523Y148691D01*
X80512Y148718D01*
X80501Y148751D01*
X80488Y148786D01*
X80474Y148830D01*
X80460Y148874D01*
X80447Y148923D01*
X80436Y148975D01*
X80425Y149029D01*
X80408Y149144D01*
X80406Y149207D01*
X80403Y149267D01*
Y149269D01*
Y149275D01*
Y149283D01*
Y149294D01*
X80406Y149310D01*
Y149327D01*
X80408Y149370D01*
X80414Y149422D01*
X80422Y149485D01*
X80430Y149551D01*
X80444Y149624D01*
X80463Y149704D01*
X80485Y149783D01*
X80512Y149864D01*
X80545Y149946D01*
X80583Y150028D01*
X80627Y150105D01*
X80679Y150181D01*
X80739Y150250D01*
X80742Y150252D01*
X80755Y150266D01*
X80774Y150282D01*
X80799Y150304D01*
X80834Y150331D01*
X80872Y150361D01*
X80919Y150394D01*
X80974Y150427D01*
X81034Y150460D01*
X81099Y150492D01*
X81170Y150522D01*
X81249Y150550D01*
X81331Y150572D01*
X81419Y150588D01*
X81511Y150602D01*
X81610Y150604D01*
X81642D01*
X81667Y150602D01*
D02*
G37*
G36*
X51399Y111417D02*
X51418D01*
X51443Y111414D01*
X51473Y111411D01*
X51503Y111406D01*
X51571Y111395D01*
X51645Y111376D01*
X51721Y111351D01*
X51800Y111316D01*
X51803D01*
X51809Y111310D01*
X51819Y111305D01*
X51833Y111296D01*
X51850Y111286D01*
X51869Y111275D01*
X51915Y111242D01*
X51964Y111204D01*
X52016Y111155D01*
X52068Y111097D01*
X52112Y111035D01*
Y111032D01*
X52117Y111026D01*
X52122Y111015D01*
X52128Y111002D01*
X52136Y110985D01*
X52144Y110966D01*
X52155Y110942D01*
X52163Y110917D01*
X52185Y110857D01*
X52202Y110786D01*
X52213Y110710D01*
X52218Y110628D01*
Y110611D01*
X52215Y110590D01*
X52213Y110562D01*
X52210Y110529D01*
X52202Y110491D01*
X52193Y110450D01*
X52183Y110404D01*
X52166Y110355D01*
X52150Y110303D01*
X52125Y110251D01*
X52098Y110199D01*
X52065Y110144D01*
X52027Y110095D01*
X51983Y110044D01*
X51934Y109997D01*
X51931Y109994D01*
X51920Y109986D01*
X51904Y109975D01*
X51880Y109959D01*
X51850Y109940D01*
X51811Y109921D01*
X51765Y109899D01*
X51710Y109877D01*
X51650Y109852D01*
X51582Y109830D01*
X51506Y109811D01*
X51421Y109792D01*
X51328Y109776D01*
X51227Y109765D01*
X51118Y109757D01*
X51000Y109754D01*
X50998D01*
X50992D01*
X50981D01*
X50968D01*
X50951D01*
X50929Y109757D01*
X50908D01*
X50880Y109759D01*
X50820Y109762D01*
X50752Y109768D01*
X50676Y109776D01*
X50594Y109787D01*
X50506Y109803D01*
X50419Y109820D01*
X50332Y109842D01*
X50244Y109869D01*
X50160Y109899D01*
X50078Y109934D01*
X50004Y109978D01*
X49938Y110024D01*
X49936Y110027D01*
X49925Y110035D01*
X49911Y110049D01*
X49892Y110068D01*
X49870Y110090D01*
X49846Y110120D01*
X49821Y110153D01*
X49794Y110191D01*
X49766Y110235D01*
X49742Y110284D01*
X49717Y110336D01*
X49696Y110393D01*
X49676Y110453D01*
X49663Y110519D01*
X49652Y110587D01*
X49649Y110660D01*
Y110690D01*
X49652Y110710D01*
X49655Y110734D01*
X49657Y110764D01*
X49663Y110797D01*
X49671Y110832D01*
X49690Y110912D01*
X49704Y110950D01*
X49720Y110994D01*
X49739Y111035D01*
X49764Y111073D01*
X49788Y111111D01*
X49818Y111149D01*
X49821Y111152D01*
X49827Y111157D01*
X49835Y111168D01*
X49848Y111179D01*
X49865Y111196D01*
X49887Y111212D01*
X49911Y111231D01*
X49938Y111250D01*
X49969Y111269D01*
X50004Y111288D01*
X50042Y111308D01*
X50083Y111327D01*
X50127Y111343D01*
X50173Y111357D01*
X50222Y111370D01*
X50277Y111378D01*
X50302Y111070D01*
X50299D01*
X50293Y111067D01*
X50285Y111065D01*
X50272Y111062D01*
X50239Y111054D01*
X50201Y111040D01*
X50157Y111023D01*
X50113Y111002D01*
X50072Y110980D01*
X50037Y110953D01*
X50034Y110950D01*
X50031Y110947D01*
X50023Y110939D01*
X50015Y110931D01*
X49993Y110903D01*
X49969Y110865D01*
X49944Y110821D01*
X49925Y110767D01*
X49909Y110707D01*
X49906Y110674D01*
X49903Y110641D01*
Y110617D01*
X49909Y110587D01*
X49914Y110551D01*
X49925Y110510D01*
X49938Y110467D01*
X49960Y110423D01*
X49988Y110379D01*
Y110377D01*
X49993Y110374D01*
X49999Y110366D01*
X50007Y110355D01*
X50031Y110330D01*
X50067Y110297D01*
X50111Y110259D01*
X50165Y110221D01*
X50228Y110185D01*
X50299Y110150D01*
X50302D01*
X50307Y110147D01*
X50321Y110142D01*
X50337Y110136D01*
X50356Y110131D01*
X50384Y110123D01*
X50414Y110115D01*
X50446Y110106D01*
X50485Y110098D01*
X50528Y110093D01*
X50577Y110084D01*
X50629Y110076D01*
X50684Y110071D01*
X50744Y110068D01*
X50809Y110065D01*
X50875Y110063D01*
X50875Y110063D01*
X50878D01*
X50875Y110063D01*
X50870Y110068D01*
X50861Y110073D01*
X50850Y110082D01*
X50820Y110106D01*
X50782Y110136D01*
X50741Y110177D01*
X50700Y110224D01*
X50662Y110275D01*
X50626Y110333D01*
Y110336D01*
X50624Y110341D01*
X50618Y110349D01*
X50613Y110360D01*
X50607Y110377D01*
X50599Y110393D01*
X50583Y110437D01*
X50569Y110488D01*
X50555Y110546D01*
X50545Y110609D01*
X50542Y110674D01*
Y110688D01*
X50545Y110704D01*
Y110726D01*
X50550Y110753D01*
X50553Y110783D01*
X50561Y110819D01*
X50569Y110857D01*
X50583Y110895D01*
X50596Y110939D01*
X50616Y110983D01*
X50637Y111026D01*
X50665Y111073D01*
X50695Y111116D01*
X50730Y111160D01*
X50771Y111201D01*
X50774Y111204D01*
X50782Y111209D01*
X50793Y111220D01*
X50812Y111237D01*
X50834Y111253D01*
X50861Y111269D01*
X50894Y111291D01*
X50929Y111310D01*
X50971Y111329D01*
X51014Y111351D01*
X51063Y111367D01*
X51115Y111387D01*
X51170Y111400D01*
X51230Y111411D01*
X51293Y111417D01*
X51358Y111419D01*
X51361D01*
X51369D01*
X51380D01*
X51399Y111417D01*
D02*
G37*
G36*
X52177Y108990D02*
X50201Y107668D01*
X52177D01*
Y107349D01*
X49657D01*
Y107690D01*
X51637Y109014D01*
X49657D01*
Y109334D01*
X52177D01*
Y108990D01*
D02*
G37*
G36*
Y106432D02*
X49657D01*
Y106765D01*
X52177D01*
Y106432D01*
D02*
G37*
G36*
Y105730D02*
X51415Y105438D01*
Y104379D01*
X52177Y104106D01*
Y103753D01*
X49657Y104717D01*
Y105078D01*
X52177Y106109D01*
Y105730D01*
D02*
G37*
G36*
Y103169D02*
X50067D01*
X52177Y102432D01*
Y102132D01*
X50031Y101406D01*
X52177D01*
Y101084D01*
X49657D01*
Y101583D01*
X51443Y102181D01*
X51446D01*
X51454Y102184D01*
X51467Y102189D01*
X51484Y102195D01*
X51503Y102200D01*
X51527Y102208D01*
X51582Y102227D01*
X51642Y102247D01*
X51705Y102266D01*
X51762Y102285D01*
X51789Y102293D01*
X51814Y102301D01*
X51811D01*
X51809Y102304D01*
X51800Y102307D01*
X51789Y102309D01*
X51773Y102315D01*
X51757Y102320D01*
X51735Y102326D01*
X51713Y102334D01*
X51686Y102342D01*
X51656Y102353D01*
X51623Y102364D01*
X51585Y102375D01*
X51547Y102389D01*
X51503Y102402D01*
X51459Y102419D01*
X51410Y102435D01*
X49657Y103041D01*
Y103491D01*
X52177D01*
Y103169D01*
D02*
G37*
G36*
X52876Y98812D02*
X52652D01*
Y100863D01*
X52876D01*
Y98812D01*
D02*
G37*
G36*
X51396Y98722D02*
X51415Y98717D01*
X51446Y98706D01*
X51478Y98695D01*
X51519Y98678D01*
X51563Y98662D01*
X51609Y98640D01*
X51661Y98616D01*
X51710Y98588D01*
X51765Y98558D01*
X51817Y98523D01*
X51866Y98485D01*
X51915Y98444D01*
X51961Y98397D01*
X52005Y98348D01*
X52008Y98345D01*
X52013Y98334D01*
X52024Y98321D01*
X52038Y98299D01*
X52054Y98274D01*
X52073Y98242D01*
X52092Y98206D01*
X52112Y98163D01*
X52131Y98116D01*
X52150Y98067D01*
X52169Y98012D01*
X52185Y97952D01*
X52199Y97890D01*
X52210Y97824D01*
X52215Y97756D01*
X52218Y97682D01*
Y97644D01*
X52215Y97614D01*
X52213Y97581D01*
X52210Y97540D01*
X52204Y97496D01*
X52196Y97447D01*
X52188Y97395D01*
X52177Y97341D01*
X52163Y97286D01*
X52150Y97232D01*
X52131Y97174D01*
X52109Y97120D01*
X52084Y97068D01*
X52054Y97019D01*
X52052Y97016D01*
X52046Y97008D01*
X52038Y96994D01*
X52024Y96978D01*
X52005Y96956D01*
X51986Y96931D01*
X51961Y96904D01*
X51931Y96874D01*
X51899Y96844D01*
X51863Y96811D01*
X51825Y96781D01*
X51781Y96748D01*
X51735Y96716D01*
X51686Y96686D01*
X51631Y96658D01*
X51574Y96631D01*
X51571Y96628D01*
X51560Y96626D01*
X51541Y96620D01*
X51519Y96612D01*
X51489Y96601D01*
X51456Y96590D01*
X51415Y96579D01*
X51372Y96566D01*
X51323Y96554D01*
X51271Y96541D01*
X51216Y96530D01*
X51156Y96522D01*
X51030Y96505D01*
X50965Y96503D01*
X50899Y96500D01*
X50894D01*
X50883D01*
X50861D01*
X50834Y96503D01*
X50798Y96505D01*
X50757Y96508D01*
X50714Y96514D01*
X50665Y96519D01*
X50613Y96527D01*
X50558Y96535D01*
X50441Y96563D01*
X50384Y96582D01*
X50326Y96601D01*
X50266Y96623D01*
X50212Y96650D01*
X50209Y96653D01*
X50198Y96658D01*
X50184Y96667D01*
X50162Y96677D01*
X50138Y96694D01*
X50111Y96713D01*
X50081Y96735D01*
X50045Y96759D01*
X50012Y96789D01*
X49974Y96819D01*
X49938Y96855D01*
X49900Y96893D01*
X49865Y96934D01*
X49829Y96978D01*
X49797Y97027D01*
X49766Y97076D01*
X49764Y97079D01*
X49761Y97090D01*
X49753Y97103D01*
X49742Y97125D01*
X49731Y97150D01*
X49717Y97182D01*
X49704Y97218D01*
X49690Y97256D01*
X49676Y97300D01*
X49663Y97349D01*
X49649Y97398D01*
X49638Y97453D01*
X49619Y97565D01*
X49616Y97625D01*
X49614Y97688D01*
Y97723D01*
X49616Y97750D01*
X49619Y97783D01*
X49625Y97821D01*
X49630Y97862D01*
X49638Y97909D01*
X49649Y97958D01*
X49660Y98010D01*
X49676Y98062D01*
X49696Y98116D01*
X49717Y98171D01*
X49745Y98223D01*
X49772Y98274D01*
X49808Y98324D01*
X49810Y98326D01*
X49816Y98334D01*
X49827Y98348D01*
X49843Y98365D01*
X49862Y98386D01*
X49887Y98411D01*
X49914Y98435D01*
X49947Y98466D01*
X49982Y98496D01*
X50023Y98526D01*
X50067Y98556D01*
X50116Y98583D01*
X50168Y98613D01*
X50225Y98637D01*
X50285Y98662D01*
X50348Y98684D01*
X50424Y98356D01*
X50422D01*
X50414Y98351D01*
X50397Y98348D01*
X50378Y98340D01*
X50356Y98332D01*
X50332Y98318D01*
X50272Y98291D01*
X50206Y98255D01*
X50138Y98209D01*
X50075Y98160D01*
X50048Y98130D01*
X50023Y98100D01*
X50020Y98097D01*
X50018Y98092D01*
X50012Y98083D01*
X50004Y98070D01*
X49993Y98053D01*
X49982Y98034D01*
X49971Y98012D01*
X49960Y97985D01*
X49949Y97955D01*
X49938Y97925D01*
X49917Y97854D01*
X49903Y97772D01*
X49898Y97728D01*
Y97655D01*
X49900Y97633D01*
X49903Y97608D01*
X49906Y97578D01*
X49909Y97545D01*
X49914Y97513D01*
X49933Y97434D01*
X49958Y97352D01*
X49974Y97311D01*
X49993Y97270D01*
X50015Y97232D01*
X50039Y97193D01*
X50042Y97191D01*
X50045Y97185D01*
X50053Y97174D01*
X50064Y97161D01*
X50078Y97147D01*
X50097Y97128D01*
X50116Y97109D01*
X50138Y97087D01*
X50165Y97065D01*
X50192Y97040D01*
X50255Y96997D01*
X50329Y96956D01*
X50414Y96920D01*
X50416D01*
X50424Y96918D01*
X50438Y96912D01*
X50454Y96909D01*
X50476Y96904D01*
X50501Y96896D01*
X50531Y96890D01*
X50561Y96882D01*
X50596Y96874D01*
X50635Y96868D01*
X50717Y96855D01*
X50804Y96847D01*
X50897Y96844D01*
X50899D01*
X50910D01*
X50927D01*
X50951Y96847D01*
X50979D01*
X51011Y96849D01*
X51047Y96852D01*
X51088Y96855D01*
X51131Y96860D01*
X51175Y96866D01*
X51271Y96882D01*
X51366Y96907D01*
X51459Y96937D01*
X51462D01*
X51470Y96942D01*
X51481Y96948D01*
X51497Y96953D01*
X51519Y96964D01*
X51541Y96978D01*
X51593Y97008D01*
X51653Y97049D01*
X51710Y97098D01*
X51768Y97158D01*
X51792Y97191D01*
X51817Y97226D01*
Y97229D01*
X51822Y97234D01*
X51828Y97245D01*
X51836Y97262D01*
X51844Y97281D01*
X51855Y97303D01*
X51863Y97327D01*
X51874Y97354D01*
X51896Y97417D01*
X51915Y97491D01*
X51929Y97570D01*
X51931Y97611D01*
X51934Y97655D01*
Y97682D01*
X51931Y97701D01*
X51929Y97726D01*
X51926Y97753D01*
X51920Y97786D01*
X51915Y97818D01*
X51896Y97895D01*
X51882Y97933D01*
X51866Y97974D01*
X51847Y98015D01*
X51825Y98053D01*
X51800Y98092D01*
X51773Y98130D01*
X51770Y98132D01*
X51765Y98138D01*
X51757Y98149D01*
X51743Y98163D01*
X51727Y98176D01*
X51705Y98195D01*
X51680Y98214D01*
X51653Y98236D01*
X51620Y98258D01*
X51585Y98280D01*
X51547Y98302D01*
X51503Y98324D01*
X51456Y98343D01*
X51405Y98362D01*
X51350Y98381D01*
X51293Y98395D01*
X51377Y98728D01*
X51383D01*
X51396Y98722D01*
D02*
G37*
G36*
X50459Y148176D02*
X49935Y147843D01*
X49932Y147840D01*
X49924Y147838D01*
X49913Y147829D01*
X49897Y147819D01*
X49878Y147808D01*
X49856Y147791D01*
X49807Y147758D01*
X49749Y147720D01*
X49692Y147682D01*
X49637Y147641D01*
X49588Y147603D01*
X49586D01*
X49583Y147597D01*
X49569Y147587D01*
X49547Y147570D01*
X49523Y147546D01*
X49495Y147521D01*
X49468Y147491D01*
X49441Y147461D01*
X49422Y147434D01*
X49419Y147431D01*
X49413Y147420D01*
X49405Y147406D01*
X49394Y147387D01*
X49384Y147363D01*
X49373Y147338D01*
X49362Y147311D01*
X49353Y147281D01*
Y147278D01*
X49351Y147270D01*
X49348Y147256D01*
X49345Y147237D01*
Y147210D01*
X49343Y147177D01*
X49340Y147139D01*
Y146710D01*
X50459D01*
Y146377D01*
X47939D01*
Y147548D01*
X47942Y147578D01*
Y147608D01*
X47945Y147644D01*
X47947Y147685D01*
X47956Y147767D01*
X47969Y147851D01*
X47986Y147933D01*
X47997Y147969D01*
X48008Y148004D01*
Y148007D01*
X48010Y148012D01*
X48016Y148021D01*
X48021Y148034D01*
X48038Y148067D01*
X48062Y148105D01*
X48095Y148152D01*
X48139Y148198D01*
X48188Y148244D01*
X48248Y148285D01*
X48250D01*
X48256Y148291D01*
X48264Y148296D01*
X48278Y148302D01*
X48294Y148310D01*
X48313Y148318D01*
X48335Y148329D01*
X48360Y148340D01*
X48417Y148359D01*
X48480Y148375D01*
X48551Y148386D01*
X48627Y148392D01*
X48630D01*
X48638D01*
X48655D01*
X48671Y148389D01*
X48695Y148386D01*
X48723Y148384D01*
X48753Y148378D01*
X48786Y148370D01*
X48857Y148348D01*
X48895Y148335D01*
X48933Y148318D01*
X48971Y148299D01*
X49009Y148274D01*
X49045Y148247D01*
X49080Y148217D01*
X49083Y148214D01*
X49089Y148209D01*
X49097Y148198D01*
X49110Y148184D01*
X49124Y148165D01*
X49141Y148143D01*
X49160Y148116D01*
X49179Y148083D01*
X49198Y148048D01*
X49217Y148010D01*
X49236Y147966D01*
X49255Y147917D01*
X49272Y147865D01*
X49288Y147808D01*
X49302Y147745D01*
X49312Y147679D01*
Y147682D01*
X49315Y147685D01*
X49323Y147701D01*
X49337Y147726D01*
X49353Y147756D01*
X49373Y147789D01*
X49392Y147821D01*
X49416Y147854D01*
X49438Y147881D01*
X49441Y147884D01*
X49444Y147887D01*
X49452Y147895D01*
X49463Y147906D01*
X49476Y147919D01*
X49493Y147936D01*
X49531Y147971D01*
X49580Y148012D01*
X49637Y148059D01*
X49703Y148108D01*
X49774Y148157D01*
X50459Y148594D01*
Y148176D01*
D02*
G37*
G36*
X49269Y145940D02*
X49302Y145938D01*
X49340Y145935D01*
X49384Y145929D01*
X49433Y145924D01*
X49485Y145916D01*
X49539Y145905D01*
X49596Y145894D01*
X49654Y145878D01*
X49714Y145858D01*
X49771Y145839D01*
X49831Y145815D01*
X49889Y145787D01*
X49891Y145785D01*
X49902Y145779D01*
X49918Y145771D01*
X49938Y145760D01*
X49962Y145744D01*
X49992Y145725D01*
X50025Y145700D01*
X50060Y145676D01*
X50096Y145645D01*
X50134Y145613D01*
X50172Y145574D01*
X50211Y145536D01*
X50246Y145495D01*
X50282Y145449D01*
X50317Y145400D01*
X50347Y145348D01*
X50350Y145345D01*
X50353Y145334D01*
X50361Y145321D01*
X50372Y145299D01*
X50383Y145271D01*
X50396Y145241D01*
X50410Y145206D01*
X50424Y145165D01*
X50437Y145121D01*
X50451Y145075D01*
X50464Y145023D01*
X50476Y144971D01*
X50495Y144857D01*
X50497Y144796D01*
X50500Y144736D01*
Y144701D01*
X50497Y144676D01*
X50495Y144646D01*
X50492Y144608D01*
X50486Y144570D01*
X50478Y144523D01*
X50470Y144477D01*
X50459Y144425D01*
X50445Y144373D01*
X50429Y144319D01*
X50410Y144264D01*
X50385Y144210D01*
X50361Y144155D01*
X50331Y144100D01*
X50328Y144097D01*
X50323Y144089D01*
X50312Y144073D01*
X50298Y144054D01*
X50282Y144032D01*
X50260Y144005D01*
X50235Y143975D01*
X50208Y143942D01*
X50175Y143906D01*
X50140Y143874D01*
X50101Y143838D01*
X50060Y143803D01*
X50014Y143767D01*
X49968Y143734D01*
X49916Y143704D01*
X49861Y143674D01*
X49858Y143672D01*
X49848Y143669D01*
X49831Y143661D01*
X49809Y143652D01*
X49782Y143642D01*
X49749Y143631D01*
X49714Y143617D01*
X49670Y143603D01*
X49626Y143590D01*
X49577Y143576D01*
X49525Y143565D01*
X49471Y143554D01*
X49356Y143538D01*
X49293Y143535D01*
X49233Y143532D01*
X49231D01*
X49225D01*
X49217D01*
X49206D01*
X49190Y143535D01*
X49173D01*
X49130Y143538D01*
X49078Y143543D01*
X49015Y143552D01*
X48949Y143560D01*
X48876Y143573D01*
X48796Y143593D01*
X48717Y143614D01*
X48635Y143642D01*
X48553Y143674D01*
X48472Y143713D01*
X48395Y143756D01*
X48319Y143808D01*
X48250Y143868D01*
X48248Y143871D01*
X48234Y143885D01*
X48218Y143904D01*
X48196Y143928D01*
X48169Y143964D01*
X48139Y144002D01*
X48106Y144048D01*
X48073Y144103D01*
X48040Y144163D01*
X48008Y144229D01*
X47978Y144299D01*
X47950Y144379D01*
X47928Y144461D01*
X47912Y144548D01*
X47898Y144641D01*
X47896Y144739D01*
Y144772D01*
X47898Y144796D01*
X47901Y144829D01*
X47904Y144865D01*
X47909Y144903D01*
X47918Y144947D01*
X47926Y144996D01*
X47937Y145045D01*
X47950Y145097D01*
X47967Y145151D01*
X47986Y145206D01*
X48008Y145261D01*
X48032Y145312D01*
X48062Y145367D01*
X48065Y145370D01*
X48070Y145381D01*
X48079Y145394D01*
X48092Y145413D01*
X48109Y145438D01*
X48130Y145463D01*
X48155Y145493D01*
X48182Y145525D01*
X48215Y145561D01*
X48250Y145596D01*
X48289Y145632D01*
X48330Y145667D01*
X48373Y145700D01*
X48423Y145736D01*
X48474Y145766D01*
X48529Y145796D01*
X48532Y145798D01*
X48543Y145801D01*
X48559Y145809D01*
X48581Y145817D01*
X48608Y145831D01*
X48644Y145842D01*
X48682Y145856D01*
X48726Y145869D01*
X48772Y145883D01*
X48824Y145897D01*
X48881Y145910D01*
X48939Y145921D01*
X49001Y145929D01*
X49067Y145938D01*
X49132Y145940D01*
X49203Y145943D01*
X49209D01*
X49220D01*
X49242D01*
X49269Y145940D01*
D02*
G37*
G36*
X48237Y142459D02*
X50459D01*
Y142127D01*
X48237D01*
Y141297D01*
X47939D01*
Y143289D01*
X48237D01*
Y142459D01*
D02*
G37*
G36*
X49782Y141029D02*
X49801D01*
X49820Y141026D01*
X49872Y141018D01*
X49929Y141004D01*
X49992Y140983D01*
X50058Y140953D01*
X50093Y140936D01*
X50126Y140914D01*
X50129D01*
X50134Y140909D01*
X50142Y140903D01*
X50156Y140893D01*
X50186Y140868D01*
X50227Y140830D01*
X50271Y140783D01*
X50317Y140726D01*
X50361Y140661D01*
X50402Y140584D01*
Y140581D01*
X50407Y140573D01*
X50410Y140562D01*
X50418Y140546D01*
X50424Y140527D01*
X50432Y140502D01*
X50443Y140475D01*
X50451Y140442D01*
X50459Y140409D01*
X50470Y140371D01*
X50484Y140289D01*
X50495Y140199D01*
X50500Y140101D01*
Y140068D01*
X50497Y140043D01*
Y140013D01*
X50495Y139981D01*
X50492Y139943D01*
X50486Y139899D01*
X50476Y139809D01*
X50459Y139713D01*
X50434Y139618D01*
X50402Y139525D01*
Y139522D01*
X50396Y139514D01*
X50391Y139503D01*
X50383Y139487D01*
X50372Y139468D01*
X50361Y139446D01*
X50328Y139394D01*
X50287Y139336D01*
X50235Y139276D01*
X50175Y139216D01*
X50104Y139164D01*
X50101Y139162D01*
X50096Y139159D01*
X50085Y139154D01*
X50069Y139145D01*
X50050Y139134D01*
X50028Y139123D01*
X50000Y139110D01*
X49970Y139099D01*
X49940Y139085D01*
X49905Y139074D01*
X49826Y139052D01*
X49741Y139036D01*
X49695Y139031D01*
X49648Y139028D01*
X49621Y139342D01*
X49624D01*
X49629D01*
X49640Y139345D01*
X49654Y139347D01*
X49670Y139350D01*
X49687Y139353D01*
X49733Y139364D01*
X49782Y139377D01*
X49834Y139394D01*
X49886Y139416D01*
X49935Y139443D01*
X49940Y139446D01*
X49954Y139459D01*
X49976Y139478D01*
X50003Y139506D01*
X50036Y139541D01*
X50066Y139585D01*
X50099Y139637D01*
X50129Y139697D01*
Y139699D01*
X50131Y139705D01*
X50134Y139713D01*
X50140Y139727D01*
X50145Y139743D01*
X50153Y139762D01*
X50159Y139784D01*
X50164Y139809D01*
X50178Y139866D01*
X50191Y139934D01*
X50200Y140005D01*
X50203Y140084D01*
Y140117D01*
X50200Y140134D01*
Y140153D01*
X50194Y140196D01*
X50189Y140248D01*
X50181Y140306D01*
X50167Y140363D01*
X50148Y140418D01*
Y140420D01*
X50145Y140423D01*
X50142Y140431D01*
X50137Y140442D01*
X50123Y140467D01*
X50107Y140499D01*
X50085Y140535D01*
X50058Y140573D01*
X50028Y140606D01*
X49992Y140636D01*
X49987Y140639D01*
X49976Y140647D01*
X49954Y140661D01*
X49927Y140674D01*
X49894Y140685D01*
X49858Y140699D01*
X49817Y140707D01*
X49777Y140710D01*
X49774D01*
X49771D01*
X49758D01*
X49733Y140707D01*
X49706Y140701D01*
X49673Y140693D01*
X49637Y140680D01*
X49602Y140663D01*
X49569Y140639D01*
X49566Y140636D01*
X49556Y140625D01*
X49539Y140609D01*
X49517Y140584D01*
X49495Y140554D01*
X49471Y140513D01*
X49446Y140467D01*
X49422Y140412D01*
X49419Y140407D01*
X49416Y140401D01*
X49413Y140390D01*
X49411Y140379D01*
X49405Y140363D01*
X49397Y140341D01*
X49392Y140319D01*
X49384Y140289D01*
X49373Y140259D01*
X49364Y140221D01*
X49353Y140180D01*
X49340Y140134D01*
X49329Y140084D01*
X49312Y140027D01*
X49299Y139964D01*
Y139962D01*
X49296Y139951D01*
X49291Y139931D01*
X49285Y139910D01*
X49277Y139880D01*
X49269Y139847D01*
X49258Y139814D01*
X49247Y139776D01*
X49222Y139694D01*
X49195Y139615D01*
X49181Y139577D01*
X49168Y139541D01*
X49154Y139508D01*
X49141Y139481D01*
Y139478D01*
X49135Y139473D01*
X49130Y139465D01*
X49124Y139451D01*
X49105Y139418D01*
X49078Y139380D01*
X49042Y139334D01*
X49004Y139290D01*
X48958Y139246D01*
X48908Y139211D01*
X48906D01*
X48903Y139208D01*
X48895Y139203D01*
X48884Y139197D01*
X48854Y139183D01*
X48816Y139167D01*
X48769Y139151D01*
X48715Y139137D01*
X48655Y139126D01*
X48592Y139123D01*
X48589D01*
X48584D01*
X48573D01*
X48559Y139126D01*
X48543D01*
X48524Y139129D01*
X48474Y139137D01*
X48420Y139151D01*
X48362Y139167D01*
X48300Y139195D01*
X48237Y139230D01*
X48234D01*
X48229Y139235D01*
X48221Y139241D01*
X48210Y139249D01*
X48180Y139276D01*
X48141Y139312D01*
X48100Y139356D01*
X48059Y139410D01*
X48019Y139473D01*
X47983Y139547D01*
Y139549D01*
X47980Y139555D01*
X47975Y139568D01*
X47969Y139582D01*
X47964Y139601D01*
X47956Y139626D01*
X47947Y139653D01*
X47939Y139683D01*
X47931Y139716D01*
X47923Y139751D01*
X47909Y139828D01*
X47898Y139915D01*
X47896Y140008D01*
Y140054D01*
X47898Y140079D01*
X47901Y140109D01*
X47904Y140139D01*
X47907Y140174D01*
X47918Y140251D01*
X47934Y140336D01*
X47958Y140420D01*
X47988Y140502D01*
Y140505D01*
X47994Y140510D01*
X47997Y140524D01*
X48005Y140538D01*
X48016Y140554D01*
X48027Y140576D01*
X48054Y140622D01*
X48092Y140677D01*
X48139Y140731D01*
X48190Y140783D01*
X48253Y140830D01*
X48256Y140832D01*
X48261Y140835D01*
X48270Y140841D01*
X48283Y140849D01*
X48300Y140857D01*
X48319Y140868D01*
X48343Y140876D01*
X48368Y140890D01*
X48425Y140912D01*
X48493Y140931D01*
X48567Y140947D01*
X48649Y140955D01*
X48674Y140636D01*
X48671D01*
X48663Y140633D01*
X48652D01*
X48635Y140630D01*
X48614Y140625D01*
X48592Y140620D01*
X48540Y140603D01*
X48483Y140581D01*
X48423Y140549D01*
X48365Y140510D01*
X48341Y140486D01*
X48316Y140458D01*
X48313Y140456D01*
X48311Y140453D01*
X48305Y140442D01*
X48297Y140431D01*
X48289Y140415D01*
X48278Y140396D01*
X48267Y140374D01*
X48253Y140349D01*
X48242Y140319D01*
X48231Y140286D01*
X48221Y140251D01*
X48212Y140213D01*
X48204Y140169D01*
X48199Y140123D01*
X48193Y140074D01*
Y139994D01*
X48196Y139972D01*
Y139948D01*
X48199Y139921D01*
X48201Y139888D01*
X48207Y139855D01*
X48221Y139781D01*
X48240Y139710D01*
X48267Y139642D01*
X48286Y139609D01*
X48305Y139582D01*
Y139579D01*
X48311Y139577D01*
X48324Y139560D01*
X48349Y139538D01*
X48382Y139514D01*
X48420Y139489D01*
X48466Y139468D01*
X48515Y139451D01*
X48543Y139448D01*
X48573Y139446D01*
X48575D01*
X48578D01*
X48594Y139448D01*
X48619Y139451D01*
X48649Y139456D01*
X48685Y139470D01*
X48723Y139487D01*
X48758Y139508D01*
X48794Y139541D01*
X48796Y139547D01*
X48802Y139552D01*
X48810Y139563D01*
X48818Y139577D01*
X48827Y139593D01*
X48838Y139615D01*
X48851Y139639D01*
X48865Y139670D01*
X48878Y139705D01*
X48892Y139746D01*
X48908Y139792D01*
X48925Y139847D01*
X48941Y139904D01*
X48960Y139970D01*
X48977Y140043D01*
Y140049D01*
X48979Y140063D01*
X48985Y140082D01*
X48993Y140109D01*
X48998Y140142D01*
X49009Y140180D01*
X49018Y140221D01*
X49031Y140265D01*
X49056Y140357D01*
X49080Y140450D01*
X49094Y140494D01*
X49108Y140532D01*
X49121Y140570D01*
X49135Y140600D01*
Y140603D01*
X49141Y140611D01*
X49146Y140622D01*
X49154Y140636D01*
X49162Y140655D01*
X49176Y140677D01*
X49206Y140723D01*
X49242Y140778D01*
X49285Y140830D01*
X49337Y140882D01*
X49364Y140903D01*
X49392Y140925D01*
X49394D01*
X49400Y140931D01*
X49408Y140936D01*
X49419Y140942D01*
X49433Y140950D01*
X49452Y140958D01*
X49495Y140980D01*
X49547Y140999D01*
X49607Y141015D01*
X49676Y141026D01*
X49749Y141032D01*
X49752D01*
X49758D01*
X49768D01*
X49782Y141029D01*
D02*
G37*
G36*
X49678Y138722D02*
X49697Y138717D01*
X49727Y138706D01*
X49760Y138695D01*
X49801Y138679D01*
X49845Y138662D01*
X49891Y138640D01*
X49943Y138616D01*
X49992Y138588D01*
X50047Y138558D01*
X50099Y138523D01*
X50148Y138485D01*
X50197Y138444D01*
X50243Y138397D01*
X50287Y138348D01*
X50290Y138345D01*
X50295Y138335D01*
X50306Y138321D01*
X50320Y138299D01*
X50336Y138274D01*
X50355Y138242D01*
X50375Y138206D01*
X50394Y138163D01*
X50413Y138116D01*
X50432Y138067D01*
X50451Y138012D01*
X50467Y137952D01*
X50481Y137890D01*
X50492Y137824D01*
X50497Y137756D01*
X50500Y137682D01*
Y137644D01*
X50497Y137614D01*
X50495Y137581D01*
X50492Y137540D01*
X50486Y137496D01*
X50478Y137447D01*
X50470Y137395D01*
X50459Y137341D01*
X50445Y137286D01*
X50432Y137232D01*
X50413Y137174D01*
X50391Y137120D01*
X50366Y137068D01*
X50336Y137019D01*
X50333Y137016D01*
X50328Y137008D01*
X50320Y136994D01*
X50306Y136978D01*
X50287Y136956D01*
X50268Y136931D01*
X50243Y136904D01*
X50213Y136874D01*
X50181Y136844D01*
X50145Y136811D01*
X50107Y136781D01*
X50063Y136748D01*
X50017Y136716D01*
X49968Y136686D01*
X49913Y136658D01*
X49856Y136631D01*
X49853Y136628D01*
X49842Y136626D01*
X49823Y136620D01*
X49801Y136612D01*
X49771Y136601D01*
X49738Y136590D01*
X49697Y136579D01*
X49654Y136565D01*
X49605Y136555D01*
X49553Y136541D01*
X49498Y136530D01*
X49438Y136522D01*
X49312Y136505D01*
X49247Y136503D01*
X49181Y136500D01*
X49176D01*
X49165D01*
X49143D01*
X49116Y136503D01*
X49080Y136505D01*
X49040Y136508D01*
X48996Y136514D01*
X48947Y136519D01*
X48895Y136527D01*
X48840Y136535D01*
X48723Y136563D01*
X48665Y136582D01*
X48608Y136601D01*
X48548Y136623D01*
X48493Y136650D01*
X48491Y136653D01*
X48480Y136658D01*
X48466Y136667D01*
X48444Y136677D01*
X48420Y136694D01*
X48393Y136713D01*
X48362Y136735D01*
X48327Y136759D01*
X48294Y136789D01*
X48256Y136819D01*
X48221Y136855D01*
X48182Y136893D01*
X48147Y136934D01*
X48111Y136978D01*
X48079Y137027D01*
X48048Y137076D01*
X48046Y137079D01*
X48043Y137090D01*
X48035Y137103D01*
X48024Y137125D01*
X48013Y137150D01*
X47999Y137182D01*
X47986Y137218D01*
X47972Y137256D01*
X47958Y137300D01*
X47945Y137349D01*
X47931Y137398D01*
X47920Y137453D01*
X47901Y137565D01*
X47898Y137625D01*
X47896Y137688D01*
Y137723D01*
X47898Y137750D01*
X47901Y137783D01*
X47907Y137821D01*
X47912Y137862D01*
X47920Y137909D01*
X47931Y137958D01*
X47942Y138010D01*
X47958Y138061D01*
X47978Y138116D01*
X47999Y138171D01*
X48027Y138223D01*
X48054Y138274D01*
X48089Y138324D01*
X48092Y138326D01*
X48098Y138335D01*
X48109Y138348D01*
X48125Y138365D01*
X48144Y138386D01*
X48169Y138411D01*
X48196Y138435D01*
X48229Y138465D01*
X48264Y138496D01*
X48305Y138526D01*
X48349Y138556D01*
X48398Y138583D01*
X48450Y138613D01*
X48507Y138637D01*
X48567Y138662D01*
X48630Y138684D01*
X48706Y138356D01*
X48704D01*
X48695Y138351D01*
X48679Y138348D01*
X48660Y138340D01*
X48638Y138332D01*
X48614Y138318D01*
X48553Y138291D01*
X48488Y138255D01*
X48420Y138209D01*
X48357Y138160D01*
X48330Y138130D01*
X48305Y138100D01*
X48302Y138097D01*
X48300Y138092D01*
X48294Y138083D01*
X48286Y138070D01*
X48275Y138053D01*
X48264Y138034D01*
X48253Y138012D01*
X48242Y137985D01*
X48231Y137955D01*
X48221Y137925D01*
X48199Y137854D01*
X48185Y137772D01*
X48180Y137728D01*
Y137655D01*
X48182Y137633D01*
X48185Y137608D01*
X48188Y137578D01*
X48190Y137546D01*
X48196Y137513D01*
X48215Y137434D01*
X48240Y137352D01*
X48256Y137311D01*
X48275Y137270D01*
X48297Y137232D01*
X48322Y137193D01*
X48324Y137191D01*
X48327Y137185D01*
X48335Y137174D01*
X48346Y137161D01*
X48360Y137147D01*
X48379Y137128D01*
X48398Y137109D01*
X48420Y137087D01*
X48447Y137065D01*
X48474Y137040D01*
X48537Y136997D01*
X48611Y136956D01*
X48695Y136920D01*
X48698D01*
X48706Y136918D01*
X48720Y136912D01*
X48737Y136909D01*
X48758Y136904D01*
X48783Y136896D01*
X48813Y136890D01*
X48843Y136882D01*
X48878Y136874D01*
X48917Y136869D01*
X48998Y136855D01*
X49086Y136847D01*
X49179Y136844D01*
X49181D01*
X49192D01*
X49209D01*
X49233Y136847D01*
X49261D01*
X49293Y136849D01*
X49329Y136852D01*
X49370Y136855D01*
X49413Y136860D01*
X49457Y136866D01*
X49553Y136882D01*
X49648Y136907D01*
X49741Y136937D01*
X49744D01*
X49752Y136942D01*
X49763Y136948D01*
X49779Y136953D01*
X49801Y136964D01*
X49823Y136978D01*
X49875Y137008D01*
X49935Y137049D01*
X49992Y137098D01*
X50050Y137158D01*
X50074Y137191D01*
X50099Y137226D01*
Y137229D01*
X50104Y137234D01*
X50110Y137245D01*
X50118Y137262D01*
X50126Y137281D01*
X50137Y137303D01*
X50145Y137327D01*
X50156Y137354D01*
X50178Y137417D01*
X50197Y137491D01*
X50211Y137570D01*
X50213Y137611D01*
X50216Y137655D01*
Y137682D01*
X50213Y137701D01*
X50211Y137726D01*
X50208Y137753D01*
X50203Y137786D01*
X50197Y137819D01*
X50178Y137895D01*
X50164Y137933D01*
X50148Y137974D01*
X50129Y138015D01*
X50107Y138053D01*
X50082Y138092D01*
X50055Y138130D01*
X50052Y138133D01*
X50047Y138138D01*
X50039Y138149D01*
X50025Y138163D01*
X50009Y138176D01*
X49987Y138195D01*
X49962Y138214D01*
X49935Y138236D01*
X49902Y138258D01*
X49867Y138280D01*
X49828Y138302D01*
X49785Y138324D01*
X49738Y138343D01*
X49687Y138362D01*
X49632Y138381D01*
X49575Y138395D01*
X49659Y138728D01*
X49665D01*
X49678Y138722D01*
D02*
G37*
G36*
X57226Y146255D02*
X57253Y146252D01*
X57283Y146247D01*
X57318Y146241D01*
X57359Y146233D01*
X57400Y146222D01*
X57444Y146208D01*
X57488Y146192D01*
X57534Y146170D01*
X57580Y146148D01*
X57627Y146121D01*
X57670Y146088D01*
X57714Y146053D01*
X57717Y146050D01*
X57722Y146042D01*
X57733Y146031D01*
X57750Y146012D01*
X57766Y145990D01*
X57785Y145960D01*
X57804Y145924D01*
X57823Y145883D01*
X57845Y145834D01*
X57864Y145782D01*
X57884Y145720D01*
X57900Y145654D01*
X57914Y145578D01*
X57924Y145496D01*
X57933Y145408D01*
X57935Y145310D01*
Y144666D01*
X58959D01*
Y144333D01*
X56439D01*
Y145370D01*
X56442Y145425D01*
X56445Y145487D01*
X56450Y145550D01*
X56456Y145610D01*
X56458Y145640D01*
X56464Y145665D01*
Y145668D01*
X56467Y145673D01*
Y145684D01*
X56469Y145695D01*
X56475Y145711D01*
X56477Y145730D01*
X56491Y145774D01*
X56508Y145823D01*
X56529Y145875D01*
X56554Y145927D01*
X56584Y145976D01*
Y145979D01*
X56587Y145982D01*
X56600Y145998D01*
X56620Y146020D01*
X56647Y146050D01*
X56679Y146080D01*
X56723Y146115D01*
X56770Y146148D01*
X56827Y146178D01*
X56830D01*
X56835Y146181D01*
X56843Y146186D01*
X56854Y146192D01*
X56868Y146197D01*
X56887Y146203D01*
X56928Y146219D01*
X56980Y146233D01*
X57037Y146247D01*
X57103Y146255D01*
X57171Y146257D01*
X57174D01*
X57185D01*
X57201D01*
X57226Y146255D01*
D02*
G37*
G36*
X57894Y143028D02*
X58959D01*
Y142695D01*
X57894D01*
X56439Y141723D01*
Y142127D01*
X57201Y142624D01*
X57204Y142627D01*
X57209Y142629D01*
X57223Y142637D01*
X57236Y142648D01*
X57256Y142659D01*
X57280Y142673D01*
X57305Y142689D01*
X57335Y142708D01*
X57398Y142747D01*
X57468Y142790D01*
X57545Y142837D01*
X57624Y142880D01*
X57621Y142883D01*
X57616Y142886D01*
X57605Y142891D01*
X57589Y142902D01*
X57572Y142913D01*
X57550Y142924D01*
X57523Y142940D01*
X57496Y142957D01*
X57466Y142976D01*
X57430Y142998D01*
X57357Y143044D01*
X57272Y143099D01*
X57182Y143156D01*
X56439Y143645D01*
Y144032D01*
X57894Y143028D01*
D02*
G37*
G36*
X58277Y141524D02*
X58293D01*
X58337Y141518D01*
X58389Y141507D01*
X58443Y141493D01*
X58503Y141474D01*
X58561Y141450D01*
X58563D01*
X58566Y141447D01*
X58574Y141442D01*
X58585Y141436D01*
X58612Y141420D01*
X58645Y141398D01*
X58683Y141373D01*
X58722Y141341D01*
X58760Y141305D01*
X58795Y141264D01*
X58798Y141259D01*
X58809Y141245D01*
X58823Y141220D01*
X58842Y141188D01*
X58861Y141149D01*
X58883Y141103D01*
X58902Y141049D01*
X58918Y140989D01*
Y140986D01*
X58921Y140980D01*
Y140972D01*
X58924Y140958D01*
X58926Y140942D01*
X58932Y140923D01*
X58934Y140901D01*
X58937Y140876D01*
X58943Y140849D01*
X58945Y140816D01*
X58954Y140748D01*
X58956Y140669D01*
X58959Y140582D01*
Y139623D01*
X56439D01*
Y140614D01*
X56442Y140639D01*
Y140669D01*
X56445Y140699D01*
X56450Y140735D01*
X56458Y140806D01*
X56472Y140885D01*
X56491Y140958D01*
X56519Y141029D01*
Y141032D01*
X56521Y141038D01*
X56527Y141046D01*
X56532Y141060D01*
X56551Y141089D01*
X56576Y141130D01*
X56609Y141174D01*
X56650Y141218D01*
X56699Y141261D01*
X56753Y141302D01*
X56756D01*
X56761Y141308D01*
X56770Y141311D01*
X56781Y141319D01*
X56794Y141327D01*
X56813Y141335D01*
X56854Y141354D01*
X56903Y141371D01*
X56961Y141387D01*
X57021Y141398D01*
X57086Y141403D01*
X57089D01*
X57095D01*
X57103D01*
X57114D01*
X57144Y141398D01*
X57185Y141393D01*
X57231Y141382D01*
X57283Y141365D01*
X57335Y141343D01*
X57389Y141313D01*
X57392D01*
X57395Y141311D01*
X57403Y141305D01*
X57414Y141297D01*
X57438Y141278D01*
X57471Y141248D01*
X57507Y141212D01*
X57545Y141166D01*
X57583Y141114D01*
X57619Y141051D01*
Y141054D01*
X57621Y141062D01*
X57627Y141073D01*
X57632Y141089D01*
X57640Y141109D01*
X57649Y141130D01*
X57673Y141180D01*
X57703Y141237D01*
X57744Y141294D01*
X57791Y141352D01*
X57848Y141401D01*
X57851Y141403D01*
X57856Y141406D01*
X57864Y141412D01*
X57875Y141420D01*
X57892Y141431D01*
X57911Y141442D01*
X57933Y141453D01*
X57957Y141463D01*
X58012Y141485D01*
X58077Y141507D01*
X58151Y141521D01*
X58189Y141526D01*
X58230D01*
X58233D01*
X58238D01*
X58247D01*
X58260D01*
X58277Y141524D01*
D02*
G37*
G36*
X58178Y139222D02*
X58197Y139217D01*
X58227Y139206D01*
X58260Y139195D01*
X58301Y139179D01*
X58345Y139162D01*
X58391Y139140D01*
X58443Y139116D01*
X58492Y139088D01*
X58547Y139058D01*
X58599Y139023D01*
X58648Y138985D01*
X58697Y138944D01*
X58743Y138897D01*
X58787Y138848D01*
X58790Y138845D01*
X58795Y138835D01*
X58806Y138821D01*
X58820Y138799D01*
X58836Y138775D01*
X58855Y138742D01*
X58874Y138706D01*
X58894Y138663D01*
X58913Y138616D01*
X58932Y138567D01*
X58951Y138512D01*
X58967Y138452D01*
X58981Y138390D01*
X58992Y138324D01*
X58997Y138256D01*
X59000Y138182D01*
Y138144D01*
X58997Y138114D01*
X58995Y138081D01*
X58992Y138040D01*
X58986Y137996D01*
X58978Y137947D01*
X58970Y137895D01*
X58959Y137841D01*
X58945Y137786D01*
X58932Y137732D01*
X58913Y137674D01*
X58891Y137620D01*
X58866Y137568D01*
X58836Y137519D01*
X58833Y137516D01*
X58828Y137508D01*
X58820Y137494D01*
X58806Y137478D01*
X58787Y137456D01*
X58768Y137431D01*
X58743Y137404D01*
X58713Y137374D01*
X58681Y137344D01*
X58645Y137311D01*
X58607Y137281D01*
X58563Y137248D01*
X58517Y137216D01*
X58468Y137186D01*
X58413Y137158D01*
X58356Y137131D01*
X58353Y137128D01*
X58342Y137126D01*
X58323Y137120D01*
X58301Y137112D01*
X58271Y137101D01*
X58238Y137090D01*
X58197Y137079D01*
X58154Y137065D01*
X58105Y137055D01*
X58053Y137041D01*
X57998Y137030D01*
X57938Y137022D01*
X57812Y137005D01*
X57747Y137003D01*
X57681Y137000D01*
X57676D01*
X57665D01*
X57643D01*
X57616Y137003D01*
X57580Y137005D01*
X57539Y137008D01*
X57496Y137014D01*
X57447Y137019D01*
X57395Y137027D01*
X57340Y137035D01*
X57223Y137063D01*
X57165Y137082D01*
X57108Y137101D01*
X57048Y137123D01*
X56994Y137150D01*
X56991Y137153D01*
X56980Y137158D01*
X56966Y137167D01*
X56944Y137177D01*
X56920Y137194D01*
X56893Y137213D01*
X56862Y137235D01*
X56827Y137259D01*
X56794Y137289D01*
X56756Y137319D01*
X56721Y137355D01*
X56682Y137393D01*
X56647Y137434D01*
X56611Y137478D01*
X56578Y137527D01*
X56549Y137576D01*
X56546Y137579D01*
X56543Y137590D01*
X56535Y137603D01*
X56524Y137625D01*
X56513Y137650D01*
X56499Y137682D01*
X56486Y137718D01*
X56472Y137756D01*
X56458Y137800D01*
X56445Y137849D01*
X56431Y137898D01*
X56420Y137953D01*
X56401Y138065D01*
X56398Y138125D01*
X56396Y138188D01*
Y138223D01*
X56398Y138250D01*
X56401Y138283D01*
X56406Y138321D01*
X56412Y138362D01*
X56420Y138409D01*
X56431Y138458D01*
X56442Y138510D01*
X56458Y138561D01*
X56477Y138616D01*
X56499Y138671D01*
X56527Y138723D01*
X56554Y138775D01*
X56589Y138824D01*
X56592Y138826D01*
X56598Y138835D01*
X56609Y138848D01*
X56625Y138865D01*
X56644Y138886D01*
X56669Y138911D01*
X56696Y138935D01*
X56729Y138966D01*
X56764Y138996D01*
X56805Y139026D01*
X56849Y139056D01*
X56898Y139083D01*
X56950Y139113D01*
X57007Y139137D01*
X57067Y139162D01*
X57130Y139184D01*
X57206Y138856D01*
X57204D01*
X57196Y138851D01*
X57179Y138848D01*
X57160Y138840D01*
X57138Y138832D01*
X57114Y138818D01*
X57054Y138791D01*
X56988Y138755D01*
X56920Y138709D01*
X56857Y138660D01*
X56830Y138630D01*
X56805Y138600D01*
X56802Y138597D01*
X56800Y138592D01*
X56794Y138583D01*
X56786Y138570D01*
X56775Y138553D01*
X56764Y138534D01*
X56753Y138512D01*
X56742Y138485D01*
X56731Y138455D01*
X56721Y138425D01*
X56699Y138354D01*
X56685Y138272D01*
X56679Y138228D01*
Y138155D01*
X56682Y138133D01*
X56685Y138108D01*
X56688Y138078D01*
X56691Y138046D01*
X56696Y138013D01*
X56715Y137934D01*
X56740Y137852D01*
X56756Y137811D01*
X56775Y137770D01*
X56797Y137732D01*
X56822Y137693D01*
X56824Y137691D01*
X56827Y137685D01*
X56835Y137674D01*
X56846Y137661D01*
X56860Y137647D01*
X56879Y137628D01*
X56898Y137609D01*
X56920Y137587D01*
X56947Y137565D01*
X56974Y137540D01*
X57037Y137497D01*
X57111Y137456D01*
X57196Y137420D01*
X57198D01*
X57206Y137418D01*
X57220Y137412D01*
X57236Y137409D01*
X57258Y137404D01*
X57283Y137396D01*
X57313Y137390D01*
X57343Y137382D01*
X57378Y137374D01*
X57417Y137369D01*
X57499Y137355D01*
X57586Y137347D01*
X57679Y137344D01*
X57681D01*
X57692D01*
X57709D01*
X57733Y137347D01*
X57761D01*
X57793Y137349D01*
X57829Y137352D01*
X57870Y137355D01*
X57914Y137360D01*
X57957Y137366D01*
X58053Y137382D01*
X58148Y137407D01*
X58241Y137437D01*
X58244D01*
X58252Y137442D01*
X58263Y137448D01*
X58279Y137453D01*
X58301Y137464D01*
X58323Y137478D01*
X58375Y137508D01*
X58435Y137549D01*
X58492Y137598D01*
X58550Y137658D01*
X58574Y137691D01*
X58599Y137726D01*
Y137729D01*
X58604Y137734D01*
X58610Y137745D01*
X58618Y137762D01*
X58626Y137781D01*
X58637Y137803D01*
X58645Y137827D01*
X58656Y137854D01*
X58678Y137917D01*
X58697Y137991D01*
X58711Y138070D01*
X58713Y138111D01*
X58716Y138155D01*
Y138182D01*
X58713Y138201D01*
X58711Y138226D01*
X58708Y138253D01*
X58702Y138286D01*
X58697Y138319D01*
X58678Y138395D01*
X58664Y138433D01*
X58648Y138474D01*
X58629Y138515D01*
X58607Y138553D01*
X58582Y138592D01*
X58555Y138630D01*
X58552Y138633D01*
X58547Y138638D01*
X58539Y138649D01*
X58525Y138663D01*
X58509Y138676D01*
X58487Y138695D01*
X58462Y138714D01*
X58435Y138736D01*
X58402Y138758D01*
X58367Y138780D01*
X58328Y138802D01*
X58285Y138824D01*
X58238Y138843D01*
X58187Y138862D01*
X58132Y138881D01*
X58075Y138895D01*
X58159Y139228D01*
X58165D01*
X58178Y139222D01*
D02*
G37*
G36*
X80542Y76997D02*
X80577Y76995D01*
X80618Y76992D01*
X80662Y76986D01*
X80711Y76981D01*
X80763Y76973D01*
X80818Y76965D01*
X80935Y76937D01*
X80992Y76918D01*
X81050Y76899D01*
X81110Y76877D01*
X81164Y76850D01*
X81167Y76847D01*
X81178Y76842D01*
X81192Y76833D01*
X81214Y76823D01*
X81238Y76806D01*
X81265Y76787D01*
X81296Y76765D01*
X81331Y76741D01*
X81364Y76711D01*
X81402Y76681D01*
X81437Y76645D01*
X81476Y76607D01*
X81511Y76566D01*
X81547Y76522D01*
X81579Y76473D01*
X81609Y76424D01*
X81612Y76421D01*
X81615Y76410D01*
X81623Y76397D01*
X81634Y76375D01*
X81645Y76350D01*
X81659Y76318D01*
X81672Y76282D01*
X81686Y76244D01*
X81700Y76200D01*
X81713Y76151D01*
X81727Y76102D01*
X81738Y76047D01*
X81757Y75935D01*
X81760Y75875D01*
X81762Y75813D01*
Y75777D01*
X81760Y75750D01*
X81757Y75717D01*
X81751Y75679D01*
X81746Y75638D01*
X81738Y75591D01*
X81727Y75542D01*
X81716Y75490D01*
X81700Y75438D01*
X81680Y75384D01*
X81659Y75329D01*
X81631Y75277D01*
X81604Y75226D01*
X81568Y75176D01*
X81566Y75174D01*
X81560Y75165D01*
X81549Y75152D01*
X81533Y75135D01*
X81514Y75114D01*
X81489Y75089D01*
X81462Y75064D01*
X81429Y75034D01*
X81394Y75004D01*
X81353Y74974D01*
X81309Y74944D01*
X81260Y74917D01*
X81208Y74887D01*
X81151Y74862D01*
X81091Y74838D01*
X81028Y74816D01*
X80951Y75144D01*
X80954D01*
X80962Y75149D01*
X80979Y75152D01*
X80998Y75160D01*
X81020Y75168D01*
X81044Y75182D01*
X81104Y75209D01*
X81170Y75245D01*
X81238Y75291D01*
X81301Y75340D01*
X81328Y75370D01*
X81353Y75400D01*
X81356Y75403D01*
X81358Y75409D01*
X81364Y75417D01*
X81372Y75430D01*
X81383Y75447D01*
X81394Y75466D01*
X81405Y75488D01*
X81416Y75515D01*
X81427Y75545D01*
X81437Y75575D01*
X81459Y75646D01*
X81473Y75728D01*
X81478Y75772D01*
Y75845D01*
X81476Y75867D01*
X81473Y75892D01*
X81470Y75922D01*
X81467Y75955D01*
X81462Y75987D01*
X81443Y76066D01*
X81418Y76148D01*
X81402Y76189D01*
X81383Y76230D01*
X81361Y76268D01*
X81336Y76307D01*
X81334Y76309D01*
X81331Y76315D01*
X81323Y76326D01*
X81312Y76339D01*
X81298Y76353D01*
X81279Y76372D01*
X81260Y76391D01*
X81238Y76413D01*
X81211Y76435D01*
X81183Y76459D01*
X81121Y76503D01*
X81047Y76544D01*
X80962Y76580D01*
X80960D01*
X80951Y76582D01*
X80938Y76588D01*
X80922Y76591D01*
X80900Y76596D01*
X80875Y76604D01*
X80845Y76610D01*
X80815Y76618D01*
X80779Y76626D01*
X80741Y76631D01*
X80659Y76645D01*
X80572Y76653D01*
X80479Y76656D01*
X80476D01*
X80466D01*
X80449D01*
X80425Y76653D01*
X80397D01*
X80365Y76651D01*
X80329Y76648D01*
X80288Y76645D01*
X80244Y76640D01*
X80201Y76634D01*
X80105Y76618D01*
X80010Y76593D01*
X79917Y76563D01*
X79914D01*
X79906Y76558D01*
X79895Y76552D01*
X79879Y76547D01*
X79857Y76536D01*
X79835Y76522D01*
X79783Y76492D01*
X79723Y76451D01*
X79666Y76402D01*
X79608Y76342D01*
X79584Y76309D01*
X79559Y76274D01*
Y76271D01*
X79554Y76266D01*
X79548Y76255D01*
X79540Y76238D01*
X79532Y76219D01*
X79521Y76197D01*
X79513Y76173D01*
X79502Y76146D01*
X79480Y76083D01*
X79461Y76009D01*
X79447Y75930D01*
X79444Y75889D01*
X79442Y75845D01*
Y75818D01*
X79444Y75799D01*
X79447Y75774D01*
X79450Y75747D01*
X79455Y75714D01*
X79461Y75682D01*
X79480Y75605D01*
X79494Y75567D01*
X79510Y75526D01*
X79529Y75485D01*
X79551Y75447D01*
X79576Y75409D01*
X79603Y75370D01*
X79606Y75367D01*
X79611Y75362D01*
X79619Y75351D01*
X79633Y75337D01*
X79649Y75324D01*
X79671Y75305D01*
X79696Y75286D01*
X79723Y75264D01*
X79756Y75242D01*
X79791Y75220D01*
X79830Y75198D01*
X79873Y75176D01*
X79920Y75157D01*
X79971Y75138D01*
X80026Y75119D01*
X80083Y75105D01*
X79999Y74772D01*
X79993D01*
X79980Y74778D01*
X79961Y74783D01*
X79931Y74794D01*
X79898Y74805D01*
X79857Y74822D01*
X79813Y74838D01*
X79767Y74860D01*
X79715Y74884D01*
X79666Y74912D01*
X79611Y74942D01*
X79559Y74977D01*
X79510Y75015D01*
X79461Y75056D01*
X79414Y75103D01*
X79371Y75152D01*
X79368Y75155D01*
X79363Y75165D01*
X79352Y75179D01*
X79338Y75201D01*
X79322Y75226D01*
X79303Y75258D01*
X79283Y75294D01*
X79264Y75337D01*
X79245Y75384D01*
X79226Y75433D01*
X79207Y75488D01*
X79191Y75548D01*
X79177Y75611D01*
X79166Y75676D01*
X79161Y75744D01*
X79158Y75818D01*
Y75856D01*
X79161Y75886D01*
X79163Y75919D01*
X79166Y75960D01*
X79172Y76004D01*
X79180Y76053D01*
X79188Y76105D01*
X79199Y76159D01*
X79212Y76214D01*
X79226Y76268D01*
X79245Y76326D01*
X79267Y76380D01*
X79292Y76432D01*
X79322Y76481D01*
X79324Y76484D01*
X79330Y76492D01*
X79338Y76506D01*
X79352Y76522D01*
X79371Y76544D01*
X79390Y76569D01*
X79414Y76596D01*
X79444Y76626D01*
X79477Y76656D01*
X79513Y76689D01*
X79551Y76719D01*
X79595Y76752D01*
X79641Y76784D01*
X79690Y76814D01*
X79745Y76842D01*
X79802Y76869D01*
X79805Y76872D01*
X79816Y76875D01*
X79835Y76880D01*
X79857Y76888D01*
X79887Y76899D01*
X79920Y76910D01*
X79961Y76921D01*
X80004Y76934D01*
X80053Y76946D01*
X80105Y76959D01*
X80160Y76970D01*
X80220Y76978D01*
X80345Y76995D01*
X80411Y76997D01*
X80476Y77000D01*
X80482D01*
X80493D01*
X80515D01*
X80542Y76997D01*
D02*
G37*
G36*
X78724Y72637D02*
X78500D01*
Y74688D01*
X78724D01*
Y72637D01*
D02*
G37*
G36*
X81719Y71917D02*
X79933Y71319D01*
X79931D01*
X79922Y71316D01*
X79909Y71311D01*
X79892Y71305D01*
X79873Y71300D01*
X79849Y71292D01*
X79794Y71272D01*
X79734Y71253D01*
X79671Y71234D01*
X79614Y71215D01*
X79586Y71207D01*
X79562Y71199D01*
X79565D01*
X79567Y71196D01*
X79576Y71193D01*
X79586Y71191D01*
X79603Y71185D01*
X79619Y71180D01*
X79641Y71174D01*
X79663Y71166D01*
X79690Y71158D01*
X79720Y71147D01*
X79753Y71136D01*
X79791Y71125D01*
X79830Y71111D01*
X79873Y71098D01*
X79917Y71081D01*
X79966Y71065D01*
X81719Y70459D01*
Y70008D01*
X79199D01*
Y70331D01*
X81309D01*
X79199Y71068D01*
Y71368D01*
X81345Y72094D01*
X79199D01*
Y72416D01*
X81719D01*
Y71917D01*
D02*
G37*
G36*
Y68783D02*
Y68422D01*
X79199Y67390D01*
Y67770D01*
X79961Y68062D01*
Y69121D01*
X79199Y69394D01*
Y69746D01*
X81719Y68783D01*
D02*
G37*
G36*
Y66735D02*
X79199D01*
Y67068D01*
X81719D01*
Y66735D01*
D02*
G37*
G36*
Y65810D02*
X79739Y64486D01*
X81719D01*
Y64166D01*
X79199D01*
Y64510D01*
X81175Y65832D01*
X79199D01*
Y66151D01*
X81719D01*
Y65810D01*
D02*
G37*
G36*
X79906Y63421D02*
X79903D01*
X79895Y63418D01*
X79881Y63416D01*
X79862Y63410D01*
X79840Y63405D01*
X79816Y63399D01*
X79759Y63380D01*
X79696Y63355D01*
X79633Y63326D01*
X79576Y63287D01*
X79551Y63265D01*
X79526Y63244D01*
Y63241D01*
X79521Y63238D01*
X79515Y63230D01*
X79507Y63222D01*
X79491Y63194D01*
X79469Y63156D01*
X79447Y63110D01*
X79431Y63058D01*
X79417Y62995D01*
X79412Y62930D01*
Y62908D01*
X79414Y62891D01*
X79417Y62875D01*
X79420Y62850D01*
X79431Y62801D01*
X79447Y62741D01*
X79475Y62678D01*
X79494Y62648D01*
X79513Y62618D01*
X79535Y62588D01*
X79562Y62558D01*
X79565Y62556D01*
X79570Y62553D01*
X79578Y62545D01*
X79589Y62534D01*
X79603Y62523D01*
X79622Y62512D01*
X79641Y62498D01*
X79666Y62482D01*
X79720Y62455D01*
X79783Y62433D01*
X79857Y62414D01*
X79895Y62411D01*
X79936Y62408D01*
X79939D01*
X79944D01*
X79958D01*
X79971Y62411D01*
X79991Y62414D01*
X80010Y62416D01*
X80059Y62425D01*
X80116Y62444D01*
X80173Y62468D01*
X80203Y62485D01*
X80231Y62504D01*
X80258Y62526D01*
X80285Y62550D01*
X80288Y62553D01*
X80291Y62556D01*
X80299Y62564D01*
X80307Y62575D01*
X80318Y62588D01*
X80329Y62605D01*
X80356Y62646D01*
X80381Y62698D01*
X80403Y62758D01*
X80419Y62826D01*
X80422Y62864D01*
X80425Y62902D01*
Y62919D01*
X80422Y62938D01*
Y62962D01*
X80416Y62995D01*
X80411Y63031D01*
X80403Y63074D01*
X80392Y63121D01*
X80662Y63088D01*
Y63082D01*
X80659Y63069D01*
X80657Y63052D01*
Y63017D01*
X80659Y63003D01*
Y62984D01*
X80662Y62965D01*
X80670Y62919D01*
X80681Y62864D01*
X80700Y62804D01*
X80725Y62741D01*
X80760Y62681D01*
Y62678D01*
X80766Y62673D01*
X80771Y62668D01*
X80779Y62657D01*
X80804Y62629D01*
X80840Y62599D01*
X80883Y62572D01*
X80938Y62545D01*
X80968Y62534D01*
X81003Y62528D01*
X81039Y62523D01*
X81077Y62520D01*
X81080D01*
X81085D01*
X81093D01*
X81107Y62523D01*
X81137Y62526D01*
X81178Y62534D01*
X81222Y62547D01*
X81268Y62569D01*
X81317Y62599D01*
X81339Y62616D01*
X81361Y62638D01*
X81366Y62643D01*
X81377Y62659D01*
X81397Y62684D01*
X81418Y62717D01*
X81437Y62760D01*
X81457Y62812D01*
X81467Y62870D01*
X81473Y62935D01*
Y62951D01*
X81470Y62965D01*
Y62981D01*
X81467Y62998D01*
X81459Y63042D01*
X81446Y63088D01*
X81424Y63140D01*
X81397Y63189D01*
X81358Y63238D01*
X81353Y63244D01*
X81336Y63257D01*
X81312Y63279D01*
X81274Y63301D01*
X81227Y63328D01*
X81167Y63353D01*
X81099Y63375D01*
X81020Y63391D01*
X81074Y63700D01*
X81077D01*
X81088Y63697D01*
X81104Y63694D01*
X81126Y63689D01*
X81151Y63680D01*
X81181Y63672D01*
X81214Y63661D01*
X81249Y63648D01*
X81328Y63612D01*
X81366Y63593D01*
X81407Y63568D01*
X81446Y63541D01*
X81484Y63511D01*
X81522Y63478D01*
X81555Y63443D01*
X81558Y63440D01*
X81563Y63435D01*
X81571Y63421D01*
X81582Y63407D01*
X81596Y63385D01*
X81609Y63364D01*
X81626Y63336D01*
X81642Y63304D01*
X81656Y63271D01*
X81672Y63233D01*
X81686Y63192D01*
X81700Y63148D01*
X81710Y63099D01*
X81719Y63050D01*
X81724Y62998D01*
X81727Y62943D01*
Y62908D01*
X81724Y62889D01*
X81721Y62870D01*
X81716Y62818D01*
X81705Y62760D01*
X81689Y62695D01*
X81667Y62629D01*
X81637Y62564D01*
Y62561D01*
X81634Y62556D01*
X81629Y62547D01*
X81620Y62534D01*
X81601Y62504D01*
X81574Y62466D01*
X81538Y62422D01*
X81498Y62378D01*
X81451Y62335D01*
X81397Y62296D01*
X81394D01*
X81391Y62293D01*
X81380Y62288D01*
X81369Y62283D01*
X81356Y62274D01*
X81339Y62266D01*
X81298Y62250D01*
X81249Y62234D01*
X81195Y62217D01*
X81134Y62206D01*
X81072Y62203D01*
X81069D01*
X81063D01*
X81055D01*
X81044D01*
X81011Y62209D01*
X80973Y62214D01*
X80927Y62225D01*
X80878Y62242D01*
X80826Y62264D01*
X80774Y62293D01*
X80771D01*
X80769Y62296D01*
X80752Y62310D01*
X80728Y62329D01*
X80698Y62359D01*
X80662Y62395D01*
X80627Y62441D01*
X80594Y62493D01*
X80561Y62553D01*
Y62550D01*
X80558Y62542D01*
X80556Y62531D01*
X80550Y62515D01*
X80545Y62498D01*
X80537Y62476D01*
X80515Y62425D01*
X80485Y62370D01*
X80449Y62313D01*
X80403Y62255D01*
X80345Y62206D01*
X80343Y62203D01*
X80337Y62201D01*
X80329Y62195D01*
X80315Y62187D01*
X80302Y62176D01*
X80283Y62165D01*
X80261Y62154D01*
X80234Y62143D01*
X80206Y62133D01*
X80176Y62122D01*
X80108Y62100D01*
X80029Y62086D01*
X79985Y62081D01*
X79941D01*
X79939D01*
X79928D01*
X79909Y62083D01*
X79887D01*
X79857Y62089D01*
X79824Y62094D01*
X79789Y62100D01*
X79748Y62111D01*
X79704Y62124D01*
X79660Y62141D01*
X79614Y62160D01*
X79567Y62184D01*
X79518Y62212D01*
X79472Y62244D01*
X79425Y62280D01*
X79382Y62324D01*
X79379Y62326D01*
X79371Y62335D01*
X79360Y62348D01*
X79346Y62367D01*
X79330Y62389D01*
X79311Y62419D01*
X79289Y62452D01*
X79270Y62490D01*
X79248Y62531D01*
X79226Y62577D01*
X79207Y62627D01*
X79191Y62681D01*
X79177Y62739D01*
X79166Y62799D01*
X79158Y62861D01*
X79155Y62930D01*
Y62943D01*
X79158Y62962D01*
Y62984D01*
X79161Y63014D01*
X79166Y63047D01*
X79172Y63082D01*
X79180Y63124D01*
X79191Y63167D01*
X79204Y63211D01*
X79218Y63257D01*
X79237Y63304D01*
X79262Y63350D01*
X79286Y63394D01*
X79316Y63440D01*
X79352Y63481D01*
X79354Y63484D01*
X79360Y63489D01*
X79371Y63500D01*
X79387Y63517D01*
X79406Y63533D01*
X79431Y63552D01*
X79458Y63571D01*
X79491Y63593D01*
X79524Y63615D01*
X79565Y63637D01*
X79606Y63658D01*
X79652Y63678D01*
X79701Y63694D01*
X79753Y63710D01*
X79808Y63721D01*
X79865Y63730D01*
X79906Y63421D01*
D02*
G37*
G36*
X55042Y76997D02*
X55077Y76995D01*
X55118Y76992D01*
X55162Y76986D01*
X55211Y76981D01*
X55263Y76973D01*
X55318Y76965D01*
X55435Y76937D01*
X55492Y76918D01*
X55550Y76899D01*
X55610Y76877D01*
X55664Y76850D01*
X55667Y76847D01*
X55678Y76842D01*
X55692Y76833D01*
X55714Y76823D01*
X55738Y76806D01*
X55765Y76787D01*
X55796Y76765D01*
X55831Y76741D01*
X55864Y76711D01*
X55902Y76681D01*
X55937Y76645D01*
X55976Y76607D01*
X56011Y76566D01*
X56047Y76522D01*
X56079Y76473D01*
X56109Y76424D01*
X56112Y76421D01*
X56115Y76410D01*
X56123Y76397D01*
X56134Y76375D01*
X56145Y76350D01*
X56159Y76318D01*
X56172Y76282D01*
X56186Y76244D01*
X56200Y76200D01*
X56213Y76151D01*
X56227Y76102D01*
X56238Y76047D01*
X56257Y75935D01*
X56260Y75875D01*
X56262Y75813D01*
Y75777D01*
X56260Y75750D01*
X56257Y75717D01*
X56251Y75679D01*
X56246Y75638D01*
X56238Y75591D01*
X56227Y75542D01*
X56216Y75490D01*
X56200Y75438D01*
X56180Y75384D01*
X56159Y75329D01*
X56131Y75277D01*
X56104Y75226D01*
X56068Y75176D01*
X56066Y75174D01*
X56060Y75165D01*
X56049Y75152D01*
X56033Y75135D01*
X56014Y75114D01*
X55989Y75089D01*
X55962Y75064D01*
X55929Y75034D01*
X55894Y75004D01*
X55853Y74974D01*
X55809Y74944D01*
X55760Y74917D01*
X55708Y74887D01*
X55651Y74862D01*
X55591Y74838D01*
X55528Y74816D01*
X55452Y75144D01*
X55454D01*
X55462Y75149D01*
X55479Y75152D01*
X55498Y75160D01*
X55520Y75168D01*
X55544Y75182D01*
X55604Y75209D01*
X55670Y75245D01*
X55738Y75291D01*
X55801Y75340D01*
X55828Y75370D01*
X55853Y75400D01*
X55856Y75403D01*
X55858Y75409D01*
X55864Y75417D01*
X55872Y75430D01*
X55883Y75447D01*
X55894Y75466D01*
X55905Y75488D01*
X55916Y75515D01*
X55927Y75545D01*
X55937Y75575D01*
X55959Y75646D01*
X55973Y75728D01*
X55978Y75772D01*
Y75845D01*
X55976Y75867D01*
X55973Y75892D01*
X55970Y75922D01*
X55967Y75955D01*
X55962Y75987D01*
X55943Y76066D01*
X55918Y76148D01*
X55902Y76189D01*
X55883Y76230D01*
X55861Y76268D01*
X55836Y76307D01*
X55834Y76309D01*
X55831Y76315D01*
X55823Y76326D01*
X55812Y76339D01*
X55798Y76353D01*
X55779Y76372D01*
X55760Y76391D01*
X55738Y76413D01*
X55711Y76435D01*
X55684Y76459D01*
X55621Y76503D01*
X55547Y76544D01*
X55462Y76580D01*
X55460D01*
X55452Y76582D01*
X55438Y76588D01*
X55422Y76591D01*
X55400Y76596D01*
X55375Y76604D01*
X55345Y76610D01*
X55315Y76618D01*
X55279Y76626D01*
X55241Y76631D01*
X55159Y76645D01*
X55072Y76653D01*
X54979Y76656D01*
X54976D01*
X54966D01*
X54949D01*
X54925Y76653D01*
X54897D01*
X54865Y76651D01*
X54829Y76648D01*
X54788Y76645D01*
X54744Y76640D01*
X54701Y76634D01*
X54605Y76618D01*
X54510Y76593D01*
X54417Y76563D01*
X54414D01*
X54406Y76558D01*
X54395Y76552D01*
X54379Y76547D01*
X54357Y76536D01*
X54335Y76522D01*
X54283Y76492D01*
X54223Y76451D01*
X54166Y76402D01*
X54108Y76342D01*
X54084Y76309D01*
X54059Y76274D01*
Y76271D01*
X54054Y76266D01*
X54048Y76255D01*
X54040Y76238D01*
X54032Y76219D01*
X54021Y76197D01*
X54013Y76173D01*
X54002Y76146D01*
X53980Y76083D01*
X53961Y76009D01*
X53947Y75930D01*
X53944Y75889D01*
X53942Y75845D01*
Y75818D01*
X53944Y75799D01*
X53947Y75774D01*
X53950Y75747D01*
X53956Y75714D01*
X53961Y75682D01*
X53980Y75605D01*
X53994Y75567D01*
X54010Y75526D01*
X54029Y75485D01*
X54051Y75447D01*
X54076Y75409D01*
X54103Y75370D01*
X54106Y75367D01*
X54111Y75362D01*
X54119Y75351D01*
X54133Y75337D01*
X54149Y75324D01*
X54171Y75305D01*
X54196Y75286D01*
X54223Y75264D01*
X54256Y75242D01*
X54291Y75220D01*
X54330Y75198D01*
X54373Y75176D01*
X54420Y75157D01*
X54471Y75138D01*
X54526Y75119D01*
X54583Y75105D01*
X54499Y74772D01*
X54493D01*
X54480Y74778D01*
X54461Y74783D01*
X54431Y74794D01*
X54398Y74805D01*
X54357Y74822D01*
X54313Y74838D01*
X54267Y74860D01*
X54215Y74884D01*
X54166Y74912D01*
X54111Y74942D01*
X54059Y74977D01*
X54010Y75015D01*
X53961Y75056D01*
X53914Y75103D01*
X53871Y75152D01*
X53868Y75155D01*
X53863Y75165D01*
X53852Y75179D01*
X53838Y75201D01*
X53822Y75226D01*
X53803Y75258D01*
X53784Y75294D01*
X53764Y75337D01*
X53745Y75384D01*
X53726Y75433D01*
X53707Y75488D01*
X53691Y75548D01*
X53677Y75611D01*
X53666Y75676D01*
X53661Y75744D01*
X53658Y75818D01*
Y75856D01*
X53661Y75886D01*
X53663Y75919D01*
X53666Y75960D01*
X53671Y76004D01*
X53680Y76053D01*
X53688Y76105D01*
X53699Y76159D01*
X53712Y76214D01*
X53726Y76268D01*
X53745Y76326D01*
X53767Y76380D01*
X53792Y76432D01*
X53822Y76481D01*
X53824Y76484D01*
X53830Y76492D01*
X53838Y76506D01*
X53852Y76522D01*
X53871Y76544D01*
X53890Y76569D01*
X53914Y76596D01*
X53944Y76626D01*
X53977Y76656D01*
X54013Y76689D01*
X54051Y76719D01*
X54095Y76752D01*
X54141Y76784D01*
X54190Y76814D01*
X54245Y76842D01*
X54302Y76869D01*
X54305Y76872D01*
X54316Y76875D01*
X54335Y76880D01*
X54357Y76888D01*
X54387Y76899D01*
X54420Y76910D01*
X54461Y76921D01*
X54504Y76934D01*
X54553Y76946D01*
X54605Y76959D01*
X54660Y76970D01*
X54720Y76978D01*
X54845Y76995D01*
X54911Y76997D01*
X54976Y77000D01*
X54982D01*
X54993D01*
X55015D01*
X55042Y76997D01*
D02*
G37*
G36*
X53224Y72637D02*
X53000D01*
Y74688D01*
X53224D01*
Y72637D01*
D02*
G37*
G36*
X56219Y71917D02*
X54433Y71319D01*
X54431D01*
X54422Y71316D01*
X54409Y71311D01*
X54392Y71305D01*
X54373Y71300D01*
X54349Y71292D01*
X54294Y71272D01*
X54234Y71253D01*
X54171Y71234D01*
X54114Y71215D01*
X54087Y71207D01*
X54062Y71199D01*
X54065D01*
X54067Y71196D01*
X54076Y71193D01*
X54087Y71191D01*
X54103Y71185D01*
X54119Y71180D01*
X54141Y71174D01*
X54163Y71166D01*
X54190Y71158D01*
X54220Y71147D01*
X54253Y71136D01*
X54291Y71125D01*
X54330Y71111D01*
X54373Y71098D01*
X54417Y71081D01*
X54466Y71065D01*
X56219Y70459D01*
Y70008D01*
X53699D01*
Y70331D01*
X55809D01*
X53699Y71068D01*
Y71368D01*
X55845Y72094D01*
X53699D01*
Y72416D01*
X56219D01*
Y71917D01*
D02*
G37*
G36*
Y68783D02*
Y68422D01*
X53699Y67390D01*
Y67770D01*
X54461Y68062D01*
Y69121D01*
X53699Y69394D01*
Y69746D01*
X56219Y68783D01*
D02*
G37*
G36*
Y66735D02*
X53699D01*
Y67068D01*
X56219D01*
Y66735D01*
D02*
G37*
G36*
Y65810D02*
X54239Y64486D01*
X56219D01*
Y64166D01*
X53699D01*
Y64510D01*
X55675Y65832D01*
X53699D01*
Y66151D01*
X56219D01*
Y65810D01*
D02*
G37*
G36*
X55596Y63492D02*
X55599Y63484D01*
X55607Y63470D01*
X55615Y63451D01*
X55626Y63429D01*
X55643Y63402D01*
X55659Y63372D01*
X55675Y63342D01*
X55719Y63271D01*
X55771Y63194D01*
X55826Y63115D01*
X55888Y63042D01*
X55891Y63039D01*
X55897Y63033D01*
X55905Y63023D01*
X55918Y63009D01*
X55935Y62995D01*
X55951Y62976D01*
X55998Y62935D01*
X56047Y62889D01*
X56104Y62842D01*
X56164Y62801D01*
X56227Y62766D01*
Y62567D01*
X53699D01*
Y62875D01*
X55667D01*
X55662Y62880D01*
X55648Y62894D01*
X55629Y62919D01*
X55602Y62954D01*
X55569Y62995D01*
X55533Y63047D01*
X55495Y63104D01*
X55454Y63170D01*
Y63173D01*
X55449Y63178D01*
X55443Y63186D01*
X55438Y63200D01*
X55427Y63216D01*
X55419Y63235D01*
X55394Y63279D01*
X55370Y63328D01*
X55342Y63383D01*
X55318Y63440D01*
X55296Y63495D01*
X55594D01*
X55596Y63492D01*
D02*
G37*
G36*
X120808Y87042D02*
Y87028D01*
Y87006D01*
X120806Y86979D01*
X120803Y86946D01*
X120795Y86911D01*
X120786Y86873D01*
X120773Y86834D01*
Y86832D01*
X120770Y86826D01*
X120767Y86818D01*
X120762Y86804D01*
X120754Y86791D01*
X120745Y86772D01*
X120724Y86728D01*
X120696Y86676D01*
X120661Y86619D01*
X120620Y86559D01*
X120571Y86499D01*
X120568Y86496D01*
X120565Y86490D01*
X120557Y86482D01*
X120543Y86468D01*
X120530Y86455D01*
X120511Y86436D01*
X120492Y86414D01*
X120467Y86389D01*
X120440Y86362D01*
X120410Y86335D01*
X120377Y86302D01*
X120339Y86269D01*
X120300Y86234D01*
X120257Y86198D01*
X120213Y86160D01*
X120164Y86119D01*
X120159Y86116D01*
X120145Y86103D01*
X120126Y86086D01*
X120098Y86062D01*
X120066Y86035D01*
X120027Y86002D01*
X119984Y85966D01*
X119940Y85925D01*
X119847Y85841D01*
X119757Y85751D01*
X119713Y85707D01*
X119673Y85663D01*
X119637Y85622D01*
X119607Y85584D01*
X119604Y85581D01*
X119602Y85576D01*
X119593Y85565D01*
X119585Y85551D01*
X119571Y85532D01*
X119561Y85513D01*
X119533Y85464D01*
X119506Y85407D01*
X119481Y85344D01*
X119465Y85278D01*
X119462Y85246D01*
X119460Y85213D01*
Y85210D01*
Y85204D01*
Y85194D01*
X119462Y85183D01*
Y85166D01*
X119468Y85147D01*
X119476Y85106D01*
X119492Y85057D01*
X119517Y85005D01*
X119531Y84978D01*
X119550Y84953D01*
X119569Y84929D01*
X119593Y84904D01*
X119596Y84901D01*
X119599Y84899D01*
X119607Y84893D01*
X119618Y84885D01*
X119632Y84874D01*
X119648Y84863D01*
X119686Y84839D01*
X119738Y84817D01*
X119795Y84795D01*
X119864Y84781D01*
X119902Y84776D01*
X119962D01*
X119978Y84779D01*
X119997D01*
X120019Y84784D01*
X120068Y84792D01*
X120126Y84809D01*
X120186Y84833D01*
X120216Y84850D01*
X120246Y84866D01*
X120273Y84888D01*
X120300Y84912D01*
X120303Y84915D01*
X120306Y84918D01*
X120311Y84926D01*
X120322Y84937D01*
X120331Y84951D01*
X120341Y84967D01*
X120355Y84986D01*
X120366Y85008D01*
X120380Y85033D01*
X120390Y85060D01*
X120412Y85125D01*
X120429Y85196D01*
X120431Y85237D01*
X120434Y85281D01*
X120751Y85248D01*
Y85243D01*
X120748Y85232D01*
X120745Y85216D01*
X120743Y85191D01*
X120737Y85161D01*
X120729Y85125D01*
X120721Y85087D01*
X120707Y85046D01*
X120694Y85005D01*
X120677Y84959D01*
X120655Y84915D01*
X120633Y84872D01*
X120606Y84825D01*
X120576Y84784D01*
X120543Y84743D01*
X120505Y84708D01*
X120502Y84705D01*
X120494Y84699D01*
X120483Y84691D01*
X120467Y84678D01*
X120445Y84664D01*
X120418Y84648D01*
X120388Y84631D01*
X120352Y84612D01*
X120314Y84596D01*
X120270Y84579D01*
X120224Y84563D01*
X120172Y84549D01*
X120117Y84536D01*
X120060Y84527D01*
X119997Y84522D01*
X119932Y84519D01*
X119896D01*
X119872Y84522D01*
X119842Y84525D01*
X119806Y84530D01*
X119765Y84536D01*
X119724Y84544D01*
X119678Y84555D01*
X119632Y84568D01*
X119582Y84585D01*
X119536Y84604D01*
X119487Y84628D01*
X119440Y84656D01*
X119397Y84686D01*
X119356Y84721D01*
X119353Y84724D01*
X119348Y84729D01*
X119337Y84743D01*
X119323Y84757D01*
X119307Y84776D01*
X119288Y84800D01*
X119269Y84828D01*
X119249Y84861D01*
X119230Y84893D01*
X119211Y84931D01*
X119192Y84973D01*
X119176Y85016D01*
X119162Y85065D01*
X119151Y85114D01*
X119146Y85166D01*
X119143Y85221D01*
Y85224D01*
Y85226D01*
Y85235D01*
Y85246D01*
X119146Y85276D01*
X119151Y85314D01*
X119159Y85360D01*
X119170Y85409D01*
X119184Y85464D01*
X119206Y85518D01*
Y85521D01*
X119208Y85524D01*
X119211Y85532D01*
X119217Y85543D01*
X119233Y85573D01*
X119255Y85611D01*
X119285Y85658D01*
X119320Y85710D01*
X119361Y85764D01*
X119413Y85824D01*
X119416Y85827D01*
X119419Y85832D01*
X119430Y85841D01*
X119440Y85854D01*
X119457Y85871D01*
X119476Y85890D01*
X119498Y85914D01*
X119525Y85939D01*
X119558Y85969D01*
X119593Y86002D01*
X119632Y86040D01*
X119675Y86078D01*
X119722Y86122D01*
X119773Y86165D01*
X119831Y86215D01*
X119891Y86266D01*
X119894Y86269D01*
X119902Y86277D01*
X119918Y86288D01*
X119935Y86305D01*
X119959Y86324D01*
X119984Y86346D01*
X120041Y86395D01*
X120101Y86447D01*
X120159Y86501D01*
X120186Y86526D01*
X120210Y86548D01*
X120232Y86569D01*
X120249Y86586D01*
X120251Y86589D01*
X120262Y86600D01*
X120276Y86616D01*
X120295Y86638D01*
X120317Y86662D01*
X120339Y86690D01*
X120382Y86750D01*
X119140D01*
Y87047D01*
X120808D01*
Y87042D01*
D02*
G37*
G36*
X121152Y87236D02*
X121169Y87230D01*
X121188Y87222D01*
X121212Y87211D01*
X121242Y87200D01*
X121275Y87184D01*
X121310Y87165D01*
X121349Y87146D01*
X121392Y87124D01*
X121483Y87072D01*
X121581Y87009D01*
X121682Y86935D01*
X121685Y86938D01*
X121695Y86941D01*
X121709Y86949D01*
X121731Y86960D01*
X121758Y86971D01*
X121788Y86984D01*
X121824Y86998D01*
X121865Y87012D01*
X121908Y87025D01*
X121958Y87039D01*
X122007Y87053D01*
X122061Y87064D01*
X122179Y87083D01*
X122239Y87085D01*
X122301Y87088D01*
X122334D01*
X122359Y87085D01*
X122389Y87083D01*
X122424Y87080D01*
X122463Y87075D01*
X122506Y87066D01*
X122553Y87058D01*
X122602Y87047D01*
X122654Y87034D01*
X122706Y87020D01*
X122760Y87001D01*
X122815Y86979D01*
X122869Y86954D01*
X122921Y86924D01*
X122924Y86922D01*
X122932Y86916D01*
X122949Y86908D01*
X122968Y86894D01*
X122989Y86878D01*
X123017Y86856D01*
X123047Y86832D01*
X123080Y86804D01*
X123112Y86774D01*
X123148Y86739D01*
X123183Y86701D01*
X123219Y86660D01*
X123254Y86616D01*
X123287Y86569D01*
X123320Y86518D01*
X123350Y86463D01*
X123353Y86460D01*
X123355Y86449D01*
X123363Y86433D01*
X123374Y86411D01*
X123385Y86381D01*
X123396Y86348D01*
X123410Y86310D01*
X123424Y86266D01*
X123440Y86217D01*
X123454Y86165D01*
X123465Y86111D01*
X123475Y86051D01*
X123486Y85991D01*
X123495Y85925D01*
X123497Y85857D01*
X123500Y85789D01*
Y85783D01*
Y85772D01*
Y85753D01*
X123497Y85726D01*
X123495Y85693D01*
X123492Y85655D01*
X123486Y85611D01*
X123481Y85562D01*
X123473Y85513D01*
X123465Y85458D01*
X123437Y85344D01*
X123418Y85286D01*
X123399Y85226D01*
X123377Y85166D01*
X123350Y85109D01*
X123347Y85106D01*
X123342Y85095D01*
X123334Y85079D01*
X123322Y85060D01*
X123306Y85033D01*
X123287Y85002D01*
X123265Y84973D01*
X123241Y84937D01*
X123211Y84899D01*
X123178Y84861D01*
X123145Y84822D01*
X123107Y84784D01*
X123063Y84746D01*
X123020Y84710D01*
X122973Y84675D01*
X122921Y84645D01*
X122918Y84642D01*
X122908Y84637D01*
X122894Y84631D01*
X122872Y84620D01*
X122845Y84607D01*
X122815Y84593D01*
X122776Y84579D01*
X122738Y84563D01*
X122692Y84549D01*
X122645Y84536D01*
X122594Y84522D01*
X122536Y84508D01*
X122479Y84497D01*
X122419Y84492D01*
X122356Y84487D01*
X122293Y84484D01*
X122261D01*
X122236Y84487D01*
X122203Y84489D01*
X122168Y84492D01*
X122129Y84497D01*
X122086Y84506D01*
X122037Y84514D01*
X121988Y84525D01*
X121936Y84538D01*
X121881Y84555D01*
X121827Y84574D01*
X121772Y84596D01*
X121720Y84620D01*
X121665Y84650D01*
X121663Y84653D01*
X121652Y84658D01*
X121638Y84667D01*
X121619Y84680D01*
X121595Y84697D01*
X121570Y84719D01*
X121540Y84743D01*
X121507Y84771D01*
X121472Y84803D01*
X121436Y84836D01*
X121401Y84874D01*
X121365Y84915D01*
X121332Y84962D01*
X121297Y85008D01*
X121267Y85060D01*
X121237Y85114D01*
X121234Y85117D01*
X121231Y85128D01*
X121223Y85145D01*
X121215Y85166D01*
X121201Y85194D01*
X121190Y85229D01*
X121177Y85267D01*
X121163Y85311D01*
X121150Y85357D01*
X121136Y85409D01*
X121122Y85464D01*
X121111Y85524D01*
X121103Y85584D01*
X121095Y85650D01*
X121092Y85718D01*
X121089Y85786D01*
Y85789D01*
Y85800D01*
Y85816D01*
X121092Y85838D01*
Y85865D01*
X121095Y85898D01*
X121098Y85934D01*
X121100Y85972D01*
X121106Y86015D01*
X121114Y86059D01*
X121130Y86155D01*
X121152Y86250D01*
X121185Y86346D01*
Y86348D01*
X121190Y86357D01*
X121196Y86370D01*
X121204Y86387D01*
X121212Y86409D01*
X121226Y86433D01*
X121240Y86463D01*
X121256Y86493D01*
X121297Y86561D01*
X121346Y86632D01*
X121403Y86706D01*
X121472Y86777D01*
X121469Y86780D01*
X121461Y86785D01*
X121450Y86793D01*
X121431Y86804D01*
X121412Y86815D01*
X121387Y86832D01*
X121360Y86848D01*
X121330Y86867D01*
X121264Y86905D01*
X121190Y86944D01*
X121114Y86982D01*
X121040Y87012D01*
X121141Y87241D01*
X121144D01*
X121152Y87236D01*
D02*
G37*
G36*
X132663Y88870D02*
X132658D01*
X132644D01*
X132623D01*
X132595Y88872D01*
X132562Y88875D01*
X132527Y88883D01*
X132489Y88891D01*
X132450Y88905D01*
X132448D01*
X132442Y88908D01*
X132434Y88911D01*
X132420Y88916D01*
X132407Y88924D01*
X132388Y88932D01*
X132344Y88954D01*
X132292Y88981D01*
X132235Y89017D01*
X132175Y89058D01*
X132115Y89107D01*
X132112Y89110D01*
X132106Y89113D01*
X132098Y89121D01*
X132085Y89134D01*
X132071Y89148D01*
X132052Y89167D01*
X132030Y89186D01*
X132006Y89211D01*
X131978Y89238D01*
X131951Y89268D01*
X131918Y89301D01*
X131885Y89339D01*
X131850Y89377D01*
X131814Y89421D01*
X131776Y89465D01*
X131735Y89514D01*
X131732Y89519D01*
X131719Y89533D01*
X131702Y89552D01*
X131678Y89579D01*
X131651Y89612D01*
X131618Y89650D01*
X131582Y89694D01*
X131541Y89738D01*
X131457Y89831D01*
X131367Y89921D01*
X131323Y89964D01*
X131279Y90005D01*
X131238Y90041D01*
X131200Y90071D01*
X131197Y90074D01*
X131192Y90076D01*
X131181Y90084D01*
X131167Y90093D01*
X131148Y90106D01*
X131129Y90117D01*
X131080Y90144D01*
X131023Y90172D01*
X130960Y90196D01*
X130894Y90213D01*
X130862Y90215D01*
X130829Y90218D01*
X130826D01*
X130821D01*
X130810D01*
X130799Y90215D01*
X130782D01*
X130763Y90210D01*
X130722Y90202D01*
X130673Y90185D01*
X130621Y90161D01*
X130594Y90147D01*
X130570Y90128D01*
X130545Y90109D01*
X130520Y90084D01*
X130518Y90082D01*
X130515Y90079D01*
X130509Y90071D01*
X130501Y90060D01*
X130490Y90046D01*
X130479Y90030D01*
X130455Y89992D01*
X130433Y89940D01*
X130411Y89882D01*
X130397Y89814D01*
X130392Y89776D01*
Y89716D01*
X130395Y89700D01*
Y89680D01*
X130400Y89659D01*
X130408Y89609D01*
X130425Y89552D01*
X130449Y89492D01*
X130466Y89462D01*
X130482Y89432D01*
X130504Y89405D01*
X130528Y89377D01*
X130531Y89375D01*
X130534Y89372D01*
X130542Y89366D01*
X130553Y89355D01*
X130567Y89347D01*
X130583Y89336D01*
X130602Y89323D01*
X130624Y89312D01*
X130649Y89298D01*
X130676Y89287D01*
X130742Y89265D01*
X130813Y89249D01*
X130853Y89246D01*
X130897Y89244D01*
X130864Y88927D01*
X130859D01*
X130848Y88930D01*
X130832Y88932D01*
X130807Y88935D01*
X130777Y88941D01*
X130742Y88949D01*
X130703Y88957D01*
X130662Y88971D01*
X130621Y88984D01*
X130575Y89001D01*
X130531Y89022D01*
X130488Y89044D01*
X130441Y89072D01*
X130400Y89102D01*
X130359Y89134D01*
X130324Y89173D01*
X130321Y89175D01*
X130316Y89183D01*
X130307Y89195D01*
X130294Y89211D01*
X130280Y89233D01*
X130264Y89260D01*
X130247Y89290D01*
X130228Y89325D01*
X130212Y89364D01*
X130195Y89407D01*
X130179Y89454D01*
X130166Y89506D01*
X130152Y89560D01*
X130144Y89618D01*
X130138Y89680D01*
X130135Y89746D01*
Y89781D01*
X130138Y89806D01*
X130141Y89836D01*
X130146Y89872D01*
X130152Y89912D01*
X130160Y89953D01*
X130171Y90000D01*
X130185Y90046D01*
X130201Y90095D01*
X130220Y90142D01*
X130245Y90191D01*
X130272Y90237D01*
X130302Y90281D01*
X130337Y90322D01*
X130340Y90325D01*
X130346Y90330D01*
X130359Y90341D01*
X130373Y90355D01*
X130392Y90371D01*
X130417Y90390D01*
X130444Y90409D01*
X130477Y90428D01*
X130509Y90447D01*
X130548Y90467D01*
X130589Y90486D01*
X130632Y90502D01*
X130681Y90516D01*
X130731Y90527D01*
X130782Y90532D01*
X130837Y90535D01*
X130840D01*
X130842D01*
X130851D01*
X130862D01*
X130892Y90532D01*
X130930Y90527D01*
X130976Y90518D01*
X131025Y90508D01*
X131080Y90494D01*
X131135Y90472D01*
X131137D01*
X131140Y90469D01*
X131148Y90467D01*
X131159Y90461D01*
X131189Y90445D01*
X131227Y90423D01*
X131274Y90393D01*
X131326Y90357D01*
X131380Y90316D01*
X131440Y90265D01*
X131443Y90262D01*
X131449Y90259D01*
X131457Y90248D01*
X131470Y90237D01*
X131487Y90221D01*
X131506Y90202D01*
X131530Y90180D01*
X131555Y90153D01*
X131585Y90120D01*
X131618Y90084D01*
X131656Y90046D01*
X131694Y90003D01*
X131738Y89956D01*
X131782Y89904D01*
X131831Y89847D01*
X131883Y89787D01*
X131885Y89784D01*
X131894Y89776D01*
X131904Y89760D01*
X131921Y89743D01*
X131940Y89719D01*
X131962Y89694D01*
X132011Y89637D01*
X132063Y89577D01*
X132117Y89519D01*
X132142Y89492D01*
X132164Y89468D01*
X132186Y89446D01*
X132202Y89429D01*
X132205Y89426D01*
X132216Y89416D01*
X132232Y89402D01*
X132254Y89383D01*
X132279Y89361D01*
X132306Y89339D01*
X132366Y89296D01*
Y90538D01*
X132663D01*
Y88870D01*
D02*
G37*
G36*
Y88299D02*
X132139Y87966D01*
X132136Y87963D01*
X132128Y87960D01*
X132117Y87952D01*
X132101Y87941D01*
X132082Y87931D01*
X132060Y87914D01*
X132011Y87881D01*
X131954Y87843D01*
X131896Y87805D01*
X131842Y87764D01*
X131792Y87726D01*
X131790D01*
X131787Y87720D01*
X131773Y87709D01*
X131752Y87693D01*
X131727Y87668D01*
X131700Y87644D01*
X131672Y87614D01*
X131645Y87584D01*
X131626Y87556D01*
X131623Y87554D01*
X131618Y87543D01*
X131610Y87529D01*
X131599Y87510D01*
X131588Y87485D01*
X131577Y87461D01*
X131566Y87434D01*
X131558Y87404D01*
Y87401D01*
X131555Y87393D01*
X131552Y87379D01*
X131550Y87360D01*
Y87333D01*
X131547Y87300D01*
X131544Y87262D01*
Y86833D01*
X132663D01*
Y86500D01*
X130144D01*
Y87671D01*
X130146Y87701D01*
Y87731D01*
X130149Y87767D01*
X130152Y87808D01*
X130160Y87889D01*
X130174Y87974D01*
X130190Y88056D01*
X130201Y88091D01*
X130212Y88127D01*
Y88130D01*
X130215Y88135D01*
X130220Y88143D01*
X130226Y88157D01*
X130242Y88190D01*
X130266Y88228D01*
X130299Y88275D01*
X130343Y88321D01*
X130392Y88367D01*
X130452Y88408D01*
X130455D01*
X130460Y88414D01*
X130468Y88419D01*
X130482Y88425D01*
X130499Y88433D01*
X130518Y88441D01*
X130540Y88452D01*
X130564Y88463D01*
X130621Y88482D01*
X130684Y88498D01*
X130755Y88509D01*
X130832Y88515D01*
X130834D01*
X130842D01*
X130859D01*
X130875Y88512D01*
X130900Y88509D01*
X130927Y88507D01*
X130957Y88501D01*
X130990Y88493D01*
X131061Y88471D01*
X131099Y88457D01*
X131137Y88441D01*
X131175Y88422D01*
X131214Y88397D01*
X131249Y88370D01*
X131285Y88340D01*
X131288Y88337D01*
X131293Y88332D01*
X131301Y88321D01*
X131315Y88307D01*
X131328Y88288D01*
X131345Y88266D01*
X131364Y88239D01*
X131383Y88206D01*
X131402Y88171D01*
X131421Y88133D01*
X131440Y88089D01*
X131459Y88040D01*
X131476Y87988D01*
X131492Y87931D01*
X131506Y87868D01*
X131517Y87802D01*
Y87805D01*
X131519Y87808D01*
X131528Y87824D01*
X131541Y87849D01*
X131558Y87879D01*
X131577Y87911D01*
X131596Y87944D01*
X131621Y87977D01*
X131642Y88004D01*
X131645Y88007D01*
X131648Y88010D01*
X131656Y88018D01*
X131667Y88029D01*
X131681Y88042D01*
X131697Y88059D01*
X131735Y88094D01*
X131784Y88135D01*
X131842Y88182D01*
X131907Y88231D01*
X131978Y88280D01*
X132663Y88717D01*
Y88299D01*
D02*
G37*
G36*
X114779Y83061D02*
X114776Y83033D01*
Y83001D01*
X114773Y82968D01*
X114771Y82894D01*
X114762Y82820D01*
X114754Y82747D01*
X114746Y82714D01*
X114741Y82684D01*
Y82681D01*
X114738Y82673D01*
X114735Y82662D01*
X114730Y82648D01*
X114724Y82629D01*
X114719Y82608D01*
X114700Y82556D01*
X114675Y82498D01*
X114645Y82438D01*
X114607Y82375D01*
X114560Y82315D01*
X114558Y82313D01*
X114552Y82307D01*
X114544Y82296D01*
X114530Y82283D01*
X114514Y82266D01*
X114492Y82247D01*
X114470Y82225D01*
X114443Y82203D01*
X114413Y82179D01*
X114380Y82154D01*
X114345Y82130D01*
X114307Y82105D01*
X114222Y82059D01*
X114129Y82018D01*
X114126D01*
X114118Y82012D01*
X114102Y82010D01*
X114083Y82001D01*
X114058Y81993D01*
X114028Y81985D01*
X113995Y81977D01*
X113957Y81966D01*
X113914Y81958D01*
X113867Y81950D01*
X113818Y81941D01*
X113766Y81933D01*
X113711Y81925D01*
X113654Y81922D01*
X113531Y81917D01*
X113529D01*
X113518D01*
X113504D01*
X113482D01*
X113458Y81919D01*
X113427D01*
X113395Y81922D01*
X113359Y81925D01*
X113280Y81933D01*
X113196Y81947D01*
X113108Y81963D01*
X113021Y81985D01*
X113018D01*
X113010Y81988D01*
X112999Y81993D01*
X112985Y81996D01*
X112966Y82004D01*
X112944Y82012D01*
X112892Y82032D01*
X112835Y82056D01*
X112772Y82086D01*
X112712Y82119D01*
X112655Y82157D01*
X112652D01*
X112650Y82162D01*
X112641Y82168D01*
X112630Y82176D01*
X112606Y82195D01*
X112573Y82225D01*
X112535Y82258D01*
X112497Y82296D01*
X112461Y82340D01*
X112426Y82386D01*
Y82389D01*
X112423Y82392D01*
X112412Y82408D01*
X112398Y82436D01*
X112379Y82471D01*
X112360Y82515D01*
X112338Y82566D01*
X112319Y82627D01*
X112300Y82689D01*
Y82692D01*
X112297Y82698D01*
Y82706D01*
X112295Y82719D01*
X112292Y82736D01*
X112286Y82758D01*
X112284Y82780D01*
X112281Y82804D01*
X112273Y82864D01*
X112265Y82932D01*
X112262Y83009D01*
X112259Y83091D01*
Y84000D01*
X114779D01*
Y83061D01*
D02*
G37*
G36*
X114156Y81344D02*
X114159Y81335D01*
X114167Y81322D01*
X114175Y81302D01*
X114187Y81281D01*
X114203Y81253D01*
X114219Y81223D01*
X114236Y81193D01*
X114279Y81122D01*
X114331Y81046D01*
X114386Y80967D01*
X114448Y80893D01*
X114451Y80890D01*
X114457Y80885D01*
X114465Y80874D01*
X114479Y80860D01*
X114495Y80847D01*
X114511Y80827D01*
X114558Y80787D01*
X114607Y80740D01*
X114664Y80694D01*
X114724Y80653D01*
X114787Y80617D01*
Y80418D01*
X112259D01*
Y80726D01*
X114227D01*
X114222Y80732D01*
X114208Y80746D01*
X114189Y80770D01*
X114162Y80806D01*
X114129Y80847D01*
X114094Y80898D01*
X114055Y80956D01*
X114014Y81021D01*
Y81024D01*
X114009Y81029D01*
X114004Y81038D01*
X113998Y81051D01*
X113987Y81068D01*
X113979Y81087D01*
X113954Y81131D01*
X113930Y81180D01*
X113902Y81234D01*
X113878Y81292D01*
X113856Y81346D01*
X114154D01*
X114156Y81344D01*
D02*
G37*
%LPC*%
G36*
X95825Y117282D02*
X94976D01*
Y116450D01*
X95729D01*
X95748Y116452D01*
X95770D01*
X95822Y116455D01*
X95879Y116461D01*
X95939Y116469D01*
X95997Y116480D01*
X96048Y116496D01*
X96051D01*
X96054Y116499D01*
X96070Y116504D01*
X96092Y116515D01*
X96122Y116532D01*
X96152Y116553D01*
X96185Y116578D01*
X96218Y116611D01*
X96245Y116646D01*
X96248Y116652D01*
X96256Y116665D01*
X96267Y116684D01*
X96281Y116714D01*
X96292Y116747D01*
X96302Y116785D01*
X96311Y116829D01*
X96313Y116873D01*
Y116876D01*
Y116881D01*
Y116889D01*
X96311Y116903D01*
Y116916D01*
X96308Y116936D01*
X96297Y116976D01*
X96281Y117023D01*
X96259Y117072D01*
X96226Y117118D01*
X96204Y117143D01*
X96182Y117165D01*
X96180Y117168D01*
X96177Y117170D01*
X96169Y117176D01*
X96158Y117184D01*
X96144Y117192D01*
X96125Y117203D01*
X96106Y117214D01*
X96081Y117225D01*
X96054Y117236D01*
X96024Y117244D01*
X95991Y117255D01*
X95956Y117263D01*
X95915Y117271D01*
X95871Y117277D01*
X95825Y117282D01*
D02*
G37*
G36*
X93389Y106229D02*
X93326D01*
X93307Y106227D01*
X93279D01*
X93249Y106221D01*
X93211Y106216D01*
X93170Y106208D01*
X93127Y106197D01*
X93077Y106183D01*
X93028Y106167D01*
X92976Y106145D01*
X92925Y106120D01*
X92873Y106093D01*
X92824Y106058D01*
X92772Y106019D01*
X92725Y105973D01*
X92723Y105970D01*
X92714Y105962D01*
X92703Y105946D01*
X92687Y105927D01*
X92668Y105899D01*
X92649Y105866D01*
X92624Y105828D01*
X92602Y105782D01*
X92581Y105733D01*
X92559Y105675D01*
X92537Y105613D01*
X92518Y105544D01*
X92501Y105471D01*
X92491Y105389D01*
X92482Y105304D01*
X92480Y105211D01*
Y105206D01*
Y105189D01*
X92482Y105165D01*
Y105129D01*
X92488Y105088D01*
X92493Y105042D01*
X92499Y104990D01*
X92510Y104933D01*
X92523Y104873D01*
X92540Y104813D01*
X92559Y104750D01*
X92583Y104687D01*
X92611Y104624D01*
X92643Y104564D01*
X92679Y104510D01*
X92723Y104458D01*
X92725Y104455D01*
X92734Y104447D01*
X92747Y104433D01*
X92766Y104417D01*
X92791Y104398D01*
X92818Y104376D01*
X92854Y104351D01*
X92892Y104327D01*
X92933Y104302D01*
X92982Y104278D01*
X93031Y104256D01*
X93086Y104237D01*
X93146Y104220D01*
X93208Y104207D01*
X93274Y104198D01*
X93342Y104196D01*
X93372D01*
X93389Y104198D01*
X93408D01*
X93451Y104204D01*
X93503Y104212D01*
X93561Y104223D01*
X93621Y104239D01*
X93681Y104261D01*
X93678D01*
X93673Y104267D01*
X93664Y104272D01*
X93654Y104278D01*
X93640Y104286D01*
X93621Y104297D01*
X93580Y104318D01*
X93531Y104340D01*
X93476Y104365D01*
X93413Y104387D01*
X93350Y104406D01*
X93430Y104649D01*
X93432D01*
X93443Y104646D01*
X93457Y104641D01*
X93479Y104632D01*
X93503Y104624D01*
X93531Y104613D01*
X93563Y104602D01*
X93599Y104589D01*
X93673Y104553D01*
X93755Y104512D01*
X93834Y104463D01*
X93907Y104409D01*
X93910Y104411D01*
X93921Y104422D01*
X93935Y104436D01*
X93954Y104458D01*
X93976Y104488D01*
X94000Y104521D01*
X94028Y104561D01*
X94055Y104611D01*
X94082Y104663D01*
X94109Y104723D01*
X94134Y104788D01*
X94156Y104862D01*
X94175Y104941D01*
X94189Y105026D01*
X94200Y105116D01*
X94202Y105214D01*
Y105217D01*
Y105228D01*
Y105244D01*
X94200Y105266D01*
Y105293D01*
X94197Y105323D01*
X94194Y105359D01*
X94189Y105394D01*
X94178Y105479D01*
X94159Y105569D01*
X94131Y105659D01*
X94096Y105746D01*
Y105749D01*
X94090Y105757D01*
X94085Y105768D01*
X94077Y105784D01*
X94066Y105804D01*
X94052Y105825D01*
X94019Y105877D01*
X93976Y105935D01*
X93924Y105992D01*
X93864Y106049D01*
X93793Y106101D01*
X93790Y106104D01*
X93785Y106107D01*
X93774Y106112D01*
X93757Y106120D01*
X93738Y106131D01*
X93716Y106142D01*
X93692Y106153D01*
X93662Y106167D01*
X93629Y106178D01*
X93596Y106189D01*
X93520Y106210D01*
X93435Y106224D01*
X93389Y106229D01*
D02*
G37*
G36*
X93182Y133282D02*
X92333D01*
Y132450D01*
X93086D01*
X93106Y132452D01*
X93127D01*
X93179Y132455D01*
X93237Y132460D01*
X93297Y132469D01*
X93354Y132480D01*
X93406Y132496D01*
X93409D01*
X93411Y132499D01*
X93428Y132504D01*
X93450Y132515D01*
X93480Y132531D01*
X93510Y132553D01*
X93542Y132578D01*
X93575Y132611D01*
X93603Y132646D01*
X93605Y132652D01*
X93613Y132665D01*
X93624Y132684D01*
X93638Y132714D01*
X93649Y132747D01*
X93660Y132785D01*
X93668Y132829D01*
X93671Y132873D01*
Y132876D01*
Y132881D01*
Y132889D01*
X93668Y132903D01*
Y132916D01*
X93665Y132936D01*
X93654Y132976D01*
X93638Y133023D01*
X93616Y133072D01*
X93583Y133118D01*
X93562Y133143D01*
X93540Y133165D01*
X93537Y133168D01*
X93534Y133170D01*
X93526Y133176D01*
X93515Y133184D01*
X93501Y133192D01*
X93482Y133203D01*
X93463Y133214D01*
X93439Y133225D01*
X93411Y133236D01*
X93381Y133244D01*
X93349Y133255D01*
X93313Y133263D01*
X93272Y133271D01*
X93228Y133277D01*
X93182Y133282D01*
D02*
G37*
G36*
X95688Y133318D02*
X95625D01*
X95609Y133315D01*
X95582D01*
X95552Y133309D01*
X95516Y133304D01*
X95478Y133296D01*
X95434Y133288D01*
X95388Y133274D01*
X95339Y133258D01*
X95287Y133239D01*
X95238Y133214D01*
X95186Y133187D01*
X95134Y133154D01*
X95082Y133116D01*
X95033Y133072D01*
X95030Y133069D01*
X95022Y133061D01*
X95008Y133045D01*
X94995Y133026D01*
X94973Y132998D01*
X94954Y132966D01*
X94929Y132925D01*
X94907Y132881D01*
X94883Y132826D01*
X94858Y132766D01*
X94839Y132701D01*
X94820Y132627D01*
X94804Y132548D01*
X94790Y132460D01*
X94782Y132365D01*
X94779Y132261D01*
Y132256D01*
Y132242D01*
X94782Y132218D01*
Y132185D01*
X94787Y132147D01*
X94793Y132103D01*
X94798Y132054D01*
X94809Y132002D01*
X94823Y131945D01*
X94839Y131885D01*
X94858Y131827D01*
X94883Y131767D01*
X94910Y131707D01*
X94943Y131650D01*
X94978Y131595D01*
X95022Y131543D01*
X95025Y131541D01*
X95033Y131532D01*
X95047Y131519D01*
X95066Y131502D01*
X95090Y131483D01*
X95120Y131461D01*
X95153Y131437D01*
X95191Y131415D01*
X95232Y131390D01*
X95281Y131366D01*
X95331Y131344D01*
X95385Y131325D01*
X95442Y131308D01*
X95505Y131295D01*
X95568Y131287D01*
X95636Y131284D01*
X95653D01*
X95672Y131287D01*
X95699Y131289D01*
X95732Y131292D01*
X95767Y131298D01*
X95811Y131306D01*
X95855Y131317D01*
X95904Y131330D01*
X95953Y131347D01*
X96005Y131369D01*
X96057Y131396D01*
X96109Y131426D01*
X96161Y131459D01*
X96210Y131500D01*
X96256Y131546D01*
X96259Y131549D01*
X96267Y131560D01*
X96278Y131573D01*
X96294Y131595D01*
X96313Y131622D01*
X96335Y131655D01*
X96357Y131693D01*
X96379Y131740D01*
X96401Y131789D01*
X96425Y131846D01*
X96444Y131906D01*
X96464Y131975D01*
X96480Y132048D01*
X96491Y132125D01*
X96499Y132209D01*
X96502Y132297D01*
Y132299D01*
Y132310D01*
Y132327D01*
X96499Y132349D01*
Y132376D01*
X96496Y132406D01*
X96494Y132441D01*
X96488Y132480D01*
X96477Y132564D01*
X96458Y132654D01*
X96431Y132744D01*
X96395Y132834D01*
Y132837D01*
X96390Y132845D01*
X96384Y132856D01*
X96376Y132873D01*
X96365Y132892D01*
X96352Y132914D01*
X96319Y132966D01*
X96275Y133023D01*
X96223Y133080D01*
X96163Y133138D01*
X96092Y133189D01*
X96090Y133192D01*
X96084Y133195D01*
X96073Y133200D01*
X96057Y133209D01*
X96038Y133219D01*
X96016Y133230D01*
X95991Y133241D01*
X95961Y133255D01*
X95928Y133266D01*
X95896Y133277D01*
X95819Y133299D01*
X95735Y133312D01*
X95688Y133318D01*
D02*
G37*
G36*
X93182Y150282D02*
X92333D01*
Y149450D01*
X93086D01*
X93106Y149452D01*
X93127D01*
X93179Y149455D01*
X93237Y149460D01*
X93297Y149469D01*
X93354Y149480D01*
X93406Y149496D01*
X93409D01*
X93411Y149499D01*
X93428Y149504D01*
X93450Y149515D01*
X93480Y149531D01*
X93510Y149553D01*
X93542Y149578D01*
X93575Y149611D01*
X93602Y149646D01*
X93605Y149652D01*
X93613Y149665D01*
X93624Y149684D01*
X93638Y149714D01*
X93649Y149747D01*
X93660Y149785D01*
X93668Y149829D01*
X93671Y149873D01*
Y149875D01*
Y149881D01*
Y149889D01*
X93668Y149903D01*
Y149916D01*
X93665Y149935D01*
X93654Y149977D01*
X93638Y150023D01*
X93616Y150072D01*
X93583Y150118D01*
X93562Y150143D01*
X93540Y150165D01*
X93537Y150168D01*
X93534Y150170D01*
X93526Y150176D01*
X93515Y150184D01*
X93501Y150192D01*
X93482Y150203D01*
X93463Y150214D01*
X93439Y150225D01*
X93411Y150236D01*
X93381Y150244D01*
X93349Y150255D01*
X93313Y150263D01*
X93272Y150271D01*
X93228Y150277D01*
X93182Y150282D01*
D02*
G37*
G36*
X95688Y150318D02*
X95625D01*
X95609Y150315D01*
X95582D01*
X95552Y150310D01*
X95516Y150304D01*
X95478Y150296D01*
X95434Y150288D01*
X95388Y150274D01*
X95339Y150258D01*
X95287Y150239D01*
X95238Y150214D01*
X95186Y150187D01*
X95134Y150154D01*
X95082Y150116D01*
X95033Y150072D01*
X95030Y150069D01*
X95022Y150061D01*
X95008Y150045D01*
X94995Y150026D01*
X94973Y149998D01*
X94954Y149966D01*
X94929Y149925D01*
X94907Y149881D01*
X94883Y149826D01*
X94858Y149766D01*
X94839Y149701D01*
X94820Y149627D01*
X94804Y149548D01*
X94790Y149460D01*
X94782Y149365D01*
X94779Y149261D01*
Y149256D01*
Y149242D01*
X94782Y149217D01*
Y149185D01*
X94787Y149147D01*
X94793Y149103D01*
X94798Y149054D01*
X94809Y149002D01*
X94823Y148944D01*
X94839Y148884D01*
X94858Y148827D01*
X94883Y148767D01*
X94910Y148707D01*
X94943Y148650D01*
X94978Y148595D01*
X95022Y148543D01*
X95025Y148540D01*
X95033Y148532D01*
X95047Y148519D01*
X95066Y148502D01*
X95090Y148483D01*
X95120Y148461D01*
X95153Y148437D01*
X95191Y148415D01*
X95232Y148390D01*
X95281Y148366D01*
X95331Y148344D01*
X95385Y148325D01*
X95442Y148308D01*
X95505Y148295D01*
X95568Y148287D01*
X95636Y148284D01*
X95653D01*
X95672Y148287D01*
X95699Y148289D01*
X95732Y148292D01*
X95767Y148298D01*
X95811Y148306D01*
X95855Y148317D01*
X95904Y148330D01*
X95953Y148347D01*
X96005Y148369D01*
X96057Y148396D01*
X96109Y148426D01*
X96161Y148459D01*
X96210Y148500D01*
X96256Y148546D01*
X96259Y148549D01*
X96267Y148560D01*
X96278Y148573D01*
X96294Y148595D01*
X96313Y148622D01*
X96335Y148655D01*
X96357Y148693D01*
X96379Y148740D01*
X96401Y148789D01*
X96425Y148846D01*
X96444Y148906D01*
X96464Y148975D01*
X96480Y149048D01*
X96491Y149125D01*
X96499Y149209D01*
X96502Y149297D01*
Y149299D01*
Y149310D01*
Y149327D01*
X96499Y149349D01*
Y149376D01*
X96496Y149406D01*
X96494Y149441D01*
X96488Y149480D01*
X96477Y149564D01*
X96458Y149654D01*
X96431Y149744D01*
X96395Y149835D01*
Y149837D01*
X96390Y149845D01*
X96384Y149856D01*
X96376Y149873D01*
X96365Y149892D01*
X96352Y149914D01*
X96319Y149966D01*
X96275Y150023D01*
X96223Y150080D01*
X96163Y150137D01*
X96092Y150189D01*
X96090Y150192D01*
X96084Y150195D01*
X96073Y150200D01*
X96057Y150208D01*
X96038Y150219D01*
X96016Y150230D01*
X95991Y150241D01*
X95961Y150255D01*
X95928Y150266D01*
X95896Y150277D01*
X95819Y150299D01*
X95735Y150312D01*
X95688Y150318D01*
D02*
G37*
G36*
X67543Y69026D02*
Y68166D01*
X68242Y68431D01*
X68244D01*
X68255Y68436D01*
X68272Y68441D01*
X68296Y68450D01*
X68321Y68461D01*
X68354Y68471D01*
X68389Y68485D01*
X68427Y68499D01*
X68512Y68526D01*
X68599Y68556D01*
X68687Y68586D01*
X68769Y68611D01*
X68766D01*
X68758Y68613D01*
X68744Y68616D01*
X68728Y68619D01*
X68703Y68624D01*
X68678Y68630D01*
X68648Y68638D01*
X68616Y68646D01*
X68580Y68654D01*
X68542Y68665D01*
X68460Y68690D01*
X68373Y68717D01*
X68283Y68747D01*
X67543Y69026D01*
D02*
G37*
G36*
X63957Y105334D02*
X63258Y105069D01*
X63256D01*
X63245Y105064D01*
X63228Y105059D01*
X63204Y105050D01*
X63179Y105039D01*
X63146Y105028D01*
X63111Y105015D01*
X63073Y105001D01*
X62988Y104974D01*
X62901Y104944D01*
X62813Y104914D01*
X62731Y104889D01*
X62734D01*
X62742Y104886D01*
X62756Y104884D01*
X62772Y104881D01*
X62797Y104876D01*
X62822Y104870D01*
X62852Y104862D01*
X62884Y104854D01*
X62920Y104846D01*
X62958Y104835D01*
X63040Y104810D01*
X63127Y104783D01*
X63217Y104753D01*
X63957Y104474D01*
Y105334D01*
D02*
G37*
G36*
X76914Y110761D02*
X75778D01*
X76914Y109967D01*
Y110761D01*
D02*
G37*
G36*
X76769Y105334D02*
X76070Y105069D01*
X76068D01*
X76057Y105064D01*
X76040Y105059D01*
X76016Y105050D01*
X75991Y105039D01*
X75958Y105028D01*
X75923Y105015D01*
X75885Y105001D01*
X75800Y104974D01*
X75713Y104944D01*
X75625Y104914D01*
X75543Y104889D01*
X75546D01*
X75554Y104886D01*
X75568Y104884D01*
X75584Y104881D01*
X75609Y104876D01*
X75634Y104870D01*
X75664Y104862D01*
X75696Y104854D01*
X75732Y104846D01*
X75770Y104835D01*
X75852Y104810D01*
X75939Y104783D01*
X76029Y104753D01*
X76769Y104474D01*
Y105334D01*
D02*
G37*
G36*
X79150Y150282D02*
X78301D01*
Y149450D01*
X79054D01*
X79073Y149452D01*
X79095D01*
X79147Y149455D01*
X79204Y149460D01*
X79264Y149469D01*
X79322Y149480D01*
X79374Y149496D01*
X79377D01*
X79379Y149499D01*
X79396Y149504D01*
X79417Y149515D01*
X79448Y149531D01*
X79478Y149553D01*
X79510Y149578D01*
X79543Y149611D01*
X79570Y149646D01*
X79573Y149652D01*
X79581Y149665D01*
X79592Y149684D01*
X79606Y149714D01*
X79617Y149747D01*
X79628Y149785D01*
X79636Y149829D01*
X79638Y149873D01*
Y149875D01*
Y149881D01*
Y149889D01*
X79636Y149903D01*
Y149916D01*
X79633Y149935D01*
X79622Y149977D01*
X79606Y150023D01*
X79584Y150072D01*
X79551Y150118D01*
X79529Y150143D01*
X79507Y150165D01*
X79505Y150168D01*
X79502Y150170D01*
X79494Y150176D01*
X79483Y150184D01*
X79469Y150192D01*
X79450Y150203D01*
X79431Y150214D01*
X79406Y150225D01*
X79379Y150236D01*
X79349Y150244D01*
X79316Y150255D01*
X79281Y150263D01*
X79240Y150271D01*
X79196Y150277D01*
X79150Y150282D01*
D02*
G37*
G36*
X81656Y150318D02*
X81593D01*
X81577Y150315D01*
X81550D01*
X81520Y150310D01*
X81484Y150304D01*
X81446Y150296D01*
X81402Y150288D01*
X81356Y150274D01*
X81307Y150258D01*
X81255Y150239D01*
X81206Y150214D01*
X81154Y150187D01*
X81102Y150154D01*
X81050Y150116D01*
X81001Y150072D01*
X80998Y150069D01*
X80990Y150061D01*
X80976Y150045D01*
X80963Y150026D01*
X80941Y149998D01*
X80922Y149966D01*
X80897Y149925D01*
X80875Y149881D01*
X80851Y149826D01*
X80826Y149766D01*
X80807Y149701D01*
X80788Y149627D01*
X80771Y149548D01*
X80758Y149460D01*
X80750Y149365D01*
X80747Y149261D01*
Y149256D01*
Y149242D01*
X80750Y149217D01*
Y149185D01*
X80755Y149147D01*
X80761Y149103D01*
X80766Y149054D01*
X80777Y149002D01*
X80791Y148944D01*
X80807Y148884D01*
X80826Y148827D01*
X80851Y148767D01*
X80878Y148707D01*
X80911Y148650D01*
X80946Y148595D01*
X80990Y148543D01*
X80993Y148540D01*
X81001Y148532D01*
X81015Y148519D01*
X81034Y148502D01*
X81058Y148483D01*
X81088Y148461D01*
X81121Y148437D01*
X81159Y148415D01*
X81200Y148390D01*
X81249Y148366D01*
X81298Y148344D01*
X81353Y148325D01*
X81410Y148308D01*
X81473Y148295D01*
X81536Y148287D01*
X81604Y148284D01*
X81621D01*
X81640Y148287D01*
X81667Y148289D01*
X81700Y148292D01*
X81735Y148298D01*
X81779Y148306D01*
X81823Y148317D01*
X81872Y148330D01*
X81921Y148347D01*
X81973Y148369D01*
X82025Y148396D01*
X82076Y148426D01*
X82128Y148459D01*
X82177Y148500D01*
X82224Y148546D01*
X82227Y148549D01*
X82235Y148560D01*
X82246Y148573D01*
X82262Y148595D01*
X82281Y148622D01*
X82303Y148655D01*
X82325Y148693D01*
X82347Y148740D01*
X82369Y148789D01*
X82393Y148846D01*
X82412Y148906D01*
X82431Y148975D01*
X82448Y149048D01*
X82459Y149125D01*
X82467Y149209D01*
X82470Y149297D01*
Y149299D01*
Y149310D01*
Y149327D01*
X82467Y149349D01*
Y149376D01*
X82464Y149406D01*
X82461Y149441D01*
X82456Y149480D01*
X82445Y149564D01*
X82426Y149654D01*
X82399Y149744D01*
X82363Y149835D01*
Y149837D01*
X82358Y149845D01*
X82352Y149856D01*
X82344Y149873D01*
X82333Y149892D01*
X82319Y149914D01*
X82287Y149966D01*
X82243Y150023D01*
X82191Y150080D01*
X82131Y150137D01*
X82060Y150189D01*
X82057Y150192D01*
X82052Y150195D01*
X82041Y150200D01*
X82025Y150208D01*
X82006Y150219D01*
X81984Y150230D01*
X81959Y150241D01*
X81929Y150255D01*
X81896Y150266D01*
X81863Y150277D01*
X81787Y150299D01*
X81702Y150312D01*
X81656Y150318D01*
D02*
G37*
G36*
X51377Y111103D02*
X51375D01*
X51366D01*
X51353D01*
X51334Y111100D01*
X51312Y111097D01*
X51287Y111094D01*
X51260Y111092D01*
X51230Y111086D01*
X51164Y111070D01*
X51096Y111045D01*
X51061Y111029D01*
X51028Y111010D01*
X50998Y110988D01*
X50968Y110963D01*
X50965Y110961D01*
X50962Y110958D01*
X50954Y110950D01*
X50943Y110939D01*
X50932Y110925D01*
X50919Y110909D01*
X50891Y110868D01*
X50864Y110816D01*
X50839Y110756D01*
X50820Y110688D01*
X50818Y110650D01*
X50815Y110611D01*
Y110592D01*
X50818Y110576D01*
X50820Y110559D01*
X50823Y110538D01*
X50834Y110488D01*
X50853Y110431D01*
X50880Y110371D01*
X50897Y110341D01*
X50916Y110311D01*
X50940Y110281D01*
X50968Y110254D01*
X50971Y110251D01*
X50976Y110248D01*
X50984Y110240D01*
X50995Y110232D01*
X51009Y110221D01*
X51028Y110207D01*
X51050Y110194D01*
X51074Y110183D01*
X51099Y110169D01*
X51129Y110155D01*
X51197Y110131D01*
X51274Y110115D01*
X51317Y110112D01*
X51361Y110109D01*
X51364D01*
X51369D01*
X51377D01*
X51388D01*
X51402Y110112D01*
X51418D01*
X51459Y110117D01*
X51506Y110125D01*
X51557Y110136D01*
X51612Y110153D01*
X51667Y110175D01*
X51669D01*
X51672Y110177D01*
X51680Y110183D01*
X51691Y110188D01*
X51716Y110202D01*
X51749Y110224D01*
X51784Y110251D01*
X51819Y110284D01*
X51855Y110319D01*
X51888Y110363D01*
Y110366D01*
X51890Y110368D01*
X51899Y110385D01*
X51912Y110409D01*
X51926Y110442D01*
X51940Y110480D01*
X51953Y110524D01*
X51961Y110573D01*
X51964Y110622D01*
Y110641D01*
X51961Y110655D01*
X51959Y110674D01*
X51956Y110693D01*
X51945Y110740D01*
X51926Y110792D01*
X51912Y110821D01*
X51899Y110849D01*
X51880Y110879D01*
X51860Y110906D01*
X51836Y110933D01*
X51809Y110961D01*
X51806Y110963D01*
X51800Y110966D01*
X51792Y110974D01*
X51779Y110983D01*
X51762Y110994D01*
X51743Y111004D01*
X51721Y111018D01*
X51694Y111032D01*
X51667Y111045D01*
X51634Y111059D01*
X51598Y111070D01*
X51560Y111081D01*
X51519Y111089D01*
X51473Y111097D01*
X51426Y111100D01*
X51377Y111103D01*
D02*
G37*
G36*
X51145Y105334D02*
X50446Y105069D01*
X50444D01*
X50433Y105064D01*
X50416Y105059D01*
X50392Y105050D01*
X50367Y105039D01*
X50334Y105028D01*
X50299Y105015D01*
X50261Y105001D01*
X50176Y104974D01*
X50089Y104944D01*
X50001Y104914D01*
X49919Y104889D01*
X49922D01*
X49930Y104886D01*
X49944Y104884D01*
X49960Y104881D01*
X49985Y104876D01*
X50010Y104870D01*
X50039Y104862D01*
X50072Y104854D01*
X50108Y104846D01*
X50146Y104835D01*
X50228Y104810D01*
X50315Y104783D01*
X50405Y104753D01*
X51145Y104474D01*
Y105334D01*
D02*
G37*
G36*
X48627Y148048D02*
X48625D01*
X48619D01*
X48611D01*
X48597Y148045D01*
X48584D01*
X48564Y148042D01*
X48524Y148031D01*
X48477Y148015D01*
X48428Y147993D01*
X48382Y147960D01*
X48357Y147939D01*
X48335Y147917D01*
X48332Y147914D01*
X48330Y147911D01*
X48324Y147903D01*
X48316Y147892D01*
X48308Y147879D01*
X48297Y147860D01*
X48286Y147840D01*
X48275Y147816D01*
X48264Y147789D01*
X48256Y147758D01*
X48245Y147726D01*
X48237Y147690D01*
X48229Y147649D01*
X48223Y147606D01*
X48218Y147559D01*
Y146710D01*
X49050D01*
Y147464D01*
X49048Y147483D01*
Y147505D01*
X49045Y147556D01*
X49040Y147614D01*
X49031Y147674D01*
X49020Y147731D01*
X49004Y147783D01*
Y147786D01*
X49001Y147789D01*
X48996Y147805D01*
X48985Y147827D01*
X48968Y147857D01*
X48947Y147887D01*
X48922Y147919D01*
X48889Y147952D01*
X48854Y147980D01*
X48848Y147982D01*
X48835Y147991D01*
X48816Y148001D01*
X48786Y148015D01*
X48753Y148026D01*
X48715Y148037D01*
X48671Y148045D01*
X48627Y148048D01*
D02*
G37*
G36*
X49203Y145599D02*
X49200D01*
X49190D01*
X49173D01*
X49151Y145596D01*
X49124D01*
X49094Y145594D01*
X49059Y145591D01*
X49020Y145585D01*
X48936Y145574D01*
X48846Y145555D01*
X48756Y145528D01*
X48665Y145493D01*
X48663D01*
X48655Y145487D01*
X48644Y145482D01*
X48627Y145474D01*
X48608Y145463D01*
X48586Y145449D01*
X48534Y145416D01*
X48477Y145372D01*
X48420Y145321D01*
X48362Y145261D01*
X48311Y145189D01*
X48308Y145187D01*
X48305Y145181D01*
X48300Y145170D01*
X48292Y145154D01*
X48281Y145135D01*
X48270Y145113D01*
X48259Y145089D01*
X48245Y145059D01*
X48234Y145026D01*
X48223Y144993D01*
X48201Y144916D01*
X48188Y144832D01*
X48182Y144785D01*
Y144723D01*
X48185Y144706D01*
Y144679D01*
X48190Y144649D01*
X48196Y144614D01*
X48204Y144575D01*
X48212Y144532D01*
X48226Y144485D01*
X48242Y144436D01*
X48261Y144384D01*
X48286Y144335D01*
X48313Y144283D01*
X48346Y144231D01*
X48384Y144179D01*
X48428Y144130D01*
X48431Y144128D01*
X48439Y144119D01*
X48455Y144106D01*
X48474Y144092D01*
X48502Y144070D01*
X48534Y144051D01*
X48575Y144027D01*
X48619Y144005D01*
X48674Y143980D01*
X48734Y143956D01*
X48799Y143937D01*
X48873Y143917D01*
X48952Y143901D01*
X49040Y143887D01*
X49135Y143879D01*
X49239Y143876D01*
X49244D01*
X49258D01*
X49283Y143879D01*
X49315D01*
X49353Y143885D01*
X49397Y143890D01*
X49446Y143895D01*
X49498Y143906D01*
X49556Y143920D01*
X49615Y143937D01*
X49673Y143956D01*
X49733Y143980D01*
X49793Y144007D01*
X49850Y144040D01*
X49905Y144076D01*
X49957Y144119D01*
X49959Y144122D01*
X49968Y144130D01*
X49981Y144144D01*
X49998Y144163D01*
X50017Y144188D01*
X50039Y144218D01*
X50063Y144250D01*
X50085Y144289D01*
X50110Y144330D01*
X50134Y144379D01*
X50156Y144428D01*
X50175Y144483D01*
X50191Y144540D01*
X50205Y144603D01*
X50213Y144665D01*
X50216Y144734D01*
Y144750D01*
X50213Y144769D01*
X50211Y144796D01*
X50208Y144829D01*
X50203Y144865D01*
X50194Y144908D01*
X50183Y144952D01*
X50170Y145001D01*
X50153Y145050D01*
X50131Y145102D01*
X50104Y145154D01*
X50074Y145206D01*
X50041Y145258D01*
X50000Y145307D01*
X49954Y145353D01*
X49951Y145356D01*
X49940Y145364D01*
X49927Y145375D01*
X49905Y145392D01*
X49878Y145411D01*
X49845Y145432D01*
X49807Y145454D01*
X49760Y145476D01*
X49711Y145498D01*
X49654Y145523D01*
X49594Y145542D01*
X49525Y145561D01*
X49452Y145577D01*
X49375Y145588D01*
X49291Y145596D01*
X49203Y145599D01*
D02*
G37*
G36*
X57179Y145913D02*
X57176D01*
X57171D01*
X57163D01*
X57152D01*
X57122Y145908D01*
X57086Y145903D01*
X57043Y145894D01*
X56999Y145878D01*
X56953Y145859D01*
X56909Y145832D01*
X56903Y145829D01*
X56890Y145818D01*
X56871Y145799D01*
X56849Y145777D01*
X56824Y145744D01*
X56800Y145709D01*
X56778Y145668D01*
X56761Y145621D01*
Y145619D01*
X56759Y145605D01*
X56753Y145583D01*
X56748Y145550D01*
Y145531D01*
X56745Y145509D01*
X56742Y145482D01*
X56740Y145455D01*
Y145422D01*
X56737Y145389D01*
Y144666D01*
X57638D01*
Y145346D01*
X57635Y145367D01*
Y145395D01*
X57632Y145425D01*
X57627Y145460D01*
X57621Y145496D01*
X57608Y145572D01*
X57586Y145649D01*
X57572Y145684D01*
X57556Y145717D01*
X57539Y145750D01*
X57518Y145777D01*
X57515Y145780D01*
X57512Y145782D01*
X57504Y145791D01*
X57496Y145799D01*
X57468Y145821D01*
X57430Y145845D01*
X57381Y145870D01*
X57324Y145892D01*
X57256Y145908D01*
X57220Y145911D01*
X57179Y145913D01*
D02*
G37*
G36*
X58230Y141182D02*
X58227D01*
X58225D01*
X58217D01*
X58206D01*
X58181Y141180D01*
X58146Y141174D01*
X58107Y141163D01*
X58066Y141152D01*
X58025Y141133D01*
X57985Y141109D01*
X57979Y141106D01*
X57968Y141095D01*
X57949Y141079D01*
X57927Y141057D01*
X57903Y141027D01*
X57881Y140991D01*
X57859Y140953D01*
X57840Y140907D01*
Y140904D01*
X57837Y140901D01*
X57834Y140893D01*
X57832Y140882D01*
X57829Y140868D01*
X57826Y140855D01*
X57821Y140836D01*
X57818Y140814D01*
X57812Y140787D01*
X57810Y140759D01*
X57807Y140729D01*
X57802Y140696D01*
X57799Y140623D01*
X57796Y140538D01*
Y139956D01*
X58662D01*
Y140639D01*
X58659Y140674D01*
Y140710D01*
X58656Y140748D01*
X58653Y140784D01*
X58651Y140811D01*
Y140816D01*
X58648Y140830D01*
X58642Y140852D01*
X58634Y140879D01*
X58626Y140909D01*
X58612Y140939D01*
X58599Y140972D01*
X58582Y141002D01*
X58580Y141005D01*
X58574Y141016D01*
X58563Y141029D01*
X58547Y141049D01*
X58528Y141068D01*
X58503Y141089D01*
X58476Y141111D01*
X58443Y141130D01*
X58438Y141133D01*
X58427Y141139D01*
X58408Y141147D01*
X58380Y141158D01*
X58350Y141166D01*
X58315Y141174D01*
X58274Y141180D01*
X58230Y141182D01*
D02*
G37*
G36*
X57125Y141076D02*
X57122D01*
X57119D01*
X57103D01*
X57081Y141073D01*
X57051Y141068D01*
X57015Y141060D01*
X56977Y141049D01*
X56939Y141035D01*
X56903Y141013D01*
X56898Y141010D01*
X56887Y141002D01*
X56871Y140989D01*
X56852Y140969D01*
X56830Y140945D01*
X56808Y140915D01*
X56789Y140882D01*
X56772Y140841D01*
X56770Y140836D01*
Y140830D01*
X56767Y140819D01*
X56764Y140808D01*
X56761Y140792D01*
X56759Y140773D01*
X56753Y140754D01*
X56751Y140729D01*
X56748Y140699D01*
X56745Y140669D01*
X56742Y140634D01*
X56740Y140595D01*
Y140554D01*
X56737Y140508D01*
Y139956D01*
X57499D01*
Y140554D01*
X57496Y140576D01*
Y140623D01*
X57493Y140674D01*
X57488Y140729D01*
X57479Y140778D01*
X57477Y140800D01*
X57471Y140819D01*
Y140822D01*
X57468Y140825D01*
X57463Y140841D01*
X57455Y140863D01*
X57441Y140890D01*
X57425Y140920D01*
X57403Y140953D01*
X57376Y140983D01*
X57346Y141010D01*
X57340Y141013D01*
X57329Y141021D01*
X57310Y141032D01*
X57286Y141043D01*
X57253Y141054D01*
X57215Y141065D01*
X57174Y141073D01*
X57125Y141076D01*
D02*
G37*
G36*
X80231Y69026D02*
Y68166D01*
X80930Y68431D01*
X80932D01*
X80943Y68436D01*
X80960Y68441D01*
X80984Y68450D01*
X81009Y68461D01*
X81042Y68471D01*
X81077Y68485D01*
X81115Y68499D01*
X81200Y68526D01*
X81287Y68556D01*
X81375Y68586D01*
X81457Y68611D01*
X81454D01*
X81446Y68613D01*
X81432Y68616D01*
X81416Y68619D01*
X81391Y68624D01*
X81366Y68630D01*
X81336Y68638D01*
X81304Y68646D01*
X81268Y68654D01*
X81230Y68665D01*
X81148Y68690D01*
X81061Y68717D01*
X80971Y68747D01*
X80231Y69026D01*
D02*
G37*
G36*
X54731D02*
Y68166D01*
X55430Y68431D01*
X55432D01*
X55443Y68436D01*
X55460Y68441D01*
X55484Y68450D01*
X55509Y68461D01*
X55542Y68471D01*
X55577Y68485D01*
X55615Y68499D01*
X55700Y68526D01*
X55787Y68556D01*
X55875Y68586D01*
X55957Y68611D01*
X55954D01*
X55946Y68613D01*
X55932Y68616D01*
X55916Y68619D01*
X55891Y68624D01*
X55866Y68630D01*
X55836Y68638D01*
X55804Y68646D01*
X55768Y68654D01*
X55730Y68665D01*
X55648Y68690D01*
X55561Y68717D01*
X55471Y68747D01*
X54731Y69026D01*
D02*
G37*
G36*
X122293Y86804D02*
X122263D01*
X122247Y86802D01*
X122228D01*
X122184Y86796D01*
X122132Y86788D01*
X122075Y86777D01*
X122015Y86761D01*
X121955Y86739D01*
X121958D01*
X121963Y86733D01*
X121971Y86728D01*
X121982Y86722D01*
X121996Y86714D01*
X122015Y86703D01*
X122056Y86681D01*
X122105Y86660D01*
X122160Y86635D01*
X122222Y86613D01*
X122285Y86594D01*
X122206Y86351D01*
X122203D01*
X122192Y86354D01*
X122179Y86359D01*
X122157Y86367D01*
X122132Y86376D01*
X122105Y86387D01*
X122072Y86398D01*
X122037Y86411D01*
X121963Y86447D01*
X121881Y86488D01*
X121802Y86537D01*
X121728Y86591D01*
X121725Y86589D01*
X121715Y86578D01*
X121701Y86564D01*
X121682Y86542D01*
X121660Y86512D01*
X121635Y86479D01*
X121608Y86439D01*
X121581Y86389D01*
X121554Y86338D01*
X121526Y86277D01*
X121502Y86212D01*
X121480Y86138D01*
X121461Y86059D01*
X121447Y85974D01*
X121436Y85884D01*
X121433Y85786D01*
Y85783D01*
Y85772D01*
Y85756D01*
X121436Y85734D01*
Y85707D01*
X121439Y85677D01*
X121442Y85641D01*
X121447Y85606D01*
X121458Y85521D01*
X121477Y85431D01*
X121504Y85341D01*
X121540Y85254D01*
Y85251D01*
X121545Y85243D01*
X121551Y85232D01*
X121559Y85216D01*
X121570Y85196D01*
X121583Y85175D01*
X121616Y85123D01*
X121660Y85065D01*
X121712Y85008D01*
X121772Y84951D01*
X121843Y84899D01*
X121846Y84896D01*
X121851Y84893D01*
X121862Y84888D01*
X121878Y84880D01*
X121897Y84869D01*
X121919Y84858D01*
X121944Y84847D01*
X121974Y84833D01*
X122007Y84822D01*
X122039Y84811D01*
X122116Y84790D01*
X122201Y84776D01*
X122247Y84771D01*
X122310D01*
X122329Y84773D01*
X122356D01*
X122386Y84779D01*
X122424Y84784D01*
X122465Y84792D01*
X122509Y84803D01*
X122558Y84817D01*
X122607Y84833D01*
X122659Y84855D01*
X122711Y84880D01*
X122763Y84907D01*
X122812Y84943D01*
X122864Y84981D01*
X122910Y85027D01*
X122913Y85030D01*
X122921Y85038D01*
X122932Y85054D01*
X122949Y85074D01*
X122968Y85101D01*
X122987Y85134D01*
X123011Y85172D01*
X123033Y85218D01*
X123055Y85267D01*
X123077Y85325D01*
X123099Y85387D01*
X123118Y85456D01*
X123134Y85529D01*
X123145Y85611D01*
X123153Y85696D01*
X123156Y85789D01*
Y85794D01*
Y85811D01*
X123153Y85835D01*
Y85871D01*
X123148Y85912D01*
X123142Y85958D01*
X123137Y86010D01*
X123126Y86067D01*
X123112Y86127D01*
X123096Y86187D01*
X123077Y86250D01*
X123052Y86313D01*
X123025Y86376D01*
X122992Y86436D01*
X122957Y86490D01*
X122913Y86542D01*
X122910Y86545D01*
X122902Y86553D01*
X122889Y86567D01*
X122869Y86583D01*
X122845Y86602D01*
X122818Y86624D01*
X122782Y86649D01*
X122744Y86673D01*
X122703Y86698D01*
X122654Y86722D01*
X122605Y86744D01*
X122550Y86763D01*
X122490Y86780D01*
X122427Y86793D01*
X122362Y86802D01*
X122293Y86804D01*
D02*
G37*
G36*
X130832Y88171D02*
X130829D01*
X130823D01*
X130815D01*
X130801Y88168D01*
X130788D01*
X130769Y88165D01*
X130728Y88154D01*
X130681Y88138D01*
X130632Y88116D01*
X130586Y88083D01*
X130561Y88061D01*
X130540Y88040D01*
X130537Y88037D01*
X130534Y88034D01*
X130528Y88026D01*
X130520Y88015D01*
X130512Y88001D01*
X130501Y87982D01*
X130490Y87963D01*
X130479Y87939D01*
X130468Y87911D01*
X130460Y87881D01*
X130449Y87849D01*
X130441Y87813D01*
X130433Y87772D01*
X130428Y87728D01*
X130422Y87682D01*
Y86833D01*
X131255D01*
Y87586D01*
X131252Y87606D01*
Y87627D01*
X131249Y87679D01*
X131244Y87737D01*
X131236Y87797D01*
X131225Y87854D01*
X131208Y87906D01*
Y87909D01*
X131206Y87911D01*
X131200Y87928D01*
X131189Y87950D01*
X131173Y87980D01*
X131151Y88010D01*
X131126Y88042D01*
X131094Y88075D01*
X131058Y88103D01*
X131053Y88105D01*
X131039Y88113D01*
X131020Y88124D01*
X130990Y88138D01*
X130957Y88149D01*
X130919Y88160D01*
X130875Y88168D01*
X130832Y88171D01*
D02*
G37*
G36*
X114481Y83667D02*
X112557D01*
Y83088D01*
X112559Y83066D01*
Y83042D01*
X112562Y82987D01*
X112568Y82924D01*
X112576Y82859D01*
X112587Y82796D01*
X112600Y82739D01*
Y82736D01*
X112603Y82733D01*
X112606Y82725D01*
X112609Y82714D01*
X112619Y82689D01*
X112633Y82657D01*
X112652Y82621D01*
X112674Y82583D01*
X112701Y82545D01*
X112731Y82512D01*
X112734Y82509D01*
X112737Y82507D01*
X112753Y82493D01*
X112780Y82471D01*
X112816Y82444D01*
X112862Y82416D01*
X112917Y82386D01*
X112980Y82356D01*
X113051Y82329D01*
X113054D01*
X113059Y82326D01*
X113070Y82324D01*
X113086Y82318D01*
X113105Y82313D01*
X113130Y82307D01*
X113157Y82302D01*
X113187Y82293D01*
X113220Y82288D01*
X113258Y82283D01*
X113296Y82277D01*
X113340Y82272D01*
X113433Y82263D01*
X113537Y82261D01*
X113542D01*
X113553D01*
X113575D01*
X113602Y82263D01*
X113635D01*
X113673Y82266D01*
X113714Y82272D01*
X113761Y82277D01*
X113859Y82293D01*
X113960Y82315D01*
X114055Y82348D01*
X114102Y82370D01*
X114143Y82392D01*
X114146Y82395D01*
X114151Y82397D01*
X114162Y82406D01*
X114178Y82416D01*
X114195Y82427D01*
X114214Y82444D01*
X114257Y82479D01*
X114307Y82526D01*
X114353Y82580D01*
X114397Y82640D01*
X114413Y82673D01*
X114429Y82709D01*
Y82711D01*
X114432Y82714D01*
X114435Y82722D01*
X114438Y82733D01*
X114440Y82749D01*
X114446Y82766D01*
X114451Y82788D01*
X114457Y82812D01*
X114460Y82840D01*
X114465Y82872D01*
X114470Y82908D01*
X114473Y82946D01*
X114476Y82990D01*
X114479Y83036D01*
X114481Y83085D01*
Y83667D01*
D02*
G37*
%LPD*%
D12*
X87669Y117165D02*
X96331D01*
Y112835D02*
Y117165D01*
X87669Y112835D02*
X96331D01*
X87669D02*
Y117165D01*
X86312Y108634D02*
X97959D01*
Y100366D02*
Y108634D01*
X86312Y100366D02*
X97959D01*
X86312D02*
Y108634D01*
X87737Y133264D02*
X96263D01*
Y128736D02*
Y133264D01*
X87737Y128736D02*
X96263D01*
X87737D02*
Y133264D01*
X101268Y106780D02*
X112733D01*
Y101220D02*
Y106780D01*
X101268Y101220D02*
X112733D01*
X101268D02*
Y106780D01*
X87736Y150264D02*
X96263D01*
Y145736D02*
Y150264D01*
X87736Y145736D02*
X96263D01*
X87736D02*
Y150264D01*
X66673Y120748D02*
X77327D01*
Y114252D02*
Y120748D01*
X66673Y114252D02*
X77327D01*
X66673D02*
Y120748D01*
X59907Y86055D02*
X71718D01*
X59907Y67945D02*
Y86055D01*
Y67945D02*
X71718D01*
Y86055D01*
X59782Y87445D02*
X71593D01*
Y105555D01*
X59782D02*
X71593D01*
X59782Y87445D02*
Y105555D01*
X72594Y87445D02*
X84405D01*
Y105555D01*
X72594D02*
X84405D01*
X72594Y87445D02*
Y105555D01*
X72326Y145122D02*
Y150878D01*
Y145122D02*
X83609D01*
Y150878D01*
X72326D02*
X83609D01*
X46970Y87445D02*
X58781D01*
Y105555D01*
X46970D02*
X58781D01*
X46970Y87445D02*
Y105555D01*
X48335Y132169D02*
X52665D01*
Y140831D01*
X48335D02*
X52665D01*
X48335Y132169D02*
Y140831D01*
X55752Y131673D02*
X62248D01*
Y142327D01*
X55752D02*
X62248D01*
X55752Y131673D02*
Y142327D01*
X72594Y86055D02*
X84405D01*
X72594Y67945D02*
Y86055D01*
Y67945D02*
X84405D01*
Y86055D01*
X47095D02*
X58906D01*
X47095Y67945D02*
Y86055D01*
Y67945D02*
X58906D01*
Y86055D01*
X117756Y80122D02*
X129244D01*
X117756D02*
Y92878D01*
X129244D01*
Y80122D02*
Y92878D01*
X130498Y80988D02*
Y92012D01*
X134829D01*
Y80988D02*
Y92012D01*
X130498Y80988D02*
X134829D01*
X116740Y80063D02*
Y87937D01*
X109260Y80063D02*
X116740D01*
X109260D02*
Y87937D01*
X116740D01*
D70*
X173339Y99098D02*
Y148902D01*
X115661Y99098D02*
X173339D01*
X115661D02*
Y148902D01*
X173339D01*
X155917Y97031D02*
Y150969D01*
M02*
