G04*
G04 #@! TF.GenerationSoftware,Altium Limited,Altium Designer,25.8.1 (18)*
G04*
G04 Layer_Color=8388736*
%FSLAX25Y25*%
%MOIN*%
G70*
G04*
G04 #@! TF.SameCoordinates,1F430A3A-8F33-46F7-BF41-0B8A99DE0E04*
G04*
G04*
G04 #@! TF.FilePolarity,Negative*
G04*
G01*
G75*
%ADD17R,0.02559X0.02756*%
G04:AMPARAMS|DCode=18|XSize=49.49mil|YSize=14.8mil|CornerRadius=7.4mil|HoleSize=0mil|Usage=FLASHONLY|Rotation=0.000|XOffset=0mil|YOffset=0mil|HoleType=Round|Shape=RoundedRectangle|*
%AMROUNDEDRECTD18*
21,1,0.04949,0.00000,0,0,0.0*
21,1,0.03470,0.01480,0,0,0.0*
1,1,0.01480,0.01735,0.00000*
1,1,0.01480,-0.01735,0.00000*
1,1,0.01480,-0.01735,0.00000*
1,1,0.01480,0.01735,0.00000*
%
%ADD18ROUNDEDRECTD18*%
%ADD19R,0.04949X0.01480*%
%ADD20R,0.02894X0.03394*%
%ADD21R,0.03775X0.03591*%
%ADD23R,0.02190X0.05339*%
%ADD25C,0.03543*%
%ADD26R,0.05339X0.02190*%
%ADD27R,0.02756X0.02559*%
%ADD28R,0.03681X0.03788*%
%ADD30R,0.08071X0.04331*%
%ADD32R,0.02900X0.02200*%
%ADD33R,0.03150X0.03543*%
%ADD34R,0.01575X0.02008*%
%ADD36R,0.04343X0.04934*%
%ADD37R,0.03556X0.04343*%
G04:AMPARAMS|DCode=38|XSize=88.71mil|YSize=88.71mil|CornerRadius=6.02mil|HoleSize=0mil|Usage=FLASHONLY|Rotation=90.000|XOffset=0mil|YOffset=0mil|HoleType=Round|Shape=RoundedRectangle|*
%AMROUNDEDRECTD38*
21,1,0.08871,0.07667,0,0,90.0*
21,1,0.07667,0.08871,0,0,90.0*
1,1,0.01204,0.03834,0.03834*
1,1,0.01204,0.03834,-0.03834*
1,1,0.01204,-0.03834,-0.03834*
1,1,0.01204,-0.03834,0.03834*
%
%ADD38ROUNDEDRECTD38*%
G04:AMPARAMS|DCode=39|XSize=17.45mil|YSize=31.62mil|CornerRadius=5.98mil|HoleSize=0mil|Usage=FLASHONLY|Rotation=180.000|XOffset=0mil|YOffset=0mil|HoleType=Round|Shape=RoundedRectangle|*
%AMROUNDEDRECTD39*
21,1,0.01745,0.01965,0,0,180.0*
21,1,0.00548,0.03162,0,0,180.0*
1,1,0.01197,-0.00274,0.00983*
1,1,0.01197,0.00274,0.00983*
1,1,0.01197,0.00274,-0.00983*
1,1,0.01197,-0.00274,-0.00983*
%
%ADD39ROUNDEDRECTD39*%
G04:AMPARAMS|DCode=40|XSize=17.45mil|YSize=31.62mil|CornerRadius=5.98mil|HoleSize=0mil|Usage=FLASHONLY|Rotation=90.000|XOffset=0mil|YOffset=0mil|HoleType=Round|Shape=RoundedRectangle|*
%AMROUNDEDRECTD40*
21,1,0.01745,0.01965,0,0,90.0*
21,1,0.00548,0.03162,0,0,90.0*
1,1,0.01197,0.00983,0.00274*
1,1,0.01197,0.00983,-0.00274*
1,1,0.01197,-0.00983,-0.00274*
1,1,0.01197,-0.00983,0.00274*
%
%ADD40ROUNDEDRECTD40*%
%ADD41R,0.04934X0.04343*%
%ADD42R,0.10800X0.10800*%
%ADD43C,0.10800*%
G04:AMPARAMS|DCode=44|XSize=70.99mil|YSize=70.99mil|CornerRadius=19.75mil|HoleSize=0mil|Usage=FLASHONLY|Rotation=270.000|XOffset=0mil|YOffset=0mil|HoleType=Round|Shape=RoundedRectangle|*
%AMROUNDEDRECTD44*
21,1,0.07099,0.03150,0,0,270.0*
21,1,0.03150,0.07099,0,0,270.0*
1,1,0.03950,-0.01575,-0.01575*
1,1,0.03950,-0.01575,0.01575*
1,1,0.03950,0.01575,0.01575*
1,1,0.03950,0.01575,-0.01575*
%
%ADD44ROUNDEDRECTD44*%
%ADD45C,0.07099*%
%ADD46C,0.06803*%
%ADD47R,0.10800X0.10800*%
%ADD48C,0.02769*%
G36*
X149552Y150275D02*
X150106Y149721D01*
X150406Y148998D01*
Y148606D01*
Y146244D01*
X146468D01*
X146468Y148606D01*
Y148998D01*
X146768Y149721D01*
X147322Y150275D01*
X148045Y150575D01*
X148828D01*
X149552Y150275D01*
D02*
G37*
G36*
X143647D02*
X144200Y149721D01*
X144500Y148998D01*
Y148606D01*
Y142701D01*
X140563D01*
X140563Y148606D01*
Y148998D01*
X140863Y149721D01*
X141416Y150275D01*
X142140Y150575D01*
X142923D01*
X143647Y150275D01*
D02*
G37*
G36*
X137741D02*
X138295Y149721D01*
X138594Y148998D01*
Y148606D01*
X138594D01*
Y142701D01*
X134658D01*
Y148606D01*
Y148998D01*
X134957Y149721D01*
X135511Y150275D01*
X136234Y150575D01*
X137018D01*
X137741Y150275D01*
D02*
G37*
G36*
X131835D02*
X132389Y149721D01*
X132689Y148998D01*
Y148606D01*
X132689D01*
Y142701D01*
X128752D01*
Y148606D01*
Y148998D01*
X129052Y149721D01*
X129605Y150275D01*
X130329Y150575D01*
X131112D01*
X131835Y150275D01*
D02*
G37*
G36*
X125930D02*
X126484Y149721D01*
X126783Y148998D01*
Y148606D01*
Y142701D01*
X122846D01*
Y148606D01*
Y148998D01*
X123146Y149721D01*
X123700Y150275D01*
X124423Y150575D01*
X125206D01*
X125930Y150275D01*
D02*
G37*
G36*
X121862Y136795D02*
X115565D01*
X114842Y137095D01*
X114288Y137649D01*
X113988Y138372D01*
Y138764D01*
Y139155D01*
X114288Y139879D01*
X114842Y140433D01*
X115565Y140732D01*
X121862D01*
Y136795D01*
D02*
G37*
G36*
Y130890D02*
X115957Y130890D01*
X115565D01*
X114842Y131190D01*
X114288Y131743D01*
X113988Y132467D01*
Y132858D01*
Y133250D01*
X114288Y133973D01*
X114842Y134527D01*
X115565Y134827D01*
X121862D01*
Y130890D01*
D02*
G37*
G36*
Y124984D02*
X115957Y124984D01*
X115565D01*
X114842Y125284D01*
X114288Y125838D01*
X113988Y126561D01*
Y126953D01*
Y127344D01*
X114288Y128068D01*
X114842Y128622D01*
X115565Y128921D01*
X121862D01*
Y124984D01*
D02*
G37*
G36*
X63017Y128862D02*
X63068Y128852D01*
X63118Y128835D01*
X63165Y128812D01*
X63209Y128783D01*
X63248Y128748D01*
X63283Y128709D01*
X63312Y128665D01*
X63335Y128618D01*
X63352Y128568D01*
X63362Y128517D01*
X63365Y128465D01*
Y122165D01*
X63362Y122113D01*
X63352Y122062D01*
X63335Y122012D01*
X63312Y121965D01*
X63283Y121921D01*
X63248Y121882D01*
X63209Y121847D01*
X63165Y121818D01*
X63118Y121795D01*
X63068Y121778D01*
X63017Y121768D01*
X62965Y121765D01*
X59138Y121765D01*
X59130Y121765D01*
X59122Y121765D01*
X59104Y121767D01*
X59086Y121768D01*
X59078Y121769D01*
X59070Y121770D01*
X59052Y121775D01*
X59034Y121778D01*
X59027Y121781D01*
X59019Y121783D01*
X59002Y121789D01*
X58985Y121795D01*
X58977Y121799D01*
X58970Y121801D01*
X58954Y121810D01*
X58938Y121818D01*
X58931Y121823D01*
X58924Y121826D01*
X58909Y121837D01*
X58894Y121847D01*
X58888Y121853D01*
X58881Y121857D01*
X58868Y121870D01*
X58855Y121882D01*
X58849Y121888D01*
X58843Y121893D01*
X58832Y121908D01*
X58820Y121921D01*
X58815Y121928D01*
X58811Y121934D01*
X58801Y121950D01*
X58791Y121965D01*
X58787Y121972D01*
X58783Y121979D01*
X58571Y122382D01*
X58045Y123111D01*
X57397Y123721D01*
X56647Y124199D01*
X55819Y124528D01*
X54945Y124695D01*
X54055Y124695D01*
X53181Y124528D01*
X52354Y124199D01*
X51604Y123721D01*
X50956Y123111D01*
X50429Y122382D01*
X50217Y121979D01*
X50213Y121972D01*
X50210Y121965D01*
X50200Y121950D01*
X50190Y121934D01*
X50185Y121928D01*
X50181Y121922D01*
X50169Y121908D01*
X50157Y121894D01*
X50151Y121888D01*
X50146Y121882D01*
X50132Y121870D01*
X50119Y121858D01*
X50113Y121853D01*
X50107Y121848D01*
X50091Y121837D01*
X50077Y121827D01*
X50070Y121823D01*
X50063Y121818D01*
X50047Y121810D01*
X50030Y121802D01*
X50023Y121799D01*
X50016Y121795D01*
X49999Y121789D01*
X49982Y121783D01*
X49974Y121781D01*
X49966Y121778D01*
X49948Y121775D01*
X49931Y121771D01*
X49923Y121770D01*
X49915Y121768D01*
X49897Y121767D01*
X49878Y121765D01*
X49871Y121765D01*
X49863Y121765D01*
X49863Y121765D01*
X46035Y121765D01*
X46035D01*
X46035D01*
X45983Y121768D01*
X45952Y121774D01*
X45932Y121778D01*
X45932Y121778D01*
D01*
X45929Y121779D01*
X45882Y121795D01*
X45835Y121818D01*
D01*
X45835Y121818D01*
X45820Y121828D01*
X45791Y121847D01*
X45752Y121882D01*
X45752Y121882D01*
X45752Y121882D01*
X45717Y121921D01*
X45698Y121950D01*
X45688Y121965D01*
X45688Y121965D01*
D01*
X45665Y122012D01*
X45649Y122059D01*
X45648Y122062D01*
D01*
X45648Y122062D01*
X45644Y122082D01*
X45638Y122113D01*
X45635Y122165D01*
Y122165D01*
Y122165D01*
Y128465D01*
X45638Y128517D01*
X45648Y128568D01*
X45665Y128618D01*
X45688Y128665D01*
X45717Y128709D01*
X45752Y128748D01*
X45791Y128783D01*
X45835Y128812D01*
X45882Y128835D01*
X45932Y128852D01*
X45983Y128862D01*
X46035Y128865D01*
X62965D01*
X63017Y128862D01*
D02*
G37*
G36*
X121862Y119079D02*
X115565D01*
X114842Y119378D01*
X114288Y119932D01*
X113988Y120656D01*
Y121047D01*
Y121439D01*
X114288Y122162D01*
X114842Y122716D01*
X115565Y123016D01*
X115957D01*
Y123016D01*
X121862D01*
Y119079D01*
D02*
G37*
G36*
X63017Y118232D02*
X63047Y118226D01*
X63068Y118222D01*
X63068Y118222D01*
D01*
X63071Y118221D01*
X63118Y118205D01*
X63165Y118182D01*
D01*
X63165Y118182D01*
X63180Y118172D01*
X63209Y118153D01*
X63248Y118118D01*
X63248Y118118D01*
X63248Y118118D01*
X63283Y118079D01*
X63302Y118050D01*
X63312Y118035D01*
X63312Y118035D01*
D01*
X63335Y117988D01*
X63351Y117941D01*
X63352Y117938D01*
D01*
X63352Y117938D01*
X63356Y117918D01*
X63362Y117887D01*
X63365Y117835D01*
Y117835D01*
Y117835D01*
Y111535D01*
X63362Y111483D01*
X63352Y111432D01*
X63335Y111382D01*
X63312Y111335D01*
X63283Y111291D01*
X63248Y111252D01*
X63209Y111217D01*
X63165Y111188D01*
X63118Y111165D01*
X63068Y111148D01*
X63017Y111138D01*
X62965Y111135D01*
X46035D01*
X45983Y111138D01*
X45932Y111148D01*
X45882Y111165D01*
X45835Y111188D01*
X45791Y111217D01*
X45752Y111252D01*
X45717Y111291D01*
X45688Y111335D01*
X45665Y111382D01*
X45648Y111432D01*
X45638Y111483D01*
X45635Y111535D01*
Y117835D01*
X45638Y117887D01*
X45648Y117938D01*
X45665Y117988D01*
X45688Y118035D01*
X45717Y118079D01*
X45752Y118118D01*
X45791Y118153D01*
X45835Y118182D01*
X45882Y118205D01*
X45932Y118222D01*
X45983Y118232D01*
X46035Y118236D01*
X49862Y118236D01*
X49870Y118235D01*
X49878Y118235D01*
X49896Y118233D01*
X49914Y118232D01*
X49922Y118230D01*
X49930Y118230D01*
X49948Y118225D01*
X49966Y118222D01*
X49973Y118219D01*
X49981Y118217D01*
X49998Y118211D01*
X50015Y118205D01*
X50023Y118201D01*
X50030Y118199D01*
X50046Y118190D01*
X50062Y118182D01*
X50069Y118177D01*
X50076Y118174D01*
X50091Y118163D01*
X50106Y118153D01*
X50112Y118147D01*
X50118Y118143D01*
X50132Y118130D01*
X50146Y118118D01*
X50151Y118112D01*
X50156Y118107D01*
X50168Y118093D01*
X50180Y118079D01*
X50184Y118072D01*
X50189Y118066D01*
X50199Y118050D01*
X50209Y118035D01*
X50213Y118028D01*
X50217Y118021D01*
X50429Y117618D01*
X50955Y116889D01*
X51603Y116279D01*
X52353Y115801D01*
X53181Y115472D01*
X54055Y115305D01*
X54945Y115305D01*
X55819Y115472D01*
X56646Y115801D01*
X57396Y116279D01*
X58044Y116889D01*
X58571Y117618D01*
X58783Y118021D01*
X58787Y118028D01*
X58790Y118035D01*
X58797Y118045D01*
X58803Y118055D01*
X58807Y118060D01*
X58810Y118066D01*
X58815Y118072D01*
X58819Y118078D01*
X58827Y118087D01*
X58834Y118097D01*
X58839Y118102D01*
X58843Y118106D01*
X58849Y118112D01*
X58854Y118118D01*
X58863Y118126D01*
X58871Y118134D01*
X58876Y118138D01*
X58881Y118142D01*
X58887Y118147D01*
X58893Y118152D01*
X58903Y118159D01*
X58913Y118166D01*
X58918Y118170D01*
X58923Y118173D01*
X58930Y118177D01*
X58937Y118182D01*
X58948Y118187D01*
X58958Y118193D01*
X58958Y118193D01*
X58964Y118195D01*
X58969Y118198D01*
X58977Y118201D01*
X58984Y118205D01*
X58995Y118209D01*
X59006Y118213D01*
X59013Y118215D01*
X59018Y118217D01*
X59026Y118219D01*
X59034Y118222D01*
X59045Y118224D01*
X59057Y118227D01*
X59063Y118228D01*
X59069Y118229D01*
X59077Y118230D01*
X59085Y118232D01*
X59097Y118233D01*
X59109Y118234D01*
X59115Y118234D01*
X59122Y118235D01*
X59129Y118235D01*
X59137Y118235D01*
X62964Y118236D01*
X62964D01*
X62965D01*
X63017Y118232D01*
D02*
G37*
G36*
X121862Y113173D02*
X115565D01*
X114842Y113473D01*
X114288Y114027D01*
X113988Y114750D01*
Y115142D01*
Y115533D01*
X114288Y116257D01*
X114842Y116811D01*
X115565Y117110D01*
X115957D01*
Y117110D01*
X121862D01*
Y113173D01*
D02*
G37*
G36*
Y107268D02*
X115565D01*
X114842Y107567D01*
X114288Y108121D01*
X113988Y108845D01*
Y109236D01*
Y109628D01*
X114288Y110351D01*
X114842Y110905D01*
X115565Y111205D01*
X121862D01*
Y107268D01*
D02*
G37*
G36*
X150406Y99394D02*
Y99002D01*
X150106Y98279D01*
X149552Y97725D01*
X148828Y97425D01*
X148045D01*
X147322Y97725D01*
X146768Y98279D01*
X146468Y99002D01*
Y99394D01*
X146468D01*
Y105299D01*
X150406D01*
Y99394D01*
D02*
G37*
G36*
X144500D02*
Y99002D01*
X144200Y98279D01*
X143647Y97725D01*
X142923Y97425D01*
X142140D01*
X141416Y97725D01*
X140863Y98279D01*
X140563Y99002D01*
Y99394D01*
X140563D01*
Y105299D01*
X144500D01*
Y99394D01*
D02*
G37*
G36*
X138594D02*
Y99002D01*
X138295Y98279D01*
X137741Y97725D01*
X137018Y97425D01*
X136234D01*
X135511Y97725D01*
X134957Y98279D01*
X134658Y99002D01*
Y99394D01*
Y105299D01*
X138594D01*
X138594Y99394D01*
D02*
G37*
G36*
X132689D02*
Y99002D01*
X132389Y98279D01*
X131835Y97725D01*
X131112Y97425D01*
X130329D01*
X129605Y97725D01*
X129052Y98279D01*
X128752Y99002D01*
Y99394D01*
Y105299D01*
X132689D01*
X132689Y99394D01*
D02*
G37*
G36*
X126783D02*
Y99002D01*
X126484Y98279D01*
X125930Y97725D01*
X125206Y97425D01*
X124423D01*
X123700Y97725D01*
X123146Y98279D01*
X122846Y99002D01*
Y99394D01*
Y105299D01*
X126783D01*
Y99394D01*
D02*
G37*
D17*
X94657Y115000D02*
D03*
X89342D02*
D03*
D18*
X94500Y104500D02*
D03*
X89771Y102532D02*
D03*
D19*
Y106468D02*
D03*
D20*
X89577Y131000D02*
D03*
X94423D02*
D03*
X89577Y148000D02*
D03*
X94423D02*
D03*
D21*
X109861Y104000D02*
D03*
X104139D02*
D03*
D23*
X68161Y117500D02*
D03*
X75839D02*
D03*
D25*
X142532Y146638D02*
D03*
X136626Y146439D02*
D03*
X130720D02*
D03*
X117925Y138764D02*
D03*
Y109236D02*
D03*
Y121047D02*
D03*
X118124Y132858D02*
D03*
X117925Y115142D02*
D03*
X148437Y148409D02*
D03*
X124815Y146638D02*
D03*
Y101362D02*
D03*
X130720D02*
D03*
X136626D02*
D03*
X142532D02*
D03*
X148437D02*
D03*
X118124Y126953D02*
D03*
D26*
X59000Y140839D02*
D03*
Y133161D02*
D03*
D27*
X50500Y139157D02*
D03*
Y133843D02*
D03*
D28*
X75151Y148000D02*
D03*
X80784D02*
D03*
D30*
X65812Y83496D02*
D03*
Y70504D02*
D03*
X65688Y90004D02*
D03*
Y102996D02*
D03*
X78500Y90004D02*
D03*
Y102996D02*
D03*
X53000Y70504D02*
D03*
X78500D02*
D03*
X52876Y102996D02*
D03*
Y90004D02*
D03*
X53000Y83496D02*
D03*
X78500D02*
D03*
D32*
X127400Y90250D02*
D03*
Y82750D02*
D03*
X119600Y86500D02*
D03*
D33*
X132663Y89846D02*
D03*
Y83153D02*
D03*
D34*
X113000Y81461D02*
D03*
X114969Y86539D02*
D03*
X111031D02*
D03*
D36*
X89342Y139500D02*
D03*
X94657D02*
D03*
D37*
X94756Y123000D02*
D03*
X89244D02*
D03*
D38*
X75000Y134430D02*
D03*
D39*
X71063Y127934D02*
D03*
X78937D02*
D03*
X71063Y140926D02*
D03*
X73032D02*
D03*
X75000D02*
D03*
X76968D02*
D03*
X78937D02*
D03*
X76968Y127934D02*
D03*
X75000D02*
D03*
X73032D02*
D03*
D40*
X68504Y130493D02*
D03*
Y134430D02*
D03*
Y136398D02*
D03*
Y138367D02*
D03*
X81496D02*
D03*
Y134430D02*
D03*
Y132461D02*
D03*
Y130493D02*
D03*
X68504Y132461D02*
D03*
X81496Y136398D02*
D03*
D41*
X139964Y83646D02*
D03*
Y89354D02*
D03*
D42*
X38545Y135454D02*
D03*
D43*
Y118955D02*
D03*
X115000Y73000D02*
D03*
D44*
X107000Y144500D02*
D03*
D45*
Y114500D02*
D03*
Y124500D02*
D03*
Y134500D02*
D03*
D46*
X38500Y148000D02*
D03*
Y89000D02*
D03*
Y79000D02*
D03*
Y107000D02*
D03*
X149000Y86500D02*
D03*
Y73500D02*
D03*
D47*
X131500Y73000D02*
D03*
D48*
X78051Y134430D02*
D03*
X75000Y131378D02*
D03*
Y137481D02*
D03*
X71949Y134430D02*
D03*
M02*
