G04*
G04 #@! TF.GenerationSoftware,Altium Limited,Altium Designer,25.8.1 (18)*
G04*
G04 Layer_Color=65535*
%FSLAX25Y25*%
%MOIN*%
G70*
G04*
G04 #@! TF.SameCoordinates,1F430A3A-8F33-46F7-BF41-0B8A99DE0E04*
G04*
G04*
G04 #@! TF.FilePolarity,Positive*
G04*
G01*
G75*
%ADD10C,0.00492*%
%ADD11C,0.00984*%
%ADD12C,0.00787*%
%ADD13C,0.00500*%
%ADD14C,0.00600*%
D10*
X151439Y150476D02*
G03*
X151439Y150476I-246J0D01*
G01*
D11*
X107492Y151862D02*
G03*
X107492Y151862I-492J0D01*
G01*
D12*
X88653Y117953D02*
X95346D01*
X88653Y112047D02*
X95346D01*
X88986Y100366D02*
X95285D01*
X88986Y108634D02*
X95285D01*
X89047Y134346D02*
X94953D01*
X89047Y127654D02*
X94953D01*
X102252Y100630D02*
X111748D01*
X102252Y107370D02*
X111748D01*
X89047Y151347D02*
X94953D01*
X89047Y144653D02*
X94953D01*
X70437Y114646D02*
X73563D01*
X70437Y120354D02*
X73563D01*
X91803Y121622D02*
X92197D01*
X91803Y124378D02*
X92197D01*
X101705Y108909D02*
X112295D01*
Y150091D01*
X101705D02*
X112295D01*
X101705Y108909D02*
Y150091D01*
X62571Y119016D02*
Y120984D01*
X46429Y119016D02*
Y120984D01*
X60300Y70110D02*
Y83890D01*
X71324Y70110D02*
Y83890D01*
X71200Y89610D02*
Y103390D01*
X60176Y89610D02*
Y103390D01*
X84012Y89610D02*
Y103390D01*
X72988Y89610D02*
Y103390D01*
X67224Y126654D02*
X69390D01*
X67224D02*
Y128918D01*
Y141418D02*
Y142205D01*
X68012D01*
X81988D02*
X82776D01*
Y141418D02*
Y142205D01*
X81988Y126654D02*
X82776D01*
Y127442D01*
X75015Y144260D02*
X80921D01*
X75015Y151543D02*
X80921D01*
X58388Y89610D02*
Y103390D01*
X47364Y89610D02*
Y103390D01*
X53453Y133153D02*
Y139847D01*
X47547Y133153D02*
Y139847D01*
X56146Y135437D02*
Y138563D01*
X61854Y135437D02*
Y138563D01*
X72988Y70110D02*
Y83890D01*
X84012Y70110D02*
Y83890D01*
X47488Y70110D02*
Y83890D01*
X58512Y70110D02*
Y83890D01*
X120744Y80516D02*
X124474D01*
X120744Y89076D02*
Y92484D01*
Y80516D02*
Y83924D01*
Y92484D02*
X124474D01*
X126256Y85326D02*
Y87674D01*
X130892Y86402D02*
Y86598D01*
X134435Y86402D02*
Y86598D01*
X116347Y82327D02*
Y84059D01*
X109653Y82327D02*
X110736D01*
X115264D02*
X116347D01*
X109653D02*
Y84059D01*
D13*
X115366Y98803D02*
X121370D01*
X115366Y142209D02*
Y149197D01*
Y98803D02*
Y105791D01*
Y149197D02*
X121370D01*
D14*
X35901Y128300D02*
X35501Y128700D01*
X34702D01*
X34302Y128300D01*
Y127900D01*
X34702Y127500D01*
X35501D01*
X35901Y127100D01*
Y126700D01*
X35501Y126300D01*
X34702D01*
X34302Y126700D01*
X37101Y126300D02*
X37901D01*
X38300Y126700D01*
Y127500D01*
X37901Y127900D01*
X37101D01*
X36701Y127500D01*
Y126700D01*
X37101Y126300D01*
X39100D02*
X39900D01*
X39500D01*
Y128700D01*
X39100D01*
X41499Y127900D02*
X42299D01*
X42699Y127500D01*
Y126300D01*
X41499D01*
X41100Y126700D01*
X41499Y127100D01*
X42699D01*
X43499Y127900D02*
Y126300D01*
Y127100D01*
X43899Y127500D01*
X44298Y127900D01*
X44698D01*
X37600Y111900D02*
X39200D01*
X38400Y112699D02*
Y111100D01*
X37600Y142600D02*
X39200D01*
X99599Y116300D02*
X99999Y116700D01*
Y117500D01*
X99599Y117900D01*
X98000D01*
X97600Y117500D01*
Y116700D01*
X98000Y116300D01*
X99999Y115501D02*
X97600D01*
Y113901D01*
X99999Y113101D02*
X97600D01*
X98400D01*
X99999Y111502D01*
X98800Y112702D01*
X97600Y111502D01*
X99599Y145800D02*
X99999Y146200D01*
Y147000D01*
X99599Y147400D01*
X98000D01*
X97600Y147000D01*
Y146200D01*
X98000Y145800D01*
X98800D01*
Y146600D01*
X97600Y145001D02*
X99999D01*
X97600Y143401D01*
X99999D01*
Y142602D02*
X97600D01*
Y141402D01*
X98000Y141002D01*
X99599D01*
X99999Y141402D01*
Y142602D01*
X99999Y127400D02*
X97600D01*
Y126200D01*
X98000Y125801D01*
X99599D01*
X99999Y126200D01*
Y127400D01*
Y125001D02*
Y124201D01*
Y124601D01*
X97600D01*
Y125001D01*
Y124201D01*
X99999Y121802D02*
Y122602D01*
X99599Y123001D01*
X98000D01*
X97600Y122602D01*
Y121802D01*
X98000Y121402D01*
X99599D01*
X99999Y121802D01*
X99999Y138400D02*
X98400D01*
X97600Y137600D01*
X98400Y136801D01*
X99999D01*
X99199Y136001D02*
X97600D01*
X98400D01*
X98800Y135601D01*
X99199Y135201D01*
Y134801D01*
X97600Y132402D02*
Y133202D01*
X98000Y133601D01*
X98800D01*
X99199Y133202D01*
Y132402D01*
X98800Y132002D01*
X98400D01*
Y133601D01*
X97600Y130803D02*
X99599D01*
X98800D01*
Y131202D01*
Y130403D01*
Y130803D01*
X99599D01*
X99999Y130403D01*
X102199Y73099D02*
X101800Y73499D01*
X101000D01*
X100600Y73099D01*
Y71500D01*
X101000Y71100D01*
X101800D01*
X102199Y71500D01*
X103399Y71100D02*
X104199D01*
X104599Y71500D01*
Y72300D01*
X104199Y72699D01*
X103399D01*
X102999Y72300D01*
Y71500D01*
X103399Y71100D01*
X105398D02*
X106198D01*
X105798D01*
Y72699D01*
X105398D01*
X107398Y71100D02*
X108197D01*
X107798D01*
Y73499D01*
X107398D01*
X38600Y73300D02*
X38200Y73700D01*
X37400D01*
X37001Y73300D01*
Y71700D01*
X37400Y71300D01*
X38200D01*
X38600Y71700D01*
X39400Y72500D02*
X40999D01*
X40200Y73300D02*
Y71700D01*
X147001Y91300D02*
Y93700D01*
X148200D01*
X148600Y93300D01*
Y92500D01*
X148200Y92100D01*
X147001D01*
X149400Y93300D02*
X149800Y93700D01*
X150600D01*
X150999Y93300D01*
Y92900D01*
X150600Y92500D01*
X150999Y92100D01*
Y91700D01*
X150600Y91300D01*
X149800D01*
X149400Y91700D01*
Y92100D01*
X149800Y92500D01*
X149400Y92900D01*
Y93300D01*
X149800Y92500D02*
X150600D01*
X147501Y77800D02*
Y80200D01*
X148700D01*
X149100Y79800D01*
Y79000D01*
X148700Y78600D01*
X147501D01*
X151499Y80200D02*
X149900D01*
Y79000D01*
X150700Y79400D01*
X151100D01*
X151499Y79000D01*
Y78200D01*
X151100Y77800D01*
X150300D01*
X149900Y78200D01*
X38600Y95800D02*
X38200Y96200D01*
X37400D01*
X37001Y95800D01*
Y94200D01*
X37400Y93800D01*
X38200D01*
X38600Y94200D01*
X39400Y95000D02*
X40999D01*
M02*
