G04*
G04 #@! TF.GenerationSoftware,Altium Limited,Altium Designer,25.8.1 (18)*
G04*
G04 Layer_Color=8421504*
%FSLAX25Y25*%
%MOIN*%
G70*
G04*
G04 #@! TF.SameCoordinates,1F430A3A-8F33-46F7-BF41-0B8A99DE0E04*
G04*
G04*
G04 #@! TF.FilePolarity,Positive*
G04*
G01*
G75*
%ADD15C,0.03000*%
%ADD16R,0.03610X0.03610*%
%ADD17R,0.02559X0.02756*%
G04:AMPARAMS|DCode=18|XSize=49.49mil|YSize=14.8mil|CornerRadius=7.4mil|HoleSize=0mil|Usage=FLASHONLY|Rotation=0.000|XOffset=0mil|YOffset=0mil|HoleType=Round|Shape=RoundedRectangle|*
%AMROUNDEDRECTD18*
21,1,0.04949,0.00000,0,0,0.0*
21,1,0.03470,0.01480,0,0,0.0*
1,1,0.01480,0.01735,0.00000*
1,1,0.01480,-0.01735,0.00000*
1,1,0.01480,-0.01735,0.00000*
1,1,0.01480,0.01735,0.00000*
%
%ADD18ROUNDEDRECTD18*%
%ADD19R,0.04949X0.01480*%
%ADD20R,0.02894X0.03394*%
%ADD21R,0.03775X0.03591*%
%ADD22R,0.03543X0.04134*%
%ADD23R,0.02190X0.05339*%
%ADD24R,0.02756X0.03543*%
%ADD25C,0.03543*%
%ADD26R,0.05339X0.02190*%
%ADD27R,0.02756X0.02559*%
%ADD28R,0.03681X0.03788*%
G04:AMPARAMS|DCode=29|XSize=9.45mil|YSize=23.62mil|CornerRadius=1.98mil|HoleSize=0mil|Usage=FLASHONLY|Rotation=180.000|XOffset=0mil|YOffset=0mil|HoleType=Round|Shape=RoundedRectangle|*
%AMROUNDEDRECTD29*
21,1,0.00945,0.01965,0,0,180.0*
21,1,0.00548,0.02362,0,0,180.0*
1,1,0.00397,-0.00274,0.00983*
1,1,0.00397,0.00274,0.00983*
1,1,0.00397,0.00274,-0.00983*
1,1,0.00397,-0.00274,-0.00983*
%
%ADD29ROUNDEDRECTD29*%
%ADD30R,0.08071X0.04331*%
G04:AMPARAMS|DCode=31|XSize=9.45mil|YSize=23.62mil|CornerRadius=1.98mil|HoleSize=0mil|Usage=FLASHONLY|Rotation=90.000|XOffset=0mil|YOffset=0mil|HoleType=Round|Shape=RoundedRectangle|*
%AMROUNDEDRECTD31*
21,1,0.00945,0.01965,0,0,90.0*
21,1,0.00548,0.02362,0,0,90.0*
1,1,0.00397,0.00983,0.00274*
1,1,0.00397,0.00983,-0.00274*
1,1,0.00397,-0.00983,-0.00274*
1,1,0.00397,-0.00983,0.00274*
%
%ADD31ROUNDEDRECTD31*%
%ADD32R,0.02900X0.02200*%
%ADD33R,0.03150X0.03543*%
%ADD34R,0.01575X0.02008*%
%ADD35R,0.04134X0.03543*%
G36*
X149552Y150275D02*
X150106Y149721D01*
X150406Y148998D01*
Y148606D01*
Y146244D01*
X146468D01*
X146468Y148606D01*
Y148998D01*
X146768Y149721D01*
X147322Y150275D01*
X148045Y150575D01*
X148828D01*
X149552Y150275D01*
D02*
G37*
G36*
X143647D02*
X144200Y149721D01*
X144500Y148998D01*
Y148606D01*
Y142701D01*
X140563D01*
X140563Y148606D01*
Y148998D01*
X140863Y149721D01*
X141416Y150275D01*
X142140Y150575D01*
X142923D01*
X143647Y150275D01*
D02*
G37*
G36*
X137741D02*
X138295Y149721D01*
X138594Y148998D01*
Y148606D01*
X138594D01*
Y142701D01*
X134658D01*
Y148606D01*
Y148998D01*
X134957Y149721D01*
X135511Y150275D01*
X136234Y150575D01*
X137018D01*
X137741Y150275D01*
D02*
G37*
G36*
X131835D02*
X132389Y149721D01*
X132689Y148998D01*
Y148606D01*
X132689D01*
Y142701D01*
X128752D01*
Y148606D01*
Y148998D01*
X129052Y149721D01*
X129605Y150275D01*
X130329Y150575D01*
X131112D01*
X131835Y150275D01*
D02*
G37*
G36*
X125930D02*
X126484Y149721D01*
X126783Y148998D01*
Y148606D01*
Y142701D01*
X122846D01*
Y148606D01*
Y148998D01*
X123146Y149721D01*
X123700Y150275D01*
X124423Y150575D01*
X125206D01*
X125930Y150275D01*
D02*
G37*
G36*
X121862Y136795D02*
X115565D01*
X114842Y137095D01*
X114288Y137649D01*
X113988Y138372D01*
Y138764D01*
Y139155D01*
X114288Y139879D01*
X114842Y140433D01*
X115565Y140732D01*
X121862D01*
Y136795D01*
D02*
G37*
G36*
Y130890D02*
X115957Y130890D01*
X115565D01*
X114842Y131190D01*
X114288Y131743D01*
X113988Y132467D01*
Y132858D01*
Y133250D01*
X114288Y133973D01*
X114842Y134527D01*
X115565Y134827D01*
X121862D01*
Y130890D01*
D02*
G37*
G36*
Y124984D02*
X115957Y124984D01*
X115565D01*
X114842Y125284D01*
X114288Y125838D01*
X113988Y126561D01*
Y126953D01*
Y127344D01*
X114288Y128068D01*
X114842Y128622D01*
X115565Y128921D01*
X121862D01*
Y124984D01*
D02*
G37*
G36*
X62965Y122165D02*
X59138Y122165D01*
X58913Y122593D01*
X58347Y123376D01*
X57644Y124039D01*
X56830Y124558D01*
X55932Y124914D01*
X54983Y125096D01*
X54017Y125096D01*
X53069Y124914D01*
X52171Y124558D01*
X51356Y124039D01*
X50653Y123376D01*
X50088Y122594D01*
X49863Y122166D01*
Y122166D01*
X46035Y122165D01*
Y128465D01*
X62965D01*
Y122165D01*
D02*
G37*
G36*
X121862Y119079D02*
X115565D01*
X114842Y119378D01*
X114288Y119932D01*
X113988Y120656D01*
Y121047D01*
Y121439D01*
X114288Y122162D01*
X114842Y122716D01*
X115565Y123016D01*
X115957D01*
Y123016D01*
X121862D01*
Y119079D01*
D02*
G37*
G36*
X62965Y111535D02*
X46035D01*
Y117835D01*
X49862Y117835D01*
X50087Y117407D01*
X50653Y116624D01*
X51355Y115961D01*
X52170Y115442D01*
X53068Y115086D01*
X54017Y114904D01*
X54983Y114904D01*
X55931Y115086D01*
X56829Y115442D01*
X57644Y115961D01*
X58347Y116624D01*
X58912Y117406D01*
X59137Y117834D01*
X59137Y117834D01*
X62965Y117835D01*
Y111535D01*
D02*
G37*
G36*
X121862Y113173D02*
X115565D01*
X114842Y113473D01*
X114288Y114027D01*
X113988Y114750D01*
Y115142D01*
Y115533D01*
X114288Y116257D01*
X114842Y116811D01*
X115565Y117110D01*
X115957D01*
Y117110D01*
X121862D01*
Y113173D01*
D02*
G37*
G36*
Y107268D02*
X115565D01*
X114842Y107567D01*
X114288Y108121D01*
X113988Y108845D01*
Y109236D01*
Y109628D01*
X114288Y110351D01*
X114842Y110905D01*
X115565Y111205D01*
X121862D01*
Y107268D01*
D02*
G37*
G36*
X150406Y99394D02*
Y99002D01*
X150106Y98279D01*
X149552Y97725D01*
X148828Y97425D01*
X148045D01*
X147322Y97725D01*
X146768Y98279D01*
X146468Y99002D01*
Y99394D01*
X146468D01*
Y105299D01*
X150406D01*
Y99394D01*
D02*
G37*
G36*
X144500D02*
Y99002D01*
X144200Y98279D01*
X143647Y97725D01*
X142923Y97425D01*
X142140D01*
X141416Y97725D01*
X140863Y98279D01*
X140563Y99002D01*
Y99394D01*
X140563D01*
Y105299D01*
X144500D01*
Y99394D01*
D02*
G37*
G36*
X138594D02*
Y99002D01*
X138295Y98279D01*
X137741Y97725D01*
X137018Y97425D01*
X136234D01*
X135511Y97725D01*
X134957Y98279D01*
X134658Y99002D01*
Y99394D01*
Y105299D01*
X138594D01*
X138594Y99394D01*
D02*
G37*
G36*
X132689D02*
Y99002D01*
X132389Y98279D01*
X131835Y97725D01*
X131112Y97425D01*
X130329D01*
X129605Y97725D01*
X129052Y98279D01*
X128752Y99002D01*
Y99394D01*
Y105299D01*
X132689D01*
X132689Y99394D01*
D02*
G37*
G36*
X126783D02*
Y99002D01*
X126484Y98279D01*
X125930Y97725D01*
X125206Y97425D01*
X124423D01*
X123700Y97725D01*
X123146Y98279D01*
X122846Y99002D01*
Y99394D01*
Y105299D01*
X126783D01*
Y99394D01*
D02*
G37*
D15*
X40000Y148000D02*
G03*
X40000Y148000I-1500J0D01*
G01*
D02*
G03*
X40000Y148000I-1500J0D01*
G01*
Y89000D02*
G03*
X40000Y89000I-1500J0D01*
G01*
D02*
G03*
X40000Y89000I-1500J0D01*
G01*
Y79000D02*
G03*
X40000Y79000I-1500J0D01*
G01*
D02*
G03*
X40000Y79000I-1500J0D01*
G01*
Y107000D02*
G03*
X40000Y107000I-1500J0D01*
G01*
D02*
G03*
X40000Y107000I-1500J0D01*
G01*
X150500Y86500D02*
G03*
X150500Y86500I-1500J0D01*
G01*
D02*
G03*
X150500Y86500I-1500J0D01*
G01*
Y73500D02*
G03*
X150500Y73500I-1500J0D01*
G01*
D02*
G03*
X150500Y73500I-1500J0D01*
G01*
D16*
X77199Y136625D02*
D03*
Y132228D02*
D03*
X72801D02*
D03*
Y136625D02*
D03*
D17*
X94657Y115000D02*
D03*
X89342D02*
D03*
D18*
X94500Y104500D02*
D03*
X89771Y102532D02*
D03*
D19*
Y106468D02*
D03*
D20*
X89577Y131000D02*
D03*
X94423D02*
D03*
X89577Y148000D02*
D03*
X94423D02*
D03*
D21*
X109861Y104000D02*
D03*
X104139D02*
D03*
D22*
X89342Y139500D02*
D03*
X94657D02*
D03*
D23*
X68161Y117500D02*
D03*
X75839D02*
D03*
D24*
X94756Y123000D02*
D03*
X89244D02*
D03*
D25*
X142532Y146638D02*
D03*
X136626Y146439D02*
D03*
X130720D02*
D03*
X117925Y138764D02*
D03*
Y109236D02*
D03*
Y121047D02*
D03*
X118124Y132858D02*
D03*
X117925Y115142D02*
D03*
X148437Y148409D02*
D03*
X124815Y146638D02*
D03*
Y101362D02*
D03*
X130720D02*
D03*
X136626D02*
D03*
X142532D02*
D03*
X148437D02*
D03*
X118124Y126953D02*
D03*
D26*
X59000Y140839D02*
D03*
Y133161D02*
D03*
D27*
X50500Y139157D02*
D03*
Y133843D02*
D03*
D28*
X75151Y148000D02*
D03*
X80784D02*
D03*
D29*
X71063Y127934D02*
D03*
X78937D02*
D03*
X71063Y140926D02*
D03*
X73032D02*
D03*
X75000D02*
D03*
X76968D02*
D03*
X78937D02*
D03*
X76968Y127934D02*
D03*
X75000D02*
D03*
X73032D02*
D03*
D30*
X65812Y83496D02*
D03*
Y70504D02*
D03*
X65688Y90004D02*
D03*
Y102996D02*
D03*
X78500Y90004D02*
D03*
Y102996D02*
D03*
X53000Y70504D02*
D03*
X78500D02*
D03*
X52876Y102996D02*
D03*
Y90004D02*
D03*
X53000Y83496D02*
D03*
X78500D02*
D03*
D31*
X68504Y130493D02*
D03*
Y134430D02*
D03*
Y136398D02*
D03*
Y138367D02*
D03*
X81496D02*
D03*
Y134430D02*
D03*
Y132461D02*
D03*
Y130493D02*
D03*
X68504Y132461D02*
D03*
X81496Y136398D02*
D03*
D32*
X127400Y90250D02*
D03*
Y82750D02*
D03*
X119600Y86500D02*
D03*
D33*
X132663Y89846D02*
D03*
Y83153D02*
D03*
D34*
X113000Y81461D02*
D03*
X114969Y86539D02*
D03*
X111031D02*
D03*
D35*
X139964Y83646D02*
D03*
Y89354D02*
D03*
M02*
