G04*
G04 #@! TF.GenerationSoftware,Altium Limited,Altium Designer,25.8.1 (18)*
G04*
G04 Layer_Color=2752767*
%FSLAX25Y25*%
%MOIN*%
G70*
G04*
G04 #@! TF.SameCoordinates,1F430A3A-8F33-46F7-BF41-0B8A99DE0E04*
G04*
G04*
G04 #@! TF.FilePolarity,Positive*
G04*
G01*
G75*
%ADD13C,0.00500*%
%ADD72C,0.00667*%
D13*
X105000Y142500D02*
Y146500D01*
X109000D01*
Y142500D01*
X105000D01*
Y112500D02*
Y116500D01*
X109000D01*
Y112500D01*
X105000D01*
Y122500D02*
Y126500D01*
X109000D01*
Y122500D01*
X105000D01*
Y132500D02*
Y136500D01*
X109000D01*
Y132500D01*
X105000D01*
X38500Y146000D02*
X36500Y150000D01*
X40500D01*
X38500Y146000D01*
Y87000D02*
X36500Y91000D01*
X40500D01*
X38500Y87000D01*
Y77000D02*
X36500Y81000D01*
X40500D01*
X38500Y77000D01*
Y105000D02*
X36500Y109000D01*
X40500D01*
X38500Y105000D01*
X149000Y84500D02*
X147000Y88500D01*
X151000D01*
X149000Y84500D01*
Y71500D02*
X147000Y75500D01*
X151000D01*
X149000Y71500D01*
X121831Y107236D02*
X122831Y109236D01*
X121831Y111236D01*
X123831Y110236D01*
X125831Y111236D01*
X124831Y109236D01*
X125831Y107236D01*
X123831Y108236D01*
X121831Y107236D01*
X121736Y136764D02*
X122736Y138764D01*
X121736Y140764D01*
X123736Y139764D01*
X125736Y140764D01*
X124736Y138764D01*
X125736Y136764D01*
X123736Y137764D01*
X121736Y136764D01*
X128720Y138279D02*
X129720Y140279D01*
X128720Y142280D01*
X130720Y141279D01*
X132720Y142280D01*
X131720Y140279D01*
X132720Y138279D01*
X130720Y139279D01*
X128720Y138279D01*
X134626Y138374D02*
X135626Y140374D01*
X134626Y142374D01*
X136626Y141374D01*
X138626Y142374D01*
X137626Y140374D01*
X138626Y138374D01*
X136626Y139374D01*
X134626Y138374D01*
X140532Y138531D02*
X141532Y140532D01*
X140532Y142532D01*
X142532Y141532D01*
X144532Y142532D01*
X143532Y140532D01*
X144532Y138531D01*
X142532Y139532D01*
X140532Y138531D01*
X65000Y122500D02*
X66000Y124500D01*
X65000Y126500D01*
X67000Y125500D01*
X69000Y126500D01*
X68000Y124500D01*
X69000Y122500D01*
X67000Y123500D01*
X65000Y122500D01*
X64500Y145000D02*
X65500Y147000D01*
X64500Y149000D01*
X66500Y148000D01*
X68500Y149000D01*
X67500Y147000D01*
X68500Y145000D01*
X66500Y146000D01*
X64500Y145000D01*
X67500Y142000D02*
X68500Y144000D01*
X67500Y146000D01*
X69500Y145000D01*
X71500Y146000D01*
X70500Y144000D01*
X71500Y142000D01*
X69500Y143000D01*
X67500Y142000D01*
X67000Y124500D02*
X68000Y126500D01*
X67000Y128500D01*
X69000Y127500D01*
X71000Y128500D01*
X70000Y126500D01*
X71000Y124500D01*
X69000Y125500D01*
X67000Y124500D01*
X110000Y142500D02*
X111000Y144500D01*
X110000Y146500D01*
X112000Y145500D01*
X114000Y146500D01*
X113000Y144500D01*
X114000Y142500D01*
X112000Y143500D01*
X110000Y142500D01*
X107861Y98139D02*
X108861Y100139D01*
X107861Y102139D01*
X109861Y101139D01*
X111861Y102139D01*
X110861Y100139D01*
X111861Y98139D01*
X109861Y99139D01*
X107861Y98139D01*
X81500Y123500D02*
X82500Y124500D01*
X83500D01*
X82500Y125500D01*
X83500Y126500D01*
X82500D01*
X81500Y127500D01*
X80500Y126500D01*
X79500D01*
X80500Y125500D01*
X79500Y124500D01*
X80500D01*
X81500Y123500D01*
X84500Y134511D02*
X85500Y135511D01*
X86500D01*
X85500Y136511D01*
X86500Y137511D01*
X85500D01*
X84500Y138511D01*
X83500Y137511D01*
X82500D01*
X83500Y136511D01*
X82500Y135511D01*
X83500D01*
X84500Y134511D01*
X85687Y126839D02*
X86687Y127839D01*
X87687D01*
X86687Y128839D01*
X87687Y129839D01*
X86687D01*
X85687Y130839D01*
X84687Y129839D01*
X83687D01*
X84687Y128839D01*
X83687Y127839D01*
X84687D01*
X85687Y126839D01*
X85874Y118874D02*
X86874Y119874D01*
X87874D01*
X86874Y120874D01*
X87874Y121874D01*
X86874D01*
X85874Y122874D01*
X84874Y121874D01*
X83874D01*
X84874Y120874D01*
X83874Y119874D01*
X84874D01*
X85874Y118874D01*
X82762Y115762D02*
X83763Y116762D01*
X84763D01*
X83763Y117762D01*
X84763Y118763D01*
X83763D01*
X82762Y119763D01*
X81762Y118763D01*
X80762D01*
X81762Y117762D01*
X80762Y116762D01*
X81762D01*
X82762Y115762D01*
X65000Y133500D02*
X66000Y134500D01*
X67000D01*
X66000Y135500D01*
X67000Y136500D01*
X66000D01*
X65000Y137500D01*
X64000Y136500D01*
X63000D01*
X64000Y135500D01*
X63000Y134500D01*
X64000D01*
X65000Y133500D01*
X64406Y130298D02*
X65406Y131298D01*
X66406D01*
X65406Y132298D01*
X66406Y133298D01*
X65406D01*
X64406Y134298D01*
X63406Y133298D01*
X62406D01*
X63406Y132298D01*
X62406Y131298D01*
X63406D01*
X64406Y130298D01*
X80500Y118000D02*
X81500Y119000D01*
X82500D01*
X81500Y120000D01*
X82500Y121000D01*
X81500D01*
X80500Y122000D01*
X79500Y121000D01*
X78500D01*
X79500Y120000D01*
X78500Y119000D01*
X79500D01*
X80500Y118000D01*
X127500Y91000D02*
X128500Y93000D01*
X127500Y95000D01*
X129500Y94000D01*
X131500Y95000D01*
X130500Y93000D01*
X131500Y91000D01*
X129500Y92000D01*
X127500Y91000D01*
X124500D02*
X125500Y93000D01*
X124500Y95000D01*
X126500Y94000D01*
X128500Y95000D01*
X127500Y93000D01*
X128500Y91000D01*
X126500Y92000D01*
X124500Y91000D01*
X121500D02*
X122500Y93000D01*
X121500Y95000D01*
X123500Y94000D01*
X125500Y95000D01*
X124500Y93000D01*
X125500Y91000D01*
X123500Y92000D01*
X121500Y91000D01*
X74500Y72500D02*
X75500Y74500D01*
X74500Y76500D01*
X76500Y75500D01*
X78500Y76500D01*
X77500Y74500D01*
X78500Y72500D01*
X76500Y73500D01*
X74500Y72500D01*
X78000D02*
X79000Y74500D01*
X78000Y76500D01*
X80000Y75500D01*
X82000Y76500D01*
X81000Y74500D01*
X82000Y72500D01*
X80000Y73500D01*
X78000Y72500D01*
X65500D02*
X66500Y74500D01*
X65500Y76500D01*
X67500Y75500D01*
X69500Y76500D01*
X68500Y74500D01*
X69500Y72500D01*
X67500Y73500D01*
X65500Y72500D01*
X53000D02*
X54000Y74500D01*
X53000Y76500D01*
X55000Y75500D01*
X57000Y76500D01*
X56000Y74500D01*
X57000Y72500D01*
X55000Y73500D01*
X53000Y72500D01*
X61500D02*
X62500Y74500D01*
X61500Y76500D01*
X63500Y75500D01*
X65500Y76500D01*
X64500Y74500D01*
X65500Y72500D01*
X63500Y73500D01*
X61500Y72500D01*
X49000D02*
X50000Y74500D01*
X49000Y76500D01*
X51000Y75500D01*
X53000Y76500D01*
X52000Y74500D01*
X53000Y72500D01*
X51000Y73500D01*
X49000Y72500D01*
X48500Y97000D02*
X49500Y99000D01*
X48500Y101000D01*
X50500Y100000D01*
X52500Y101000D01*
X51500Y99000D01*
X52500Y97000D01*
X50500Y98000D01*
X48500Y97000D01*
X53000D02*
X54000Y99000D01*
X53000Y101000D01*
X55000Y100000D01*
X57000Y101000D01*
X56000Y99000D01*
X57000Y97000D01*
X55000Y98000D01*
X53000Y97000D01*
X74500D02*
X75500Y99000D01*
X74500Y101000D01*
X76500Y100000D01*
X78500Y101000D01*
X77500Y99000D01*
X78500Y97000D01*
X76500Y98000D01*
X74500Y97000D01*
X65500D02*
X66500Y99000D01*
X65500Y101000D01*
X67500Y100000D01*
X69500Y101000D01*
X68500Y99000D01*
X69500Y97000D01*
X67500Y98000D01*
X65500Y97000D01*
X78500D02*
X79500Y99000D01*
X78500Y101000D01*
X80500Y100000D01*
X82500Y101000D01*
X81500Y99000D01*
X82500Y97000D01*
X80500Y98000D01*
X78500Y97000D01*
X61500D02*
X62500Y99000D01*
X61500Y101000D01*
X63500Y100000D01*
X65500Y101000D01*
X64500Y99000D01*
X65500Y97000D01*
X63500Y98000D01*
X61500Y97000D01*
X75944Y122444D02*
X76944Y123444D01*
X77944D01*
X76944Y124444D01*
X77944Y125444D01*
X76944D01*
X75944Y126444D01*
X74944Y125444D01*
X73944D01*
X74944Y124444D01*
X73944Y123444D01*
X74944D01*
X75944Y122444D01*
X65000Y136000D02*
X66000Y137000D01*
X67000D01*
X66000Y138000D01*
X67000Y139000D01*
X66000D01*
X65000Y140000D01*
X64000Y139000D01*
X63000D01*
X64000Y138000D01*
X63000Y137000D01*
X64000D01*
X65000Y136000D01*
X72639Y122639D02*
X73639Y123639D01*
X74639D01*
X73639Y124639D01*
X74639Y125639D01*
X73639D01*
X72639Y126639D01*
X71639Y125639D01*
X70639D01*
X71639Y124639D01*
X70639Y123639D01*
X71639D01*
X72639Y122639D01*
X63000Y113000D02*
X64000Y115000D01*
X63000Y117000D01*
X65000Y116000D01*
X67000Y117000D01*
X66000Y115000D01*
X67000Y113000D01*
X65000Y114000D01*
X63000Y113000D01*
X62500Y143500D02*
X63500Y144500D01*
X64500D01*
X63500Y145500D01*
X64500Y146500D01*
X63500D01*
X62500Y147500D01*
X61500Y146500D01*
X60500D01*
X61500Y145500D01*
X60500Y144500D01*
X61500D01*
X62500Y143500D01*
X60000D02*
X61000Y144500D01*
X62000D01*
X61000Y145500D01*
X62000Y146500D01*
X61000D01*
X60000Y147500D01*
X59000Y146500D01*
X58000D01*
X59000Y145500D01*
X58000Y144500D01*
X59000D01*
X60000Y143500D01*
D72*
X80051Y134430D02*
G03*
X80051Y134430I-2000J0D01*
G01*
X77000Y131378D02*
G03*
X77000Y131378I-2000J0D01*
G01*
Y137481D02*
G03*
X77000Y137481I-2000J0D01*
G01*
X73949Y134430D02*
G03*
X73949Y134430I-2000J0D01*
G01*
M02*
